<?xml version="1.0" encoding="UTF-8"?>
<svg id="Layer_1" data-name="Layer 1" xmlns="http://www.w3.org/2000/svg" xmlns:xlink="http://www.w3.org/1999/xlink" viewBox="0 0 1367.84 197.95">
  <defs>
    <style>
      .cls-1 {
        fill: #0e3b5c;
      }

      .cls-1, .cls-2, .cls-3, .cls-4, .cls-5 {
        fill-rule: evenodd;
        stroke-width: 0px;
      }

      .cls-2 {
        fill: url(#linear-gradient-3);
      }

      .cls-3 {
        fill: url(#linear-gradient);
      }

      .cls-4 {
        fill: url(#linear-gradient-2);
      }

      .cls-5 {
        fill: url(#linear-gradient-4);
      }
    </style>
    <linearGradient id="linear-gradient" x1="1227.78" y1="125.67" x2="1425.8" y2="125.67" gradientUnits="userSpaceOnUse">
      <stop offset="0" stop-color="#0f799c"/>
      <stop offset=".23" stop-color="#0d608a"/>
      <stop offset=".49" stop-color="#0b4b7b"/>
      <stop offset=".75" stop-color="#0a3f72"/>
      <stop offset="1" stop-color="#0a3b70"/>
    </linearGradient>
    <linearGradient id="linear-gradient-2" x1="1148.82" y1="118.3" x2="1249.9" y2="118.3" gradientUnits="userSpaceOnUse">
      <stop offset="0" stop-color="#0f799c"/>
      <stop offset=".23" stop-color="#0e7196"/>
      <stop offset=".57" stop-color="#0c5d88"/>
      <stop offset=".99" stop-color="#0a3c70"/>
      <stop offset="1" stop-color="#0a3b70"/>
    </linearGradient>
    <linearGradient id="linear-gradient-3" x1="710.28" y1="98.27" x2="1098.86" y2="98.27" xlink:href="#linear-gradient"/>
    <linearGradient id="linear-gradient-4" x1="194.61" y1="124.51" x2="527.08" y2="124.51" xlink:href="#linear-gradient"/>
  </defs>
  <g id="mountain">
    <path class="cls-1" d="M1367.84,91.43v105.94c-170.74-.44-336.45-1.04-453.88-1.49-312.63,1.64-737.55,3.23-913.96.9v-106.16l226.16-39.55,14.88,5.36,22.58-4.13,257.46,65.44L714.5,0l62.7,13.12,45.7-5.82,276.96,89.52,105.34-21.99,45.7,3.77,62.7-8.49,54.24,21.32Z"/>
    <polygon class="cls-3" points="1366.84 91.43 1366.84 119.98 1308.86 166.64 1168.82 181.24 1244.63 156.9 1265.68 135.01 1305.69 139.88 1274.11 125.29 1312.6 70.11 1366.84 91.43"/>
    <polygon class="cls-4" points="1204.19 74.83 1249.9 78.59 1229.88 125.29 1148.82 161.77 1195.14 122.84 1204.19 74.83"/>
    <path class="cls-2" d="M1090.06,196.53c-65.8-.23-126.01-.45-177.11-.65-39.46.2-80.72.42-123.05.6l-51.73-32.28-27.9-10.34,27.38-6.68,15.8-9.74-12.63-26.76,33.69,6.69-30.52-15.82-26.32-17.02,34.74-7.3,73.7,18.24-73.7-46.23L713.5,0l62.7,13.12,25.01-3.18,19.1,36.89-35.28-10.95,46.32,32.54,5.27,44.85,28.16,33.91-22.11-32.85,3.68-43.18,30.03,4.87-31.6-14.59-22.88-54.12,276.96,89.52s-6.29,64.37-8.79,99.71h0Z"/>
    <polygon class="cls-5" points="527.08 197.52 526.96 197.52 218.76 197.94 218.55 197.94 194.61 157.5 304.9 163.6 229.09 108.85 315.45 113.72 195.92 85.44 225.15 51.08 240.03 56.43 262.62 52.3 520.07 117.74 527.08 197.52"/>
  </g>
</svg>