<?xml version="1.0" encoding="UTF-8"?>
<svg id="Layer_1" data-name="Layer 1" xmlns="http://www.w3.org/2000/svg" xmlns:xlink="http://www.w3.org/1999/xlink" viewBox="0 0 1927.21 1078.76">
  <defs>
    <style>
      .cls-1 {
        fill: #0e3b5c;
      }

      .cls-1, .cls-2, .cls-3, .cls-4, .cls-5 {
        fill-rule: evenodd;
        stroke-width: 0px;
      }

      .cls-2 {
        fill: url(#linear-gradient-3);
      }

      .cls-3 {
        fill: url(#linear-gradient);
      }

      .cls-4 {
        fill: url(#linear-gradient-2);
      }

      .cls-5 {
        fill: url(#linear-gradient-4);
      }
    </style>
    <linearGradient id="linear-gradient" x1="1728.81" y1="718.01" x2="2007.82" y2="718.01" gradientUnits="userSpaceOnUse">
      <stop offset="0" stop-color="#0f799c"/>
      <stop offset=".23" stop-color="#0d608a"/>
      <stop offset=".49" stop-color="#0b4b7b"/>
      <stop offset=".75" stop-color="#0a3f72"/>
      <stop offset="1" stop-color="#0a3b70"/>
    </linearGradient>
    <linearGradient id="linear-gradient-2" x1="1617.56" y1="707.68" x2="1759.98" y2="707.68" gradientUnits="userSpaceOnUse">
      <stop offset="0" stop-color="#0f799c"/>
      <stop offset=".23" stop-color="#0e7196"/>
      <stop offset=".57" stop-color="#0c5d88"/>
      <stop offset=".99" stop-color="#0a3c70"/>
      <stop offset="1" stop-color="#0a3b70"/>
    </linearGradient>
    <linearGradient id="linear-gradient-3" x1="999.68" y1="679.62" x2="1547.17" y2="679.62" xlink:href="#linear-gradient"/>
    <linearGradient id="linear-gradient-4" x1="273.14" y1="716.38" x2="741.57" y2="716.38" xlink:href="#linear-gradient"/>
  </defs>
  <g id="mountain">
    <path class="cls-1" d="m1926.16,670.04v148.4c-240.56-.61-474.04-1.45-639.5-2.09-440.48,2.3-1039.16,4.52-1287.71,1.27v-148.7l318.64-55.4,20.97,7.5,31.82-5.79,362.74,91.66,272.52-164.93,88.34,18.38,64.4-8.16,390.21,125.4,148.42-30.81,64.4,5.27,88.34-11.89,76.42,29.87Z"/>
    <polygon class="cls-3" points="1924.74 670.04 1924.74 710.04 1843.05 775.4 1645.74 795.84 1752.55 761.75 1782.21 731.09 1838.59 737.91 1794.1 717.47 1848.32 640.17 1924.74 670.04"/>
    <polygon class="cls-4" points="1695.58 646.78 1759.98 652.06 1731.78 717.47 1617.56 768.58 1682.83 714.05 1695.58 646.78"/>
    <path class="cls-2" d="m1534.78,817.27c-92.71-.33-177.54-.63-249.54-.91-55.59.28-113.74.59-173.37.84l-72.89-45.22-39.3-14.49,38.58-9.35,22.26-13.64-17.8-37.49,47.46,9.38-43.01-22.15-37.09-23.84,48.95-10.22,103.84,25.55-103.84-64.75-54.81-68.99,88.34,18.38,35.24-4.45,26.91,51.67-49.71-15.33,65.26,45.57,7.43,62.83,39.67,47.5-31.15-46.02,5.19-60.48,42.3,6.82-44.52-20.44-32.24-75.82,390.21,125.4s-8.86,90.16-12.39,139.68h0Z"/>
    <polygon class="cls-5" points="741.57 818.65 741.4 818.65 307.17 819.24 306.86 819.24 273.14 762.6 428.53 771.13 321.72 694.45 443.39 701.27 274.99 661.65 316.17 613.52 337.14 621.02 368.96 615.23 731.7 706.89 741.57 818.65"/>
  </g>
</svg>