<?xml version="1.0" encoding="UTF-8"?>
<svg id="Layer_1" data-name="Layer 1" xmlns="http://www.w3.org/2000/svg" xmlns:xlink="http://www.w3.org/1999/xlink" viewBox="0 0 1364 44.78">
  <defs>
    <style>
      .cls-1 {
        fill: url(#_Áåçûìÿííûé_ãðàäèåíò_18);
      }

      .cls-1, .cls-2 {
        stroke-width: 0px;
      }

      .cls-3 {
        opacity: .53;
      }

      .cls-2 {
        fill: #fff;
      }
    </style>
    <radialGradient id="_Áåçûìÿííûé_ãðàäèåíò_18" data-name="Áåçûìÿííûé ãðàäèåíò 18" cx="81.09" cy="236.07" fx="81.09" fy="236.07" r="1631.74" gradientTransform="translate(601.12 -89.85) scale(.7 .59)" gradientUnits="userSpaceOnUse">
      <stop offset="0" stop-color="#00819d"/>
      <stop offset=".26" stop-color="#004e71"/>
      <stop offset=".53" stop-color="#001e49"/>
      <stop offset=".67" stop-color="#00122f"/>
      <stop offset=".85" stop-color="#000412"/>
      <stop offset=".96" stop-color="#000008"/>
    </radialGradient>
  </defs>
  <rect id="river" class="cls-1" y=".73" width="1364" height="44.04"/>
  <g id="river-2" data-name="river" class="cls-3">
    <g>
      <path class="cls-2" d="M1065.68,26.18c.11-.1.23-.2.34-.3.15-.14.25-.34.25-.53s-.09-.41-.25-.53c-.16-.13-.38-.23-.6-.22-.23,0-.44.08-.6.22-.11.1-.23.2-.34.3-.15.14-.25.34-.25.53s.09.41.25.53c.16.13.38.23.6.22.23,0,.44-.08.6-.22h0Z"/>
      <path class="cls-2" d="M1072.34,9.29h.34c.22,0,.45-.08.6-.22.15-.13.26-.35.25-.53,0-.19-.08-.4-.25-.53-.17-.14-.37-.22-.6-.22h-.34c-.22,0-.45.08-.6.22-.15.13-.26.35-.25.53,0,.19.08.4.25.53.17.14.37.22.6.22h0Z"/>
      <path class="cls-2" d="M1047.91,20.29c0,.97,1.71.97,1.71,0s-1.71-.97-1.71,0h0Z"/>
      <path class="cls-2" d="M1047.48,8.77c.11.1.23.2.34.3.15.14.38.22.6.22s.46-.08.6-.22c.15-.14.26-.33.25-.53-.01-.2-.09-.39-.25-.53l-.34-.3c-.15-.14-.38-.22-.6-.22s-.46.08-.6.22c-.15.14-.26.33-.25.53.01.2.09.39.25.53h0Z"/>
      <path class="cls-2" d="M1174.69,31.75h.34c.22,0,.45-.08.6-.22.15-.13.26-.34.25-.53,0-.19-.08-.4-.25-.53-.17-.14-.37-.22-.6-.22h-.34c-.22,0-.45.08-.6.22-.15.13-.26.34-.25.53,0,.19.08.4.25.53.17.14.37.22.6.22h0Z"/>
      <path class="cls-2" d="M1149.84,31.23c.11.1.23.2.34.3.15.14.38.22.6.22s.46-.08.6-.22c.15-.14.26-.33.25-.53-.01-.2-.09-.39-.25-.53-.11-.1-.23-.2-.34-.3-.15-.14-.38-.22-.6-.22s-.46.08-.6.22c-.15.14-.26.33-.25.53.01.2.09.39.25.53h0Z"/>
      <path class="cls-2" d="M1118.4,26.25c0,.97,1.71.97,1.71,0s-1.71-.97-1.71,0h0Z"/>
      <path class="cls-2" d="M1102.78,13.22c.11-.1.23-.2.34-.3.15-.14.25-.34.25-.53s-.09-.41-.25-.53c-.16-.13-.38-.23-.6-.22-.23,0-.44.08-.6.22-.11.1-.23.2-.34.3-.15.14-.25.34-.25.53s.09.41.25.53c.16.13.38.23.6.22.23,0,.44-.08.6-.22h0Z"/>
      <path class="cls-2" d="M1089.71,14.5c0,.58,1.02.58,1.02,0s-1.02-.58-1.02,0h0Z"/>
      <path class="cls-2" d="M1250.77,27.55h-.34c-.22,0-.45.08-.6.22-.15.13-.26.35-.25.53,0,.19.08.4.25.53.17.14.37.22.6.22h.34c.22,0,.45-.08.6-.22s.26-.34.25-.53c0-.19-.08-.4-.25-.53-.17-.14-.37-.22-.6-.22h0Z"/>
      <path class="cls-2" d="M1275.19,16.55c0-.97-1.71-.97-1.71,0s1.71.97,1.71,0h0Z"/>
      <path class="cls-2" d="M1063.27,28.5c0-.97-1.71-.97-1.71,0s1.71.97,1.71,0h0Z"/>
      <path class="cls-2" d="M1186.13,28.07c-.11-.1-.23-.2-.34-.3-.15-.14-.38-.22-.6-.22s-.46.08-.6.22c-.15.14-.26.33-.25.53.01.2.09.39.25.53.11.1.23.2.34.3.15.14.38.22.6.22s.46-.08.6-.22c.15-.14.26-.33.25-.53-.01-.2-.09-.39-.25-.53h0Z"/>
      <path class="cls-2" d="M1218.92,19.19l.34-.3c.15-.14.25-.34.25-.53s-.09-.41-.25-.53c-.16-.13-.38-.23-.6-.22-.23,0-.44.08-.6.22-.11.1-.23.2-.34.3-.15.14-.25.34-.25.53s.09.41.25.53c.16.13.38.23.6.22.23,0,.44-.08.6-.22h0Z"/>
      <path class="cls-2" d="M1177.59,15.11c-.11-.1-.23-.2-.34-.3-.15-.14-.38-.22-.6-.22s-.46.08-.6.22c-.15.14-.26.33-.25.53.01.2.09.39.25.53.11.1.23.2.34.3.15.14.38.22.6.22s.46-.08.6-.22c.15-.14.26-.33.25-.53-.01-.2-.09-.39-.25-.53h0Z"/>
      <path class="cls-2" d="M1237.27,29.2c0-.97-1.71-.97-1.71,0s1.71.97,1.71,0h0Z"/>
      <path class="cls-2" d="M1275.62,28.07c-.11-.1-.23-.2-.34-.3-.15-.14-.38-.22-.6-.22s-.46.08-.6.22c-.15.14-.26.33-.25.53.01.2.09.39.25.53.11.1.23.2.34.3.15.14.38.22.6.22s.46-.08.6-.22c.15-.14.26-.33.25-.53-.01-.2-.09-.39-.25-.53h0Z"/>
      <path class="cls-2" d="M1138.9,32.22c0-.58-1.02-.58-1.02,0s1.02.58,1.02,0h0Z"/>
      <path class="cls-2" d="M1181.94,15.64c0-.58-1.02-.58-1.02,0s1.02.58,1.02,0h0Z"/>
      <path class="cls-2" d="M1204.82,15.34c0-.58-1.02-.58-1.02,0s1.02.58,1.02,0h0Z"/>
      <path class="cls-2" d="M1277.21,34.06c.11-.1.23-.2.34-.3.15-.14.25-.34.25-.53s-.09-.41-.25-.53c-.16-.13-.38-.23-.6-.22-.23,0-.44.08-.6.22-.11.1-.23.2-.34.3-.15.14-.25.34-.25.53s.09.41.25.53c.16.13.38.23.6.22.23,0,.44-.08.6-.22h0Z"/>
      <path class="cls-2" d="M1283.86,17.16h.34c.22,0,.45-.08.6-.22.15-.13.26-.34.25-.53,0-.19-.08-.4-.25-.53-.17-.14-.37-.22-.6-.22h-.34c-.22,0-.45.08-.6.22s-.26.34-.25.53c0,.19.08.4.25.53.17.14.37.22.6.22h0Z"/>
      <path class="cls-2" d="M1259.44,28.16c0,.97,1.71.97,1.71,0s-1.71-.97-1.71,0h0Z"/>
      <path class="cls-2" d="M1259.01,16.64c.11.1.23.2.34.3.15.14.38.22.6.22s.46-.08.6-.22c.15-.14.26-.33.25-.53-.01-.2-.09-.39-.25-.53-.11-.1-.23-.2-.34-.3-.15-.14-.38-.22-.6-.22s-.46.08-.6.22c-.15.14-.26.33-.25.53.01.2.09.39.25.53h0Z"/>
      <path class="cls-2" d="M1295.3,13.48c-.11-.1-.23-.2-.34-.3-.15-.14-.38-.22-.6-.22s-.46.08-.6.22c-.15.14-.26.33-.25.53.01.2.09.39.25.53l.34.3c.15.14.38.22.6.22s.46-.08.6-.22c.15-.14.26-.33.25-.53-.01-.2-.09-.39-.25-.53h0Z"/>
      <path class="cls-2" d="M1328.09,4.6c.11-.1.23-.2.34-.3.15-.14.25-.34.25-.53s-.09-.41-.25-.53c-.16-.13-.38-.23-.6-.22-.23,0-.44.08-.6.22-.11.1-.23.2-.34.3-.15.14-.25.34-.25.53s.09.41.25.53c.16.13.38.23.6.22.23,0,.44-.08.6-.22h0Z"/>
      <path class="cls-2" d="M1286.76.52c-.11-.1-.23-.2-.34-.3-.15-.14-.38-.22-.6-.22s-.46.08-.6.22c-.15.14-.26.33-.25.53.01.2.09.39.25.53.11.1.23.2.34.3.15.14.38.22.6.22s.46-.08.6-.22c.15-.14.26-.33.25-.53-.01-.2-.09-.39-.25-.53h0Z"/>
      <path class="cls-2" d="M1324.24,39.93v-.6c0-.24-.24-.46-.51-.45-.28.01-.51.2-.51.45v.6c0,.24.24.46.51.45.28-.01.51-.2.51-.45h0Z"/>
      <path class="cls-2" d="M1248.07,17.63c0-.58-1.02-.58-1.02,0s1.02.58,1.02,0h0Z"/>
      <path class="cls-2" d="M1291.11,1.05c0-.58-1.02-.58-1.02,0s1.02.58,1.02,0h0Z"/>
      <path class="cls-2" d="M1313.99.75c0-.58-1.02-.58-1.02,0s1.02.58,1.02,0h0Z"/>
    </g>
    <g>
      <path class="cls-2" d="M778.79,26.18c.11-.1.23-.2.34-.3.15-.14.25-.34.25-.53s-.09-.41-.25-.53c-.16-.13-.38-.23-.6-.22-.23,0-.44.08-.6.22-.11.1-.23.2-.34.3-.15.14-.25.34-.25.53s.09.41.25.53c.16.13.38.23.6.22.23,0,.44-.08.6-.22h0Z"/>
      <path class="cls-2" d="M785.44,9.29h.34c.22,0,.45-.08.6-.22.15-.13.26-.35.25-.53,0-.19-.08-.4-.25-.53-.17-.14-.37-.22-.6-.22h-.34c-.22,0-.45.08-.6.22-.15.13-.26.35-.25.53,0,.19.08.4.25.53.17.14.37.22.6.22h0Z"/>
      <path class="cls-2" d="M761.02,20.29c0,.97,1.71.97,1.71,0s-1.71-.97-1.71,0h0Z"/>
      <path class="cls-2" d="M760.58,8.77c.11.1.23.2.34.3.15.14.38.22.6.22s.46-.08.6-.22c.15-.14.26-.33.25-.53-.01-.2-.09-.39-.25-.53-.11-.1-.23-.2-.34-.3-.15-.14-.38-.22-.6-.22s-.46.08-.6.22c-.15.14-.26.33-.25.53.01.2.09.39.25.53h0Z"/>
      <path class="cls-2" d="M887.8,31.75h.34c.22,0,.45-.08.6-.22.15-.13.26-.34.25-.53,0-.19-.08-.4-.25-.53-.17-.14-.37-.22-.6-.22h-.34c-.22,0-.45.08-.6.22-.15.13-.26.34-.25.53,0,.19.08.4.25.53.17.14.37.22.6.22h0Z"/>
      <path class="cls-2" d="M862.94,31.23c.11.1.23.2.34.3.15.14.38.22.6.22s.46-.08.6-.22c.15-.14.26-.33.25-.53-.01-.2-.09-.39-.25-.53-.11-.1-.23-.2-.34-.3-.15-.14-.38-.22-.6-.22s-.46.08-.6.22c-.15.14-.26.33-.25.53.01.2.09.39.25.53h0Z"/>
      <path class="cls-2" d="M831.51,26.25c0,.97,1.71.97,1.71,0s-1.71-.97-1.71,0h0Z"/>
      <path class="cls-2" d="M815.89,13.22c.11-.1.23-.2.34-.3.15-.14.25-.34.25-.53s-.09-.41-.25-.53c-.16-.13-.38-.23-.6-.22-.23,0-.44.08-.6.22-.11.1-.23.2-.34.3-.15.14-.25.34-.25.53s.09.41.25.53c.16.13.38.23.6.22.23,0,.44-.08.6-.22h0Z"/>
      <path class="cls-2" d="M802.82,14.5c0,.58,1.02.58,1.02,0s-1.02-.58-1.02,0h0Z"/>
      <path class="cls-2" d="M963.87,27.55h-.34c-.22,0-.45.08-.6.22-.15.13-.26.35-.25.53,0,.19.08.4.25.53.17.14.37.22.6.22h.34c.22,0,.45-.08.6-.22.15-.13.26-.34.25-.53,0-.19-.08-.4-.25-.53-.17-.14-.37-.22-.6-.22h0Z"/>
      <path class="cls-2" d="M988.29,16.55c0-.97-1.71-.97-1.71,0s1.71.97,1.71,0h0Z"/>
      <path class="cls-2" d="M776.38,28.5c0-.97-1.71-.97-1.71,0s1.71.97,1.71,0h0Z"/>
      <path class="cls-2" d="M899.23,28.07c-.11-.1-.23-.2-.34-.3-.15-.14-.38-.22-.6-.22s-.46.08-.6.22c-.15.14-.26.33-.25.53.01.2.09.39.25.53l.34.3c.15.14.38.22.6.22s.46-.08.6-.22c.15-.14.26-.33.25-.53-.01-.2-.09-.39-.25-.53h0Z"/>
      <path class="cls-2" d="M932.02,19.19c.11-.1.23-.2.34-.3.15-.14.25-.34.25-.53s-.09-.41-.25-.53c-.16-.13-.38-.23-.6-.22-.23,0-.44.08-.6.22-.11.1-.23.2-.34.3-.15.14-.25.34-.25.53s.09.41.25.53c.16.13.38.23.6.22.23,0,.44-.08.6-.22h0Z"/>
      <path class="cls-2" d="M890.69,15.11c-.11-.1-.23-.2-.34-.3-.15-.14-.38-.22-.6-.22s-.46.08-.6.22c-.15.14-.26.33-.25.53.01.2.09.39.25.53.11.1.23.2.34.3.15.14.38.22.6.22s.46-.08.6-.22c.15-.14.26-.33.25-.53-.01-.2-.09-.39-.25-.53h0Z"/>
      <path class="cls-2" d="M950.38,29.2c0-.97-1.71-.97-1.71,0s1.71.97,1.71,0h0Z"/>
      <path class="cls-2" d="M988.73,28.07c-.11-.1-.23-.2-.34-.3-.15-.14-.38-.22-.6-.22s-.46.08-.6.22c-.15.14-.26.33-.25.53.01.2.09.39.25.53l.34.3c.15.14.38.22.6.22s.46-.08.6-.22c.15-.14.26-.33.25-.53-.01-.2-.09-.39-.25-.53h0Z"/>
      <path class="cls-2" d="M852,32.22c0-.58-1.02-.58-1.02,0s1.02.58,1.02,0h0Z"/>
      <path class="cls-2" d="M895.04,15.64c0-.58-1.02-.58-1.02,0s1.02.58,1.02,0h0Z"/>
      <path class="cls-2" d="M917.93,15.34c0-.58-1.02-.58-1.02,0s1.02.58,1.02,0h0Z"/>
      <path class="cls-2" d="M990.31,34.06c.11-.1.23-.2.34-.3.15-.14.25-.34.25-.53s-.09-.41-.25-.53c-.16-.13-.38-.23-.6-.22-.23,0-.44.08-.6.22-.11.1-.23.2-.34.3-.15.14-.25.34-.25.53s.09.41.25.53c.16.13.38.23.6.22.23,0,.44-.08.6-.22h0Z"/>
      <path class="cls-2" d="M996.97,17.16h.34c.22,0,.45-.08.6-.22.15-.13.26-.34.25-.53,0-.19-.08-.4-.25-.53-.17-.14-.37-.22-.6-.22h-.34c-.22,0-.45.08-.6.22s-.26.34-.25.53c0,.19.08.4.25.53.17.14.37.22.6.22h0Z"/>
      <path class="cls-2" d="M972.54,28.16c0,.97,1.71.97,1.71,0s-1.71-.97-1.71,0h0Z"/>
      <path class="cls-2" d="M972.11,16.64c.11.1.23.2.34.3.15.14.38.22.6.22s.46-.08.6-.22c.15-.14.26-.33.25-.53-.01-.2-.09-.39-.25-.53-.11-.1-.23-.2-.34-.3-.15-.14-.38-.22-.6-.22s-.46.08-.6.22c-.15.14-.26.33-.25.53.01.2.09.39.25.53h0Z"/>
      <path class="cls-2" d="M1008.4,13.48c-.11-.1-.23-.2-.34-.3-.15-.14-.38-.22-.6-.22s-.46.08-.6.22c-.15.14-.26.33-.25.53.01.2.09.39.25.53.11.1.23.2.34.3.15.14.38.22.6.22s.46-.08.6-.22c.15-.14.26-.33.25-.53-.01-.2-.09-.39-.25-.53h0Z"/>
      <path class="cls-2" d="M1041.19,4.6c.11-.1.23-.2.34-.3.15-.14.25-.34.25-.53s-.09-.41-.25-.53c-.16-.13-.38-.23-.6-.22-.23,0-.44.08-.6.22-.11.1-.23.2-.34.3-.15.14-.25.34-.25.53s.09.41.25.53c.16.13.38.23.6.22.23,0,.44-.08.6-.22h0Z"/>
      <path class="cls-2" d="M999.86.52c-.11-.1-.23-.2-.34-.3-.15-.14-.38-.22-.6-.22s-.46.08-.6.22c-.15.14-.26.33-.25.53.01.2.09.39.25.53.11.1.23.2.34.3.15.14.38.22.6.22s.46-.08.6-.22c.15-.14.26-.33.25-.53-.01-.2-.09-.39-.25-.53h0Z"/>
      <path class="cls-2" d="M1037.35,39.93v-.6c0-.24-.24-.46-.51-.45-.28.01-.51.2-.51.45v.6c0,.24.24.46.51.45.28-.01.51-.2.51-.45h0Z"/>
      <path class="cls-2" d="M961.17,17.63c0-.58-1.02-.58-1.02,0s1.02.58,1.02,0h0Z"/>
      <path class="cls-2" d="M1004.21,1.05c0-.58-1.02-.58-1.02,0s1.02.58,1.02,0h0Z"/>
      <path class="cls-2" d="M1027.1.75c0-.58-1.02-.58-1.02,0s1.02.58,1.02,0h0Z"/>
    </g>
    <g>
      <path class="cls-2" d="M491.89,26.18c.11-.1.23-.2.34-.3.15-.14.25-.34.25-.53s-.09-.41-.25-.53c-.16-.13-.38-.23-.6-.22-.23,0-.44.08-.6.22-.11.1-.23.2-.34.3-.15.14-.25.34-.25.53s.09.41.25.53c.16.13.38.23.6.22.23,0,.44-.08.6-.22h0Z"/>
      <path class="cls-2" d="M498.54,9.29h.34c.22,0,.45-.08.6-.22.15-.13.26-.35.25-.53,0-.19-.08-.4-.25-.53-.17-.14-.37-.22-.6-.22h-.34c-.22,0-.45.08-.6.22-.15.13-.26.35-.25.53,0,.19.08.4.25.53.17.14.37.22.6.22h0Z"/>
      <path class="cls-2" d="M474.12,20.29c0,.97,1.71.97,1.71,0s-1.71-.97-1.71,0h0Z"/>
      <path class="cls-2" d="M473.69,8.77c.11.1.23.2.34.3.15.14.38.22.6.22s.46-.08.6-.22c.15-.14.26-.33.25-.53-.01-.2-.09-.39-.25-.53-.11-.1-.23-.2-.34-.3-.15-.14-.38-.22-.6-.22s-.46.08-.6.22c-.15.14-.26.33-.25.53.01.2.09.39.25.53h0Z"/>
      <path class="cls-2" d="M600.9,31.75h.34c.22,0,.45-.08.6-.22.15-.13.26-.34.25-.53,0-.19-.08-.4-.25-.53-.17-.14-.37-.22-.6-.22h-.34c-.22,0-.45.08-.6.22-.15.13-.26.34-.25.53,0,.19.08.4.25.53.17.14.37.22.6.22h0Z"/>
      <path class="cls-2" d="M576.04,31.23c.11.1.23.2.34.3.15.14.38.22.6.22s.46-.08.6-.22c.15-.14.26-.33.25-.53-.01-.2-.09-.39-.25-.53-.11-.1-.23-.2-.34-.3-.15-.14-.38-.22-.6-.22s-.46.08-.6.22c-.15.14-.26.33-.25.53.01.2.09.39.25.53h0Z"/>
      <path class="cls-2" d="M544.61,26.25c0,.97,1.71.97,1.71,0s-1.71-.97-1.71,0h0Z"/>
      <path class="cls-2" d="M528.99,13.22c.11-.1.23-.2.34-.3.15-.14.25-.34.25-.53s-.09-.41-.25-.53c-.16-.13-.38-.23-.6-.22-.23,0-.44.08-.6.22-.11.1-.23.2-.34.3-.15.14-.25.34-.25.53s.09.41.25.53c.16.13.38.23.6.22.23,0,.44-.08.6-.22h0Z"/>
      <path class="cls-2" d="M515.92,14.5c0,.58,1.02.58,1.02,0s-1.02-.58-1.02,0h0Z"/>
      <path class="cls-2" d="M676.98,27.55h-.34c-.22,0-.45.08-.6.22-.15.13-.26.35-.25.53,0,.19.08.4.25.53.17.14.37.22.6.22h.34c.22,0,.45-.08.6-.22.15-.13.26-.34.25-.53,0-.19-.08-.4-.25-.53-.17-.14-.37-.22-.6-.22h0Z"/>
      <path class="cls-2" d="M701.4,16.55c0-.97-1.71-.97-1.71,0s1.71.97,1.71,0h0Z"/>
      <path class="cls-2" d="M489.48,28.5c0-.97-1.71-.97-1.71,0s1.71.97,1.71,0h0Z"/>
      <path class="cls-2" d="M612.34,28.07c-.11-.1-.23-.2-.34-.3-.15-.14-.38-.22-.6-.22s-.46.08-.6.22c-.15.14-.26.33-.25.53.01.2.09.39.25.53.11.1.23.2.34.3.15.14.38.22.6.22s.46-.08.6-.22c.15-.14.26-.33.25-.53-.01-.2-.09-.39-.25-.53h0Z"/>
      <path class="cls-2" d="M645.13,19.19c.11-.1.23-.2.34-.3.15-.14.25-.34.25-.53s-.09-.41-.25-.53c-.16-.13-.38-.23-.6-.22-.23,0-.44.08-.6.22-.11.1-.23.2-.34.3-.15.14-.25.34-.25.53s.09.41.25.53c.16.13.38.23.6.22.23,0,.44-.08.6-.22h0Z"/>
      <path class="cls-2" d="M603.8,15.11l-.34-.3c-.15-.14-.38-.22-.6-.22s-.46.08-.6.22c-.15.14-.26.33-.25.53.01.2.09.39.25.53.11.1.23.2.34.3.15.14.38.22.6.22s.46-.08.6-.22c.15-.14.26-.33.25-.53-.01-.2-.09-.39-.25-.53h0Z"/>
      <path class="cls-2" d="M663.48,29.2c0-.97-1.71-.97-1.71,0s1.71.97,1.71,0h0Z"/>
      <path class="cls-2" d="M701.83,28.07c-.11-.1-.23-.2-.34-.3-.15-.14-.38-.22-.6-.22s-.46.08-.6.22c-.15.14-.26.33-.25.53.01.2.09.39.25.53.11.1.23.2.34.3.15.14.38.22.6.22s.46-.08.6-.22c.15-.14.26-.33.25-.53-.01-.2-.09-.39-.25-.53h0Z"/>
      <path class="cls-2" d="M565.11,32.22c0-.58-1.02-.58-1.02,0s1.02.58,1.02,0h0Z"/>
      <path class="cls-2" d="M608.15,15.64c0-.58-1.02-.58-1.02,0s1.02.58,1.02,0h0Z"/>
      <path class="cls-2" d="M631.03,15.34c0-.58-1.02-.58-1.02,0s1.02.58,1.02,0h0Z"/>
      <path class="cls-2" d="M703.42,34.06c.11-.1.23-.2.34-.3.15-.14.25-.34.25-.53s-.09-.41-.25-.53c-.16-.13-.38-.23-.6-.22-.23,0-.44.08-.6.22-.11.1-.23.2-.34.3-.15.14-.25.34-.25.53s.09.41.25.53c.16.13.38.23.6.22.23,0,.44-.08.6-.22h0Z"/>
      <path class="cls-2" d="M710.07,17.16h.34c.22,0,.45-.08.6-.22.15-.13.26-.34.25-.53,0-.19-.08-.4-.25-.53-.17-.14-.37-.22-.6-.22h-.34c-.22,0-.45.08-.6.22-.15.13-.26.34-.25.53,0,.19.08.4.25.53.17.14.37.22.6.22h0Z"/>
      <path class="cls-2" d="M685.65,28.16c0,.97,1.71.97,1.71,0s-1.71-.97-1.71,0h0Z"/>
      <path class="cls-2" d="M685.21,16.64c.11.1.23.2.34.3.15.14.38.22.6.22s.46-.08.6-.22c.15-.14.26-.33.25-.53-.01-.2-.09-.39-.25-.53-.11-.1-.23-.2-.34-.3-.15-.14-.38-.22-.6-.22s-.46.08-.6.22c-.15.14-.26.33-.25.53.01.2.09.39.25.53h0Z"/>
      <path class="cls-2" d="M721.51,13.48c-.11-.1-.23-.2-.34-.3-.15-.14-.38-.22-.6-.22s-.46.08-.6.22c-.15.14-.26.33-.25.53.01.2.09.39.25.53l.34.3c.15.14.38.22.6.22s.46-.08.6-.22c.15-.14.26-.33.25-.53-.01-.2-.09-.39-.25-.53h0Z"/>
      <path class="cls-2" d="M754.3,4.6c.11-.1.23-.2.34-.3.15-.14.25-.34.25-.53s-.09-.41-.25-.53c-.16-.13-.38-.23-.6-.22-.23,0-.44.08-.6.22-.11.1-.23.2-.34.3-.15.14-.25.34-.25.53s.09.41.25.53c.16.13.38.23.6.22.23,0,.44-.08.6-.22h0Z"/>
      <path class="cls-2" d="M712.97.52c-.11-.1-.23-.2-.34-.3-.15-.14-.38-.22-.6-.22s-.46.08-.6.22c-.15.14-.26.33-.25.53.01.2.09.39.25.53.11.1.23.2.34.3.15.14.38.22.6.22s.46-.08.6-.22c.15-.14.26-.33.25-.53-.01-.2-.09-.39-.25-.53h0Z"/>
      <path class="cls-2" d="M750.45,39.93v-.6c0-.24-.24-.46-.51-.45-.28.01-.51.2-.51.45v.6c0,.24.24.46.51.45.28-.01.51-.2.51-.45h0Z"/>
      <path class="cls-2" d="M674.28,17.63c0-.58-1.02-.58-1.02,0s1.02.58,1.02,0h0Z"/>
      <path class="cls-2" d="M717.32,1.05c0-.58-1.02-.58-1.02,0s1.02.58,1.02,0h0Z"/>
      <path class="cls-2" d="M740.2.75c0-.58-1.02-.58-1.02,0s1.02.58,1.02,0h0Z"/>
    </g>
    <g>
      <path class="cls-2" d="M205,26.18c.11-.1.23-.2.34-.3.15-.14.25-.34.25-.53s-.09-.41-.25-.53c-.16-.13-.38-.23-.6-.22-.23,0-.44.08-.6.22-.11.1-.23.2-.34.3-.15.14-.25.34-.25.53s.09.41.25.53c.16.13.38.23.6.22.23,0,.44-.08.6-.22h0Z"/>
      <path class="cls-2" d="M211.65,9.29h.34c.22,0,.45-.08.6-.22.15-.13.26-.35.25-.53,0-.19-.08-.4-.25-.53-.17-.14-.37-.22-.6-.22h-.34c-.22,0-.45.08-.6.22-.15.13-.26.35-.25.53,0,.19.08.4.25.53.17.14.37.22.6.22h0Z"/>
      <path class="cls-2" d="M187.23,20.29c0,.97,1.71.97,1.71,0s-1.71-.97-1.71,0h0Z"/>
      <path class="cls-2" d="M186.79,8.77c.11.1.23.2.34.3.15.14.38.22.6.22s.46-.08.6-.22c.15-.14.26-.33.25-.53-.01-.2-.09-.39-.25-.53l-.34-.3c-.15-.14-.38-.22-.6-.22s-.46.08-.6.22c-.15.14-.26.33-.25.53.01.2.09.39.25.53h0Z"/>
      <path class="cls-2" d="M314.01,31.75h.34c.22,0,.45-.08.6-.22s.26-.34.25-.53c0-.19-.08-.4-.25-.53-.17-.14-.37-.22-.6-.22h-.34c-.22,0-.45.08-.6.22-.15.13-.26.34-.25.53,0,.19.08.4.25.53.17.14.37.22.6.22h0Z"/>
      <path class="cls-2" d="M289.15,31.23c.11.1.23.2.34.3.15.14.38.22.6.22s.46-.08.6-.22c.15-.14.26-.33.25-.53-.01-.2-.09-.39-.25-.53-.11-.1-.23-.2-.34-.3-.15-.14-.38-.22-.6-.22s-.46.08-.6.22c-.15.14-.26.33-.25.53.01.2.09.39.25.53h0Z"/>
      <path class="cls-2" d="M257.72,26.25c0,.97,1.71.97,1.71,0s-1.71-.97-1.71,0h0Z"/>
      <path class="cls-2" d="M242.1,13.22c.11-.1.23-.2.34-.3.15-.14.25-.34.25-.53s-.09-.41-.25-.53c-.16-.13-.38-.23-.6-.22-.23,0-.44.08-.6.22-.11.1-.23.2-.34.3-.15.14-.25.34-.25.53s.09.41.25.53c.16.13.38.23.6.22.23,0,.44-.08.6-.22h0Z"/>
      <path class="cls-2" d="M229.02,14.5c0,.58,1.02.58,1.02,0s-1.02-.58-1.02,0h0Z"/>
      <path class="cls-2" d="M390.08,27.55h-.34c-.22,0-.45.08-.6.22-.15.13-.26.35-.25.53,0,.19.08.4.25.53.17.14.37.22.6.22h.34c.22,0,.45-.08.6-.22s.26-.34.25-.53c0-.19-.08-.4-.25-.53-.17-.14-.37-.22-.6-.22h0Z"/>
      <path class="cls-2" d="M414.5,16.55c0-.97-1.71-.97-1.71,0s1.71.97,1.71,0h0Z"/>
      <path class="cls-2" d="M202.59,28.5c0-.97-1.71-.97-1.71,0s1.71.97,1.71,0h0Z"/>
      <path class="cls-2" d="M325.44,28.07c-.11-.1-.23-.2-.34-.3-.15-.14-.38-.22-.6-.22s-.46.08-.6.22c-.15.14-.26.33-.25.53.01.2.09.39.25.53.11.1.23.2.34.3.15.14.38.22.6.22s.46-.08.6-.22c.15-.14.26-.33.25-.53-.01-.2-.09-.39-.25-.53h0Z"/>
      <path class="cls-2" d="M358.23,19.19l.34-.3c.15-.14.25-.34.25-.53s-.09-.41-.25-.53c-.16-.13-.38-.23-.6-.22-.23,0-.44.08-.6.22-.11.1-.23.2-.34.3-.15.14-.25.34-.25.53s.09.41.25.53c.16.13.38.23.6.22.23,0,.44-.08.6-.22h0Z"/>
      <path class="cls-2" d="M316.9,15.11c-.11-.1-.23-.2-.34-.3-.15-.14-.38-.22-.6-.22s-.46.08-.6.22c-.15.14-.26.33-.25.53.01.2.09.39.25.53.11.1.23.2.34.3.15.14.38.22.6.22s.46-.08.6-.22c.15-.14.26-.33.25-.53-.01-.2-.09-.39-.25-.53h0Z"/>
      <path class="cls-2" d="M376.59,29.2c0-.97-1.71-.97-1.71,0s1.71.97,1.71,0h0Z"/>
      <path class="cls-2" d="M414.94,28.07c-.11-.1-.23-.2-.34-.3-.15-.14-.38-.22-.6-.22s-.46.08-.6.22c-.15.14-.26.33-.25.53.01.2.09.39.25.53.11.1.23.2.34.3.15.14.38.22.6.22s.46-.08.6-.22c.15-.14.26-.33.25-.53-.01-.2-.09-.39-.25-.53h0Z"/>
      <path class="cls-2" d="M278.21,32.22c0-.58-1.02-.58-1.02,0s1.02.58,1.02,0h0Z"/>
      <path class="cls-2" d="M321.25,15.64c0-.58-1.02-.58-1.02,0s1.02.58,1.02,0h0Z"/>
      <path class="cls-2" d="M344.14,15.34c0-.58-1.02-.58-1.02,0s1.02.58,1.02,0h0Z"/>
      <path class="cls-2" d="M416.52,34.06c.11-.1.23-.2.34-.3.15-.14.25-.34.25-.53s-.09-.41-.25-.53c-.16-.13-.38-.23-.6-.22-.23,0-.44.08-.6.22l-.34.3c-.15.14-.25.34-.25.53s.09.41.25.53c.16.13.38.23.6.22.23,0,.44-.08.6-.22h0Z"/>
      <path class="cls-2" d="M423.17,17.16h.34c.22,0,.45-.08.6-.22.15-.13.26-.34.25-.53,0-.19-.08-.4-.25-.53-.17-.14-.37-.22-.6-.22h-.34c-.22,0-.45.08-.6.22s-.26.34-.25.53c0,.19.08.4.25.53.17.14.37.22.6.22h0Z"/>
      <path class="cls-2" d="M398.75,28.16c0,.97,1.71.97,1.71,0s-1.71-.97-1.71,0h0Z"/>
      <path class="cls-2" d="M398.32,16.64c.11.1.23.2.34.3.15.14.38.22.6.22s.46-.08.6-.22c.15-.14.26-.33.25-.53-.01-.2-.09-.39-.25-.53-.11-.1-.23-.2-.34-.3-.15-.14-.38-.22-.6-.22s-.46.08-.6.22c-.15.14-.26.33-.25.53.01.2.09.39.25.53h0Z"/>
      <path class="cls-2" d="M434.61,13.48c-.11-.1-.23-.2-.34-.3-.15-.14-.38-.22-.6-.22s-.46.08-.6.22c-.15.14-.26.33-.25.53.01.2.09.39.25.53.11.1.23.2.34.3.15.14.38.22.6.22s.46-.08.6-.22c.15-.14.26-.33.25-.53-.01-.2-.09-.39-.25-.53h0Z"/>
      <path class="cls-2" d="M467.4,4.6c.11-.1.23-.2.34-.3.15-.14.25-.34.25-.53s-.09-.41-.25-.53c-.16-.13-.38-.23-.6-.22-.23,0-.44.08-.6.22-.11.1-.23.2-.34.3-.15.14-.25.34-.25.53s.09.41.25.53c.16.13.38.23.6.22.23,0,.44-.08.6-.22h0Z"/>
      <path class="cls-2" d="M426.07.52c-.11-.1-.23-.2-.34-.3-.15-.14-.38-.22-.6-.22s-.46.08-.6.22c-.15.14-.26.33-.25.53.01.2.09.39.25.53.11.1.23.2.34.3.15.14.38.22.6.22s.46-.08.6-.22c.15-.14.26-.33.25-.53-.01-.2-.09-.39-.25-.53h0Z"/>
      <path class="cls-2" d="M463.55,39.93v-.6c0-.24-.24-.46-.51-.45-.28.01-.51.2-.51.45v.6c0,.24.24.46.51.45.28-.01.51-.2.51-.45h0Z"/>
      <path class="cls-2" d="M387.38,17.63c0-.58-1.02-.58-1.02,0s1.02.58,1.02,0h0Z"/>
      <path class="cls-2" d="M430.42,1.05c0-.58-1.02-.58-1.02,0s1.02.58,1.02,0h0Z"/>
      <path class="cls-2" d="M453.31.75c0-.58-1.02-.58-1.02,0s1.02.58,1.02,0h0Z"/>
    </g>
    <g>
      <path class="cls-2" d="M28.33,26.18c.11-.1.23-.2.34-.3.15-.14.25-.34.25-.53s-.09-.41-.25-.53c-.16-.13-.38-.23-.6-.22-.23,0-.44.08-.6.22-.11.1-.23.2-.34.3-.15.14-.25.34-.25.53s.09.41.25.53c.16.13.38.23.6.22.23,0,.44-.08.6-.22h0Z"/>
      <path class="cls-2" d="M34.98,9.29h.34c.22,0,.45-.08.6-.22.15-.13.26-.35.25-.53,0-.19-.08-.4-.25-.53-.17-.14-.37-.22-.6-.22h-.34c-.22,0-.45.08-.6.22-.15.13-.26.35-.25.53,0,.19.08.4.25.53.17.14.37.22.6.22h0Z"/>
      <path class="cls-2" d="M10.56,20.29c0,.97,1.71.97,1.71,0s-1.71-.97-1.71,0h0Z"/>
      <path class="cls-2" d="M10.13,8.77c.11.1.23.2.34.3.15.14.38.22.6.22s.46-.08.6-.22c.15-.14.26-.33.25-.53-.01-.2-.09-.39-.25-.53l-.34-.3c-.15-.14-.38-.22-.6-.22s-.46.08-.6.22c-.15.14-.26.33-.25.53.01.2.09.39.25.53h0Z"/>
      <path class="cls-2" d="M137.34,31.75h.34c.22,0,.45-.08.6-.22s.26-.34.25-.53c0-.19-.08-.4-.25-.53-.17-.14-.37-.22-.6-.22h-.34c-.22,0-.45.08-.6.22-.15.13-.26.34-.25.53,0,.19.08.4.25.53.17.14.37.22.6.22h0Z"/>
      <path class="cls-2" d="M112.48,31.23c.11.1.23.2.34.3.15.14.38.22.6.22s.46-.08.6-.22c.15-.14.26-.33.25-.53-.01-.2-.09-.39-.25-.53-.11-.1-.23-.2-.34-.3-.15-.14-.38-.22-.6-.22s-.46.08-.6.22c-.15.14-.26.33-.25.53.01.2.09.39.25.53h0Z"/>
      <path class="cls-2" d="M81.05,26.25c0,.97,1.71.97,1.71,0s-1.71-.97-1.71,0h0Z"/>
      <path class="cls-2" d="M65.43,13.22c.11-.1.23-.2.34-.3.15-.14.25-.34.25-.53s-.09-.41-.25-.53c-.16-.13-.38-.23-.6-.22-.23,0-.44.08-.6.22-.11.1-.23.2-.34.3-.15.14-.25.34-.25.53s.09.41.25.53c.16.13.38.23.6.22.23,0,.44-.08.6-.22h0Z"/>
      <path class="cls-2" d="M52.36,14.5c0,.58,1.02.58,1.02,0s-1.02-.58-1.02,0h0Z"/>
      <path class="cls-2" d="M213.41,27.55h-.34c-.22,0-.45.08-.6.22-.15.13-.26.35-.25.53,0,.19.08.4.25.53.17.14.37.22.6.22h.34c.22,0,.45-.08.6-.22.15-.13.26-.34.25-.53,0-.19-.08-.4-.25-.53-.17-.14-.37-.22-.6-.22h0Z"/>
      <path class="cls-2" d="M237.84,16.55c0-.97-1.71-.97-1.71,0s1.71.97,1.71,0h0Z"/>
      <path class="cls-2" d="M25.92,28.5c0-.97-1.71-.97-1.71,0s1.71.97,1.71,0h0Z"/>
      <path class="cls-2" d="M148.78,28.07c-.11-.1-.23-.2-.34-.3-.15-.14-.38-.22-.6-.22s-.46.08-.6.22c-.15.14-.26.33-.25.53.01.2.09.39.25.53.11.1.23.2.34.3.15.14.38.22.6.22s.46-.08.6-.22c.15-.14.26-.33.25-.53-.01-.2-.09-.39-.25-.53h0Z"/>
      <path class="cls-2" d="M181.57,19.19c.11-.1.23-.2.34-.3.15-.14.25-.34.25-.53s-.09-.41-.25-.53c-.16-.13-.38-.23-.6-.22-.23,0-.44.08-.6.22-.11.1-.23.2-.34.3-.15.14-.25.34-.25.53s.09.41.25.53c.16.13.38.23.6.22.23,0,.44-.08.6-.22h0Z"/>
      <path class="cls-2" d="M140.24,15.11c-.11-.1-.23-.2-.34-.3-.15-.14-.38-.22-.6-.22s-.46.08-.6.22c-.15.14-.26.33-.25.53.01.2.09.39.25.53.11.1.23.2.34.3.15.14.38.22.6.22s.46-.08.6-.22c.15-.14.26-.33.25-.53-.01-.2-.09-.39-.25-.53h0Z"/>
      <path class="cls-2" d="M199.92,29.2c0-.97-1.71-.97-1.71,0s1.71.97,1.71,0h0Z"/>
      <path class="cls-2" d="M238.27,28.07c-.11-.1-.23-.2-.34-.3-.15-.14-.38-.22-.6-.22s-.46.08-.6.22c-.15.14-.26.33-.25.53.01.2.09.39.25.53.11.1.23.2.34.3.15.14.38.22.6.22s.46-.08.6-.22c.15-.14.26-.33.25-.53-.01-.2-.09-.39-.25-.53h0Z"/>
      <path class="cls-2" d="M101.55,32.22c0-.58-1.02-.58-1.02,0s1.02.58,1.02,0h0Z"/>
      <path class="cls-2" d="M144.59,15.64c0-.58-1.02-.58-1.02,0s1.02.58,1.02,0h0Z"/>
      <path class="cls-2" d="M167.47,15.34c0-.58-1.02-.58-1.02,0s1.02.58,1.02,0h0Z"/>
      <path class="cls-2" d="M239.86,34.06l.34-.3c.15-.14.25-.34.25-.53s-.09-.41-.25-.53c-.16-.13-.38-.23-.6-.22-.23,0-.44.08-.6.22-.11.1-.23.2-.34.3-.15.14-.25.34-.25.53s.09.41.25.53c.16.13.38.23.6.22.23,0,.44-.08.6-.22h0Z"/>
      <path class="cls-2" d="M246.51,17.16h.34c.22,0,.45-.08.6-.22.15-.13.26-.34.25-.53,0-.19-.08-.4-.25-.53-.17-.14-.37-.22-.6-.22h-.34c-.22,0-.45.08-.6.22-.15.13-.26.34-.25.53,0,.19.08.4.25.53.17.14.37.22.6.22h0Z"/>
      <path class="cls-2" d="M222.09,28.16c0,.97,1.71.97,1.71,0s-1.71-.97-1.71,0h0Z"/>
      <path class="cls-2" d="M221.65,16.64c.11.1.23.2.34.3.15.14.38.22.6.22s.46-.08.6-.22c.15-.14.26-.33.25-.53-.01-.2-.09-.39-.25-.53-.11-.1-.23-.2-.34-.3-.15-.14-.38-.22-.6-.22s-.46.08-.6.22c-.15.14-.26.33-.25.53.01.2.09.39.25.53h0Z"/>
      <path class="cls-2" d="M257.95,13.48c-.11-.1-.23-.2-.34-.3-.15-.14-.38-.22-.6-.22s-.46.08-.6.22c-.15.14-.26.33-.25.53.01.2.09.39.25.53l.34.3c.15.14.38.22.6.22s.46-.08.6-.22c.15-.14.26-.33.25-.53-.01-.2-.09-.39-.25-.53h0Z"/>
      <path class="cls-2" d="M290.74,4.6c.11-.1.23-.2.34-.3.15-.14.25-.34.25-.53s-.09-.41-.25-.53c-.16-.13-.38-.23-.6-.22-.23,0-.44.08-.6.22-.11.1-.23.2-.34.3-.15.14-.25.34-.25.53s.09.41.25.53c.16.13.38.23.6.22.23,0,.44-.08.6-.22h0Z"/>
      <path class="cls-2" d="M249.41.52c-.11-.1-.23-.2-.34-.3-.15-.14-.38-.22-.6-.22s-.46.08-.6.22c-.15.14-.26.33-.25.53.01.2.09.39.25.53.11.1.23.2.34.3.15.14.38.22.6.22s.46-.08.6-.22c.15-.14.26-.33.25-.53-.01-.2-.09-.39-.25-.53h0Z"/>
      <path class="cls-2" d="M286.89,39.93v-.6c0-.24-.24-.46-.51-.45-.28.01-.51.2-.51.45v.6c0,.24.24.46.51.45.28-.01.51-.2.51-.45h0Z"/>
      <path class="cls-2" d="M210.72,17.63c0-.58-1.02-.58-1.02,0s1.02.58,1.02,0h0Z"/>
      <path class="cls-2" d="M253.76,1.05c0-.58-1.02-.58-1.02,0s1.02.58,1.02,0h0Z"/>
      <path class="cls-2" d="M276.64.75c0-.58-1.02-.58-1.02,0s1.02.58,1.02,0h0Z"/>
    </g>
  </g>
</svg>