<?xml version="1.0" encoding="UTF-8"?>
<svg id="Layer_1" data-name="Layer 1" xmlns="http://www.w3.org/2000/svg" xmlns:xlink="http://www.w3.org/1999/xlink" viewBox="0 0 1927.21 1078.76">
  <defs>
    <style>
      .cls-1 {
        fill: url(#_Áåçûìÿííûé_ãðàäèåíò_18);
      }

      .cls-1, .cls-2 {
        stroke-width: 0px;
      }

      .cls-2 {
        fill: #fff;
      }

      .cls-3 {
        opacity: .53;
      }
    </style>
    <radialGradient id="_Áåçûìÿííûé_ãðàäèåíò_18" data-name="Áåçûìÿííûé ãðàäèåíò 18" cx="339.68" cy="1148.91" fx="339.68" fy="1148.91" r="1631.74" gradientTransform="translate(592.54 -1276.63) scale(.99 2.06)" gradientUnits="userSpaceOnUse">
      <stop offset="0" stop-color="#00819d"/>
      <stop offset=".26" stop-color="#004e71"/>
      <stop offset=".53" stop-color="#001e49"/>
      <stop offset=".67" stop-color="#00122f"/>
      <stop offset=".85" stop-color="#000412"/>
      <stop offset=".96" stop-color="#000008"/>
    </radialGradient>
  </defs>
  <g id="river">
    <rect id="river-2" data-name="river" class="cls-1" x="-1.05" y="924.76" width="1927.21" height="154"/>
    <g id="river-3" data-name="river" class="cls-3">
      <g>
        <path class="cls-2" d="m1518.82,1023.82c.16-.37.32-.75.48-1.12.22-.51.35-1.26.35-1.98s-.13-1.51-.35-1.98c-.23-.49-.53-.85-.85-.82-.32.03-.62.28-.85.82-.16.37-.32.75-.48,1.12-.22.51-.35,1.26-.35,1.98s.13,1.51.35,1.98c.23.49.53.85.85.82.32-.03.62-.28.85-.82h0Z"/>
        <path class="cls-2" d="m1528.22,961.09h.48c.31,0,.63-.31.85-.82.21-.49.37-1.28.35-1.98-.01-.72-.12-1.47-.35-1.98-.24-.5-.53-.82-.85-.82h-.48c-.31,0-.63.31-.85.82-.21.49-.37,1.28-.35,1.98.01.72.12,1.47.35,1.98.24.5.53.82.85.82h0Z"/>
        <path class="cls-2" d="m1493.71,1001.93c0,3.6,2.41,3.61,2.41,0s-2.41-3.61-2.41,0h0Z"/>
        <path class="cls-2" d="m1493.1,959.15c.16.37.32.75.48,1.12.22.51.54.82.85.82s.65-.3.85-.82c.21-.53.37-1.23.35-1.98-.01-.74-.12-1.44-.35-1.98-.16-.37-.32-.75-.48-1.12-.22-.51-.54-.82-.85-.82s-.65.3-.85.82c-.21.53-.37,1.23-.35,1.98.01.74.12,1.44.35,1.98h0Z"/>
        <path class="cls-2" d="m1672.84,1044.49h.48c.31,0,.63-.31.85-.82.21-.49.37-1.28.35-1.98-.01-.72-.12-1.47-.35-1.98-.24-.5-.53-.82-.85-.82h-.48c-.31,0-.63.31-.85.82-.21.49-.37,1.28-.35,1.98.01.72.12,1.47.35,1.98.24.5.53.82.85.82h0Z"/>
        <path class="cls-2" d="m1637.72,1042.56c.16.37.32.75.48,1.12.22.51.54.82.85.82s.65-.3.85-.82c.21-.53.37-1.23.35-1.98-.01-.74-.12-1.44-.35-1.98-.16-.37-.32-.75-.48-1.12-.22-.51-.54-.82-.85-.82s-.65.3-.85.82c-.21.53-.37,1.23-.35,1.98.01.74.12,1.44.35,1.98h0Z"/>
        <path class="cls-2" d="m1593.31,1024.06c0,3.6,2.41,3.61,2.41,0s-2.41-3.61-2.41,0h0Z"/>
        <path class="cls-2" d="m1571.24,975.68c.16-.37.32-.75.48-1.12.22-.51.35-1.26.35-1.98s-.13-1.51-.35-1.98c-.23-.49-.53-.85-.85-.82-.32.03-.62.28-.85.82-.16.37-.32.75-.48,1.12-.22.51-.35,1.26-.35,1.98s.13,1.51.35,1.98c.23.49.53.85.85.82.32-.03.62-.28.85-.82h0Z"/>
        <path class="cls-2" d="m1552.77,980.42c0,2.16,1.45,2.16,1.45,0s-1.45-2.16-1.45,0h0Z"/>
        <path class="cls-2" d="m1780.33,1028.88h-.48c-.31,0-.63.31-.85.82-.21.49-.37,1.28-.35,1.98.01.72.12,1.47.35,1.98.24.5.53.82.85.82h.48c.31,0,.63-.31.85-.82s.37-1.28.35-1.98c-.01-.72-.12-1.47-.35-1.98-.24-.5-.53-.82-.85-.82h0Z"/>
        <path class="cls-2" d="m1814.83,988.04c0-3.6-2.41-3.61-2.41,0s2.41,3.61,2.41,0h0Z"/>
        <path class="cls-2" d="m1515.42,1032.42c0-3.6-2.41-3.61-2.41,0s2.41,3.61,2.41,0h0Z"/>
        <path class="cls-2" d="m1689,1030.82c-.16-.37-.32-.75-.48-1.12-.22-.51-.54-.82-.85-.82s-.65.3-.85.82c-.21.53-.37,1.23-.35,1.98.01.74.12,1.44.35,1.98.16.37.32.75.48,1.12.22.51.54.82.85.82s.65-.3.85-.82c.21-.53.37-1.23.35-1.98-.01-.74-.12-1.44-.35-1.98h0Z"/>
        <path class="cls-2" d="m1735.33,997.85c.16-.37.32-.75.48-1.12.22-.51.35-1.26.35-1.98s-.13-1.51-.35-1.98c-.23-.49-.53-.85-.85-.82-.32.03-.62.28-.85.82-.16.37-.32.75-.48,1.12-.22.51-.35,1.26-.35,1.98s.13,1.51.35,1.98c.23.49.53.85.85.82.32-.03.62-.28.85-.82h0Z"/>
        <path class="cls-2" d="m1676.93,982.7c-.16-.37-.32-.75-.48-1.12-.22-.51-.54-.82-.85-.82s-.65.3-.85.82c-.21.53-.37,1.23-.35,1.98.01.74.12,1.44.35,1.98.16.37.32.75.48,1.12.22.51.54.82.85.82s.65-.3.85-.82c.21-.53.37-1.23.35-1.98-.01-.74-.12-1.44-.35-1.98h0Z"/>
        <path class="cls-2" d="m1761.26,1035.03c0-3.6-2.41-3.61-2.41,0s2.41,3.61,2.41,0h0Z"/>
        <path class="cls-2" d="m1815.45,1030.82c-.16-.37-.32-.75-.48-1.12-.22-.51-.54-.82-.85-.82s-.65.3-.85.82c-.21.53-.37,1.23-.35,1.98.01.74.12,1.44.35,1.98.16.37.32.75.48,1.12.22.51.54.82.85.82s.65-.3.85-.82c.21-.53.37-1.23.35-1.98-.01-.74-.12-1.44-.35-1.98h0Z"/>
        <path class="cls-2" d="m1622.27,1046.22c0-2.16-1.45-2.16-1.45,0s1.45,2.16,1.45,0h0Z"/>
        <path class="cls-2" d="m1683.08,984.68c0-2.16-1.45-2.16-1.45,0s1.45,2.16,1.45,0h0Z"/>
        <path class="cls-2" d="m1715.41,983.56c0-2.16-1.45-2.16-1.45,0s1.45,2.16,1.45,0h0Z"/>
        <path class="cls-2" d="m1817.69,1053.06c.16-.37.32-.75.48-1.12.22-.51.35-1.26.35-1.98s-.13-1.51-.35-1.98c-.23-.49-.53-.85-.85-.82-.32.03-.62.28-.85.82-.16.37-.32.75-.48,1.12-.22.51-.35,1.26-.35,1.98s.13,1.51.35,1.98c.23.49.53.85.85.82.32-.03.62-.28.85-.82h0Z"/>
        <path class="cls-2" d="m1827.09,990.32h.48c.31,0,.63-.31.85-.82.21-.49.37-1.28.35-1.98-.01-.72-.12-1.47-.35-1.98-.24-.5-.53-.82-.85-.82h-.48c-.31,0-.63.31-.85.82s-.37,1.28-.35,1.98c.01.72.12,1.47.35,1.98.24.5.53.82.85.82h0Z"/>
        <path class="cls-2" d="m1792.58,1031.16c0,3.6,2.41,3.61,2.41,0s-2.41-3.61-2.41,0h0Z"/>
        <path class="cls-2" d="m1791.97,988.38c.16.37.32.75.48,1.12.22.51.54.82.85.82s.65-.3.85-.82c.21-.53.37-1.23.35-1.98-.01-.74-.12-1.44-.35-1.98-.16-.37-.32-.75-.48-1.12-.22-.51-.54-.82-.85-.82s-.65.3-.85.82c-.21.53-.37,1.23-.35,1.98.01.74.12,1.44.35,1.98h0Z"/>
        <path class="cls-2" d="m1843.25,976.64c-.16-.37-.32-.75-.48-1.12-.22-.51-.54-.82-.85-.82s-.65.3-.85.82c-.21.53-.37,1.23-.35,1.98.01.74.12,1.44.35,1.98l.48,1.12c.22.51.54.82.85.82s.65-.3.85-.82c.21-.53.37-1.23.35-1.98-.01-.74-.12-1.44-.35-1.98h0Z"/>
        <path class="cls-2" d="m1889.58,943.67c.16-.37.32-.75.48-1.12.22-.51.35-1.26.35-1.98s-.13-1.51-.35-1.98c-.23-.49-.53-.85-.85-.82-.32.03-.62.28-.85.82-.16.37-.32.75-.48,1.12-.22.51-.35,1.26-.35,1.98s.13,1.51.35,1.98c.23.49.53.85.85.82.32-.03.62-.28.85-.82h0Z"/>
        <path class="cls-2" d="m1831.18,928.53c-.16-.37-.32-.75-.48-1.12-.22-.51-.54-.82-.85-.82s-.65.3-.85.82c-.21.53-.37,1.23-.35,1.98.01.74.12,1.44.35,1.98.16.37.32.75.48,1.12.22.51.54.82.85.82s.65-.3.85-.82c.21-.53.37-1.23.35-1.98-.01-.74-.12-1.44-.35-1.98h0Z"/>
        <path class="cls-2" d="m1884.14,1074.85v-2.24c0-.88-.33-1.72-.72-1.68-.39.04-.72.74-.72,1.68v2.24c0,.88.33,1.72.72,1.68.39-.04.72-.74.72-1.68h0Z"/>
        <path class="cls-2" d="m1776.52,992.05c0-2.16-1.45-2.16-1.45,0s1.45,2.16,1.45,0h0Z"/>
        <path class="cls-2" d="m1837.33,930.51c0-2.16-1.45-2.16-1.45,0s1.45,2.16,1.45,0h0Z"/>
        <path class="cls-2" d="m1869.66,929.39c0-2.16-1.45-2.16-1.45,0s1.45,2.16,1.45,0h0Z"/>
      </g>
      <g>
        <path class="cls-2" d="m1113.46,1023.82c.16-.37.32-.75.48-1.12.22-.51.35-1.26.35-1.98s-.13-1.51-.35-1.98c-.23-.49-.53-.85-.85-.82-.32.03-.62.28-.85.82-.16.37-.32.75-.48,1.12-.22.51-.35,1.26-.35,1.98s.13,1.51.35,1.98c.23.49.53.85.85.82.32-.03.62-.28.85-.82h0Z"/>
        <path class="cls-2" d="m1122.86,961.09h.48c.31,0,.63-.31.85-.82.21-.49.37-1.28.35-1.98-.01-.72-.12-1.47-.35-1.98-.24-.5-.53-.82-.85-.82h-.48c-.31,0-.63.31-.85.82-.21.49-.37,1.28-.35,1.98.01.72.12,1.47.35,1.98.24.5.53.82.85.82h0Z"/>
        <path class="cls-2" d="m1088.35,1001.93c0,3.6,2.41,3.61,2.41,0s-2.41-3.61-2.41,0h0Z"/>
        <path class="cls-2" d="m1087.74,959.15c.16.37.32.75.48,1.12.22.51.54.82.85.82s.65-.3.85-.82c.21-.53.37-1.23.35-1.98-.01-.74-.12-1.44-.35-1.98-.16-.37-.32-.75-.48-1.12-.22-.51-.54-.82-.85-.82s-.65.3-.85.82c-.21.53-.37,1.23-.35,1.98.01.74.12,1.44.35,1.98h0Z"/>
        <path class="cls-2" d="m1267.48,1044.49h.48c.31,0,.63-.31.85-.82.21-.49.37-1.28.35-1.98-.01-.72-.12-1.47-.35-1.98-.24-.5-.53-.82-.85-.82h-.48c-.31,0-.63.31-.85.82-.21.49-.37,1.28-.35,1.98.01.72.12,1.47.35,1.98.24.5.53.82.85.82h0Z"/>
        <path class="cls-2" d="m1232.36,1042.56c.16.37.32.75.48,1.12.22.51.54.82.85.82s.65-.3.85-.82c.21-.53.37-1.23.35-1.98-.01-.74-.12-1.44-.35-1.98-.16-.37-.32-.75-.48-1.12-.22-.51-.54-.82-.85-.82s-.65.3-.85.82c-.21.53-.37,1.23-.35,1.98.01.74.12,1.44.35,1.98h0Z"/>
        <path class="cls-2" d="m1187.95,1024.06c0,3.6,2.41,3.61,2.41,0s-2.41-3.61-2.41,0h0Z"/>
        <path class="cls-2" d="m1165.88,975.68c.16-.37.32-.75.48-1.12.22-.51.35-1.26.35-1.98s-.13-1.51-.35-1.98c-.23-.49-.53-.85-.85-.82-.32.03-.62.28-.85.82-.16.37-.32.75-.48,1.12-.22.51-.35,1.26-.35,1.98s.13,1.51.35,1.98c.23.49.53.85.85.82.32-.03.62-.28.85-.82h0Z"/>
        <path class="cls-2" d="m1147.41,980.42c0,2.16,1.45,2.16,1.45,0s-1.45-2.16-1.45,0h0Z"/>
        <path class="cls-2" d="m1374.97,1028.88h-.48c-.31,0-.63.31-.85.82-.21.49-.37,1.28-.35,1.98.01.72.12,1.47.35,1.98.24.5.53.82.85.82h.48c.31,0,.63-.31.85-.82.21-.49.37-1.28.35-1.98-.01-.72-.12-1.47-.35-1.98-.24-.5-.53-.82-.85-.82h0Z"/>
        <path class="cls-2" d="m1409.48,988.04c0-3.6-2.41-3.61-2.41,0s2.41,3.61,2.41,0h0Z"/>
        <path class="cls-2" d="m1110.06,1032.42c0-3.6-2.41-3.61-2.41,0s2.41,3.61,2.41,0h0Z"/>
        <path class="cls-2" d="m1283.64,1030.82c-.16-.37-.32-.75-.48-1.12-.22-.51-.54-.82-.85-.82s-.65.3-.85.82c-.21.53-.37,1.23-.35,1.98.01.74.12,1.44.35,1.98l.48,1.12c.22.51.54.82.85.82s.65-.3.85-.82c.21-.53.37-1.23.35-1.98-.01-.74-.12-1.44-.35-1.98h0Z"/>
        <path class="cls-2" d="m1329.97,997.85c.16-.37.32-.75.48-1.12.22-.51.35-1.26.35-1.98s-.13-1.51-.35-1.98c-.23-.49-.53-.85-.85-.82-.32.03-.62.28-.85.82-.16.37-.32.75-.48,1.12-.22.51-.35,1.26-.35,1.98s.13,1.51.35,1.98c.23.49.53.85.85.82.32-.03.62-.28.85-.82h0Z"/>
        <path class="cls-2" d="m1271.57,982.7c-.16-.37-.32-.75-.48-1.12-.22-.51-.54-.82-.85-.82s-.65.3-.85.82c-.21.53-.37,1.23-.35,1.98.01.74.12,1.44.35,1.98.16.37.32.75.48,1.12.22.51.54.82.85.82s.65-.3.85-.82c.21-.53.37-1.23.35-1.98-.01-.74-.12-1.44-.35-1.98h0Z"/>
        <path class="cls-2" d="m1355.9,1035.03c0-3.6-2.41-3.61-2.41,0s2.41,3.61,2.41,0h0Z"/>
        <path class="cls-2" d="m1410.09,1030.82c-.16-.37-.32-.75-.48-1.12-.22-.51-.54-.82-.85-.82s-.65.3-.85.82c-.21.53-.37,1.23-.35,1.98.01.74.12,1.44.35,1.98l.48,1.12c.22.51.54.82.85.82s.65-.3.85-.82c.21-.53.37-1.23.35-1.98-.01-.74-.12-1.44-.35-1.98h0Z"/>
        <path class="cls-2" d="m1216.91,1046.22c0-2.16-1.45-2.16-1.45,0s1.45,2.16,1.45,0h0Z"/>
        <path class="cls-2" d="m1277.72,984.68c0-2.16-1.45-2.16-1.45,0s1.45,2.16,1.45,0h0Z"/>
        <path class="cls-2" d="m1310.06,983.56c0-2.16-1.45-2.16-1.45,0s1.45,2.16,1.45,0h0Z"/>
        <path class="cls-2" d="m1412.33,1053.06c.16-.37.32-.75.48-1.12.22-.51.35-1.26.35-1.98s-.13-1.51-.35-1.98c-.23-.49-.53-.85-.85-.82-.32.03-.62.28-.85.82-.16.37-.32.75-.48,1.12-.22.51-.35,1.26-.35,1.98s.13,1.51.35,1.98c.23.49.53.85.85.82.32-.03.62-.28.85-.82h0Z"/>
        <path class="cls-2" d="m1421.73,990.32h.48c.31,0,.63-.31.85-.82.21-.49.37-1.28.35-1.98-.01-.72-.12-1.47-.35-1.98-.24-.5-.53-.82-.85-.82h-.48c-.31,0-.63.31-.85.82s-.37,1.28-.35,1.98c.01.72.12,1.47.35,1.98.24.5.53.82.85.82h0Z"/>
        <path class="cls-2" d="m1387.22,1031.16c0,3.6,2.41,3.61,2.41,0s-2.41-3.61-2.41,0h0Z"/>
        <path class="cls-2" d="m1386.61,988.38c.16.37.32.75.48,1.12.22.51.54.82.85.82s.65-.3.85-.82c.21-.53.37-1.23.35-1.98-.01-.74-.12-1.44-.35-1.98-.16-.37-.32-.75-.48-1.12-.22-.51-.54-.82-.85-.82s-.65.3-.85.82c-.21.53-.37,1.23-.35,1.98.01.74.12,1.44.35,1.98h0Z"/>
        <path class="cls-2" d="m1437.89,976.64c-.16-.37-.32-.75-.48-1.12-.22-.51-.54-.82-.85-.82s-.65.3-.85.82c-.21.53-.37,1.23-.35,1.98.01.74.12,1.44.35,1.98.16.37.32.75.48,1.12.22.51.54.82.85.82s.65-.3.85-.82c.21-.53.37-1.23.35-1.98-.01-.74-.12-1.44-.35-1.98h0Z"/>
        <path class="cls-2" d="m1484.22,943.67c.16-.37.32-.75.48-1.12.22-.51.35-1.26.35-1.98s-.13-1.51-.35-1.98c-.23-.49-.53-.85-.85-.82-.32.03-.62.28-.85.82-.16.37-.32.75-.48,1.12-.22.51-.35,1.26-.35,1.98s.13,1.51.35,1.98c.23.49.53.85.85.82.32-.03.62-.28.85-.82h0Z"/>
        <path class="cls-2" d="m1425.82,928.53c-.16-.37-.32-.75-.48-1.12-.22-.51-.54-.82-.85-.82s-.65.3-.85.82c-.21.53-.37,1.23-.35,1.98.01.74.12,1.44.35,1.98.16.37.32.75.48,1.12.22.51.54.82.85.82s.65-.3.85-.82c.21-.53.37-1.23.35-1.98-.01-.74-.12-1.44-.35-1.98h0Z"/>
        <path class="cls-2" d="m1478.78,1074.85v-2.24c0-.88-.33-1.72-.72-1.68-.39.04-.72.74-.72,1.68v2.24c0,.88.33,1.72.72,1.68.39-.04.72-.74.72-1.68h0Z"/>
        <path class="cls-2" d="m1371.16,992.05c0-2.16-1.45-2.16-1.45,0s1.45,2.16,1.45,0h0Z"/>
        <path class="cls-2" d="m1431.97,930.51c0-2.16-1.45-2.16-1.45,0s1.45,2.16,1.45,0h0Z"/>
        <path class="cls-2" d="m1464.3,929.39c0-2.16-1.45-2.16-1.45,0s1.45,2.16,1.45,0h0Z"/>
      </g>
      <g>
        <path class="cls-2" d="m708.1,1023.82c.16-.37.32-.75.48-1.12.22-.51.35-1.26.35-1.98s-.13-1.51-.35-1.98c-.23-.49-.53-.85-.85-.82-.32.03-.62.28-.85.82-.16.37-.32.75-.48,1.12-.22.51-.35,1.26-.35,1.98s.13,1.51.35,1.98c.23.49.53.85.85.82.32-.03.62-.28.85-.82h0Z"/>
        <path class="cls-2" d="m717.5,961.09h.48c.31,0,.63-.31.85-.82.21-.49.37-1.28.35-1.98-.01-.72-.12-1.47-.35-1.98-.24-.5-.53-.82-.85-.82h-.48c-.31,0-.63.31-.85.82-.21.49-.37,1.28-.35,1.98.01.72.12,1.47.35,1.98.24.5.53.82.85.82h0Z"/>
        <path class="cls-2" d="m682.99,1001.93c0,3.6,2.41,3.61,2.41,0s-2.41-3.61-2.41,0h0Z"/>
        <path class="cls-2" d="m682.38,959.15c.16.37.32.75.48,1.12.22.51.54.82.85.82s.65-.3.85-.82c.21-.53.37-1.23.35-1.98-.01-.74-.12-1.44-.35-1.98-.16-.37-.32-.75-.48-1.12-.22-.51-.54-.82-.85-.82s-.65.3-.85.82c-.21.53-.37,1.23-.35,1.98.01.74.12,1.44.35,1.98h0Z"/>
        <path class="cls-2" d="m862.12,1044.49h.48c.31,0,.63-.31.85-.82.21-.49.37-1.28.35-1.98-.01-.72-.12-1.47-.35-1.98-.24-.5-.53-.82-.85-.82h-.48c-.31,0-.63.31-.85.82-.21.49-.37,1.28-.35,1.98.01.72.12,1.47.35,1.98.24.5.53.82.85.82h0Z"/>
        <path class="cls-2" d="m827,1042.56c.16.37.32.75.48,1.12.22.51.54.82.85.82s.65-.3.85-.82c.21-.53.37-1.23.35-1.98-.01-.74-.12-1.44-.35-1.98-.16-.37-.32-.75-.48-1.12-.22-.51-.54-.82-.85-.82s-.65.3-.85.82c-.21.53-.37,1.23-.35,1.98.01.74.12,1.44.35,1.98h0Z"/>
        <path class="cls-2" d="m782.59,1024.06c0,3.6,2.41,3.61,2.41,0s-2.41-3.61-2.41,0h0Z"/>
        <path class="cls-2" d="m760.52,975.68c.16-.37.32-.75.48-1.12.22-.51.35-1.26.35-1.98s-.13-1.51-.35-1.98c-.23-.49-.53-.85-.85-.82-.32.03-.62.28-.85.82-.16.37-.32.75-.48,1.12-.22.51-.35,1.26-.35,1.98s.13,1.51.35,1.98c.23.49.53.85.85.82.32-.03.62-.28.85-.82h0Z"/>
        <path class="cls-2" d="m742.05,980.42c0,2.16,1.45,2.16,1.45,0s-1.45-2.16-1.45,0h0Z"/>
        <path class="cls-2" d="m969.61,1028.88h-.48c-.31,0-.63.31-.85.82-.21.49-.37,1.28-.35,1.98.01.72.12,1.47.35,1.98.24.5.53.82.85.82h.48c.31,0,.63-.31.85-.82.21-.49.37-1.28.35-1.98-.01-.72-.12-1.47-.35-1.98-.24-.5-.53-.82-.85-.82h0Z"/>
        <path class="cls-2" d="m1004.12,988.04c0-3.6-2.41-3.61-2.41,0s2.41,3.61,2.41,0h0Z"/>
        <path class="cls-2" d="m704.7,1032.42c0-3.6-2.41-3.61-2.41,0s2.41,3.61,2.41,0h0Z"/>
        <path class="cls-2" d="m878.28,1030.82c-.16-.37-.32-.75-.48-1.12-.22-.51-.54-.82-.85-.82s-.65.3-.85.82c-.21.53-.37,1.23-.35,1.98.01.74.12,1.44.35,1.98.16.37.32.75.48,1.12.22.51.54.82.85.82s.65-.3.85-.82c.21-.53.37-1.23.35-1.98-.01-.74-.12-1.44-.35-1.98h0Z"/>
        <path class="cls-2" d="m924.61,997.85c.16-.37.32-.75.48-1.12.22-.51.35-1.26.35-1.98s-.13-1.51-.35-1.98c-.23-.49-.53-.85-.85-.82-.32.03-.62.28-.85.82-.16.37-.32.75-.48,1.12-.22.51-.35,1.26-.35,1.98s.13,1.51.35,1.98c.23.49.53.85.85.82.32-.03.62-.28.85-.82h0Z"/>
        <path class="cls-2" d="m866.22,982.7l-.48-1.12c-.22-.51-.54-.82-.85-.82s-.65.3-.85.82c-.21.53-.37,1.23-.35,1.98.01.74.12,1.44.35,1.98.16.37.32.75.48,1.12.22.51.54.82.85.82s.65-.3.85-.82c.21-.53.37-1.23.35-1.98-.01-.74-.12-1.44-.35-1.98h0Z"/>
        <path class="cls-2" d="m950.55,1035.03c0-3.6-2.41-3.61-2.41,0s2.41,3.61,2.41,0h0Z"/>
        <path class="cls-2" d="m1004.73,1030.82c-.16-.37-.32-.75-.48-1.12-.22-.51-.54-.82-.85-.82s-.65.3-.85.82c-.21.53-.37,1.23-.35,1.98.01.74.12,1.44.35,1.98.16.37.32.75.48,1.12.22.51.54.82.85.82s.65-.3.85-.82c.21-.53.37-1.23.35-1.98-.01-.74-.12-1.44-.35-1.98h0Z"/>
        <path class="cls-2" d="m811.55,1046.22c0-2.16-1.45-2.16-1.45,0s1.45,2.16,1.45,0h0Z"/>
        <path class="cls-2" d="m872.36,984.68c0-2.16-1.45-2.16-1.45,0s1.45,2.16,1.45,0h0Z"/>
        <path class="cls-2" d="m904.7,983.56c0-2.16-1.45-2.16-1.45,0s1.45,2.16,1.45,0h0Z"/>
        <path class="cls-2" d="m1006.97,1053.06c.16-.37.32-.75.48-1.12.22-.51.35-1.26.35-1.98s-.13-1.51-.35-1.98c-.23-.49-.53-.85-.85-.82-.32.03-.62.28-.85.82-.16.37-.32.75-.48,1.12-.22.51-.35,1.26-.35,1.98s.13,1.51.35,1.98c.23.49.53.85.85.82.32-.03.62-.28.85-.82h0Z"/>
        <path class="cls-2" d="m1016.37,990.32h.48c.31,0,.63-.31.85-.82.21-.49.37-1.28.35-1.98-.01-.72-.12-1.47-.35-1.98-.24-.5-.53-.82-.85-.82h-.48c-.31,0-.63.31-.85.82-.21.49-.37,1.28-.35,1.98.01.72.12,1.47.35,1.98.24.5.53.82.85.82h0Z"/>
        <path class="cls-2" d="m981.86,1031.16c0,3.6,2.41,3.61,2.41,0s-2.41-3.61-2.41,0h0Z"/>
        <path class="cls-2" d="m981.25,988.38c.16.37.32.75.48,1.12.22.51.54.82.85.82s.65-.3.85-.82c.21-.53.37-1.23.35-1.98-.01-.74-.12-1.44-.35-1.98-.16-.37-.32-.75-.48-1.12-.22-.51-.54-.82-.85-.82s-.65.3-.85.82c-.21.53-.37,1.23-.35,1.98.01.74.12,1.44.35,1.98h0Z"/>
        <path class="cls-2" d="m1032.53,976.64c-.16-.37-.32-.75-.48-1.12-.22-.51-.54-.82-.85-.82s-.65.3-.85.82c-.21.53-.37,1.23-.35,1.98.01.74.12,1.44.35,1.98l.48,1.12c.22.51.54.82.85.82s.65-.3.85-.82c.21-.53.37-1.23.35-1.98-.01-.74-.12-1.44-.35-1.98h0Z"/>
        <path class="cls-2" d="m1078.86,943.67c.16-.37.32-.75.48-1.12.22-.51.35-1.26.35-1.98s-.13-1.51-.35-1.98c-.23-.49-.53-.85-.85-.82-.32.03-.62.28-.85.82-.16.37-.32.75-.48,1.12-.22.51-.35,1.26-.35,1.98s.13,1.51.35,1.98c.23.49.53.85.85.82.32-.03.62-.28.85-.82h0Z"/>
        <path class="cls-2" d="m1020.46,928.53c-.16-.37-.32-.75-.48-1.12-.22-.51-.54-.82-.85-.82s-.65.3-.85.82c-.21.53-.37,1.23-.35,1.98.01.74.12,1.44.35,1.98.16.37.32.75.48,1.12.22.51.54.82.85.82s.65-.3.85-.82c.21-.53.37-1.23.35-1.98-.01-.74-.12-1.44-.35-1.98h0Z"/>
        <path class="cls-2" d="m1073.42,1074.85v-2.24c0-.88-.33-1.72-.72-1.68-.39.04-.72.74-.72,1.68v2.24c0,.88.33,1.72.72,1.68.39-.04.72-.74.72-1.68h0Z"/>
        <path class="cls-2" d="m965.8,992.05c0-2.16-1.45-2.16-1.45,0s1.45,2.16,1.45,0h0Z"/>
        <path class="cls-2" d="m1026.61,930.51c0-2.16-1.45-2.16-1.45,0s1.45,2.16,1.45,0h0Z"/>
        <path class="cls-2" d="m1058.94,929.39c0-2.16-1.45-2.16-1.45,0s1.45,2.16,1.45,0h0Z"/>
      </g>
      <g>
        <path class="cls-2" d="m302.74,1023.82c.16-.37.32-.75.48-1.12.22-.51.35-1.26.35-1.98s-.13-1.51-.35-1.98c-.23-.49-.53-.85-.85-.82-.32.03-.62.28-.85.82-.16.37-.32.75-.48,1.12-.22.51-.35,1.26-.35,1.98s.13,1.51.35,1.98c.23.49.53.85.85.82.32-.03.62-.28.85-.82h0Z"/>
        <path class="cls-2" d="m312.14,961.09h.48c.31,0,.63-.31.85-.82.21-.49.37-1.28.35-1.98-.01-.72-.12-1.47-.35-1.98-.24-.5-.53-.82-.85-.82h-.48c-.31,0-.63.31-.85.82-.21.49-.37,1.28-.35,1.98.01.72.12,1.47.35,1.98.24.5.53.82.85.82h0Z"/>
        <path class="cls-2" d="m277.63,1001.93c0,3.6,2.41,3.61,2.41,0s-2.41-3.61-2.41,0h0Z"/>
        <path class="cls-2" d="m277.02,959.15c.16.37.32.75.48,1.12.22.51.54.82.85.82s.65-.3.85-.82c.21-.53.37-1.23.35-1.98-.01-.74-.12-1.44-.35-1.98l-.48-1.12c-.22-.51-.54-.82-.85-.82s-.65.3-.85.82c-.21.53-.37,1.23-.35,1.98.01.74.12,1.44.35,1.98h0Z"/>
        <path class="cls-2" d="m456.76,1044.49h.48c.31,0,.63-.31.85-.82s.37-1.28.35-1.98c-.01-.72-.12-1.47-.35-1.98-.24-.5-.53-.82-.85-.82h-.48c-.31,0-.63.31-.85.82-.21.49-.37,1.28-.35,1.98.01.72.12,1.47.35,1.98.24.5.53.82.85.82h0Z"/>
        <path class="cls-2" d="m421.64,1042.56c.16.37.32.75.48,1.12.22.51.54.82.85.82s.65-.3.85-.82c.21-.53.37-1.23.35-1.98-.01-.74-.12-1.44-.35-1.98-.16-.37-.32-.75-.48-1.12-.22-.51-.54-.82-.85-.82s-.65.3-.85.82c-.21.53-.37,1.23-.35,1.98.01.74.12,1.44.35,1.98h0Z"/>
        <path class="cls-2" d="m377.23,1024.06c0,3.6,2.41,3.61,2.41,0s-2.41-3.61-2.41,0h0Z"/>
        <path class="cls-2" d="m355.16,975.68c.16-.37.32-.75.48-1.12.22-.51.35-1.26.35-1.98s-.13-1.51-.35-1.98c-.23-.49-.53-.85-.85-.82-.32.03-.62.28-.85.82-.16.37-.32.75-.48,1.12-.22.51-.35,1.26-.35,1.98s.13,1.51.35,1.98c.23.49.53.85.85.82.32-.03.62-.28.85-.82h0Z"/>
        <path class="cls-2" d="m336.69,980.42c0,2.16,1.45,2.16,1.45,0s-1.45-2.16-1.45,0h0Z"/>
        <path class="cls-2" d="m564.25,1028.88h-.48c-.31,0-.63.31-.85.82-.21.49-.37,1.28-.35,1.98.01.72.12,1.47.35,1.98.24.5.53.82.85.82h.48c.31,0,.63-.31.85-.82.21-.49.37-1.28.35-1.98-.01-.72-.12-1.47-.35-1.98-.24-.5-.53-.82-.85-.82h0Z"/>
        <path class="cls-2" d="m598.76,988.04c0-3.6-2.41-3.61-2.41,0s2.41,3.61,2.41,0h0Z"/>
        <path class="cls-2" d="m299.34,1032.42c0-3.6-2.41-3.61-2.41,0s2.41,3.61,2.41,0h0Z"/>
        <path class="cls-2" d="m472.92,1030.82c-.16-.37-.32-.75-.48-1.12-.22-.51-.54-.82-.85-.82s-.65.3-.85.82c-.21.53-.37,1.23-.35,1.98.01.74.12,1.44.35,1.98.16.37.32.75.48,1.12.22.51.54.82.85.82s.65-.3.85-.82c.21-.53.37-1.23.35-1.98-.01-.74-.12-1.44-.35-1.98h0Z"/>
        <path class="cls-2" d="m519.25,997.85l.48-1.12c.22-.51.35-1.26.35-1.98s-.13-1.51-.35-1.98c-.23-.49-.53-.85-.85-.82-.32.03-.62.28-.85.82-.16.37-.32.75-.48,1.12-.22.51-.35,1.26-.35,1.98s.13,1.51.35,1.98c.23.49.53.85.85.82.32-.03.62-.28.85-.82h0Z"/>
        <path class="cls-2" d="m460.86,982.7c-.16-.37-.32-.75-.48-1.12-.22-.51-.54-.82-.85-.82s-.65.3-.85.82c-.21.53-.37,1.23-.35,1.98.01.74.12,1.44.35,1.98.16.37.32.75.48,1.12.22.51.54.82.85.82s.65-.3.85-.82c.21-.53.37-1.23.35-1.98-.01-.74-.12-1.44-.35-1.98h0Z"/>
        <path class="cls-2" d="m545.19,1035.03c0-3.6-2.41-3.61-2.41,0s2.41,3.61,2.41,0h0Z"/>
        <path class="cls-2" d="m599.37,1030.82c-.16-.37-.32-.75-.48-1.12-.22-.51-.54-.82-.85-.82s-.65.3-.85.82c-.21.53-.37,1.23-.35,1.98.01.74.12,1.44.35,1.98.16.37.32.75.48,1.12.22.51.54.82.85.82s.65-.3.85-.82c.21-.53.37-1.23.35-1.98-.01-.74-.12-1.44-.35-1.98h0Z"/>
        <path class="cls-2" d="m406.19,1046.22c0-2.16-1.45-2.16-1.45,0s1.45,2.16,1.45,0h0Z"/>
        <path class="cls-2" d="m467,984.68c0-2.16-1.45-2.16-1.45,0s1.45,2.16,1.45,0h0Z"/>
        <path class="cls-2" d="m499.34,983.56c0-2.16-1.45-2.16-1.45,0s1.45,2.16,1.45,0h0Z"/>
        <path class="cls-2" d="m601.61,1053.06c.16-.37.32-.75.48-1.12.22-.51.35-1.26.35-1.98s-.13-1.51-.35-1.98c-.23-.49-.53-.85-.85-.82-.32.03-.62.28-.85.82-.16.37-.32.75-.48,1.12-.22.51-.35,1.26-.35,1.98s.13,1.51.35,1.98c.23.49.53.85.85.82.32-.03.62-.28.85-.82h0Z"/>
        <path class="cls-2" d="m611.01,990.32h.48c.31,0,.63-.31.85-.82.21-.49.37-1.28.35-1.98-.01-.72-.12-1.47-.35-1.98-.24-.5-.53-.82-.85-.82h-.48c-.31,0-.63.31-.85.82s-.37,1.28-.35,1.98c.01.72.12,1.47.35,1.98.24.5.53.82.85.82h0Z"/>
        <path class="cls-2" d="m576.5,1031.16c0,3.6,2.41,3.61,2.41,0s-2.41-3.61-2.41,0h0Z"/>
        <path class="cls-2" d="m575.89,988.38c.16.37.32.75.48,1.12.22.51.54.82.85.82s.65-.3.85-.82c.21-.53.37-1.23.35-1.98-.01-.74-.12-1.44-.35-1.98-.16-.37-.32-.75-.48-1.12-.22-.51-.54-.82-.85-.82s-.65.3-.85.82c-.21.53-.37,1.23-.35,1.98.01.74.12,1.44.35,1.98h0Z"/>
        <path class="cls-2" d="m627.17,976.64c-.16-.37-.32-.75-.48-1.12-.22-.51-.54-.82-.85-.82s-.65.3-.85.82c-.21.53-.37,1.23-.35,1.98.01.74.12,1.44.35,1.98.16.37.32.75.48,1.12.22.51.54.82.85.82s.65-.3.85-.82c.21-.53.37-1.23.35-1.98-.01-.74-.12-1.44-.35-1.98h0Z"/>
        <path class="cls-2" d="m673.5,943.67c.16-.37.32-.75.48-1.12.22-.51.35-1.26.35-1.98s-.13-1.51-.35-1.98c-.23-.49-.53-.85-.85-.82-.32.03-.62.28-.85.82-.16.37-.32.75-.48,1.12-.22.51-.35,1.26-.35,1.98s.13,1.51.35,1.98c.23.49.53.85.85.82.32-.03.62-.28.85-.82h0Z"/>
        <path class="cls-2" d="m615.1,928.53c-.16-.37-.32-.75-.48-1.12-.22-.51-.54-.82-.85-.82s-.65.3-.85.82c-.21.53-.37,1.23-.35,1.98.01.74.12,1.44.35,1.98.16.37.32.75.48,1.12.22.51.54.82.85.82s.65-.3.85-.82c.21-.53.37-1.23.35-1.98-.01-.74-.12-1.44-.35-1.98h0Z"/>
        <path class="cls-2" d="m668.06,1074.85v-2.24c0-.88-.33-1.72-.72-1.68-.39.04-.72.74-.72,1.68v2.24c0,.88.33,1.72.72,1.68.39-.04.72-.74.72-1.68h0Z"/>
        <path class="cls-2" d="m560.44,992.05c0-2.16-1.45-2.16-1.45,0s1.45,2.16,1.45,0h0Z"/>
        <path class="cls-2" d="m621.25,930.51c0-2.16-1.45-2.16-1.45,0s1.45,2.16,1.45,0h0Z"/>
        <path class="cls-2" d="m653.58,929.39c0-2.16-1.45-2.16-1.45,0s1.45,2.16,1.45,0h0Z"/>
      </g>
      <g>
        <path class="cls-2" d="m53.13,1023.82c.16-.37.32-.75.48-1.12.22-.51.35-1.26.35-1.98s-.13-1.51-.35-1.98c-.23-.49-.53-.85-.85-.82-.32.03-.62.28-.85.82-.16.37-.32.75-.48,1.12-.22.51-.35,1.26-.35,1.98s.13,1.51.35,1.98c.23.49.53.85.85.82.32-.03.62-.28.85-.82h0Z"/>
        <path class="cls-2" d="m62.53,961.09h.48c.31,0,.63-.31.85-.82.21-.49.37-1.28.35-1.98-.01-.72-.12-1.47-.35-1.98-.24-.5-.53-.82-.85-.82h-.48c-.31,0-.63.31-.85.82-.21.49-.37,1.28-.35,1.98.01.72.12,1.47.35,1.98.24.5.53.82.85.82h0Z"/>
        <path class="cls-2" d="m28.02,1001.93c0,3.6,2.41,3.61,2.41,0s-2.41-3.61-2.41,0h0Z"/>
        <path class="cls-2" d="m27.41,959.15c.16.37.32.75.48,1.12.22.51.54.82.85.82s.65-.3.85-.82c.21-.53.37-1.23.35-1.98-.01-.74-.12-1.44-.35-1.98l-.48-1.12c-.22-.51-.54-.82-.85-.82s-.65.3-.85.82c-.21.53-.37,1.23-.35,1.98.01.74.12,1.44.35,1.98h0Z"/>
        <path class="cls-2" d="m207.15,1044.49h.48c.31,0,.63-.31.85-.82s.37-1.28.35-1.98c-.01-.72-.12-1.47-.35-1.98-.24-.5-.53-.82-.85-.82h-.48c-.31,0-.63.31-.85.82-.21.49-.37,1.28-.35,1.98.01.72.12,1.47.35,1.98.24.5.53.82.85.82h0Z"/>
        <path class="cls-2" d="m172.03,1042.56c.16.37.32.75.48,1.12.22.51.54.82.85.82s.65-.3.85-.82c.21-.53.37-1.23.35-1.98-.01-.74-.12-1.44-.35-1.98-.16-.37-.32-.75-.48-1.12-.22-.51-.54-.82-.85-.82s-.65.3-.85.82c-.21.53-.37,1.23-.35,1.98.01.74.12,1.44.35,1.98h0Z"/>
        <path class="cls-2" d="m127.62,1024.06c0,3.6,2.41,3.61,2.41,0s-2.41-3.61-2.41,0h0Z"/>
        <path class="cls-2" d="m105.55,975.68c.16-.37.32-.75.48-1.12.22-.51.35-1.26.35-1.98s-.13-1.51-.35-1.98c-.23-.49-.53-.85-.85-.82-.32.03-.62.28-.85.82-.16.37-.32.75-.48,1.12-.22.51-.35,1.26-.35,1.98s.13,1.51.35,1.98c.23.49.53.85.85.82.32-.03.62-.28.85-.82h0Z"/>
        <path class="cls-2" d="m87.08,980.42c0,2.16,1.45,2.16,1.45,0s-1.45-2.16-1.45,0h0Z"/>
        <path class="cls-2" d="m314.64,1028.88h-.48c-.31,0-.63.31-.85.82-.21.49-.37,1.28-.35,1.98.01.72.12,1.47.35,1.98.24.5.53.82.85.82h.48c.31,0,.63-.31.85-.82.21-.49.37-1.28.35-1.98-.01-.72-.12-1.47-.35-1.98-.24-.5-.53-.82-.85-.82h0Z"/>
        <path class="cls-2" d="m349.14,988.04c0-3.6-2.41-3.61-2.41,0s2.41,3.61,2.41,0h0Z"/>
        <path class="cls-2" d="m49.72,1032.42c0-3.6-2.41-3.61-2.41,0s2.41,3.61,2.41,0h0Z"/>
        <path class="cls-2" d="m223.31,1030.82c-.16-.37-.32-.75-.48-1.12-.22-.51-.54-.82-.85-.82s-.65.3-.85.82c-.21.53-.37,1.23-.35,1.98.01.74.12,1.44.35,1.98.16.37.32.75.48,1.12.22.51.54.82.85.82s.65-.3.85-.82c.21-.53.37-1.23.35-1.98-.01-.74-.12-1.44-.35-1.98h0Z"/>
        <path class="cls-2" d="m269.64,997.85c.16-.37.32-.75.48-1.12.22-.51.35-1.26.35-1.98s-.13-1.51-.35-1.98c-.23-.49-.53-.85-.85-.82-.32.03-.62.28-.85.82-.16.37-.32.75-.48,1.12-.22.51-.35,1.26-.35,1.98s.13,1.51.35,1.98c.23.49.53.85.85.82.32-.03.62-.28.85-.82h0Z"/>
        <path class="cls-2" d="m211.24,982.7c-.16-.37-.32-.75-.48-1.12-.22-.51-.54-.82-.85-.82s-.65.3-.85.82c-.21.53-.37,1.23-.35,1.98.01.74.12,1.44.35,1.98.16.37.32.75.48,1.12.22.51.54.82.85.82s.65-.3.85-.82c.21-.53.37-1.23.35-1.98-.01-.74-.12-1.44-.35-1.98h0Z"/>
        <path class="cls-2" d="m295.57,1035.03c0-3.6-2.41-3.61-2.41,0s2.41,3.61,2.41,0h0Z"/>
        <path class="cls-2" d="m349.76,1030.82c-.16-.37-.32-.75-.48-1.12-.22-.51-.54-.82-.85-.82s-.65.3-.85.82c-.21.53-.37,1.23-.35,1.98.01.74.12,1.44.35,1.98.16.37.32.75.48,1.12.22.51.54.82.85.82s.65-.3.85-.82c.21-.53.37-1.23.35-1.98-.01-.74-.12-1.44-.35-1.98h0Z"/>
        <path class="cls-2" d="m156.58,1046.22c0-2.16-1.45-2.16-1.45,0s1.45,2.16,1.45,0h0Z"/>
        <path class="cls-2" d="m217.39,984.68c0-2.16-1.45-2.16-1.45,0s1.45,2.16,1.45,0h0Z"/>
        <path class="cls-2" d="m249.72,983.56c0-2.16-1.45-2.16-1.45,0s1.45,2.16,1.45,0h0Z"/>
        <path class="cls-2" d="m352,1053.06c.16-.37.32-.75.48-1.12.22-.51.35-1.26.35-1.98s-.13-1.51-.35-1.98c-.23-.49-.53-.85-.85-.82-.32.03-.62.28-.85.82-.16.37-.32.75-.48,1.12-.22.51-.35,1.26-.35,1.98s.13,1.51.35,1.98c.23.49.53.85.85.82.32-.03.62-.28.85-.82h0Z"/>
        <path class="cls-2" d="m361.4,990.32h.48c.31,0,.63-.31.85-.82.21-.49.37-1.28.35-1.98-.01-.72-.12-1.47-.35-1.98-.24-.5-.53-.82-.85-.82h-.48c-.31,0-.63.31-.85.82-.21.49-.37,1.28-.35,1.98.01.72.12,1.47.35,1.98.24.5.53.82.85.82h0Z"/>
        <path class="cls-2" d="m326.89,1031.16c0,3.6,2.41,3.61,2.41,0s-2.41-3.61-2.41,0h0Z"/>
        <path class="cls-2" d="m326.28,988.38c.16.37.32.75.48,1.12.22.51.54.82.85.82s.65-.3.85-.82c.21-.53.37-1.23.35-1.98-.01-.74-.12-1.44-.35-1.98-.16-.37-.32-.75-.48-1.12-.22-.51-.54-.82-.85-.82s-.65.3-.85.82c-.21.53-.37,1.23-.35,1.98.01.74.12,1.44.35,1.98h0Z"/>
        <path class="cls-2" d="m377.56,976.64c-.16-.37-.32-.75-.48-1.12-.22-.51-.54-.82-.85-.82s-.65.3-.85.82c-.21.53-.37,1.23-.35,1.98.01.74.12,1.44.35,1.98l.48,1.12c.22.51.54.82.85.82s.65-.3.85-.82c.21-.53.37-1.23.35-1.98-.01-.74-.12-1.44-.35-1.98h0Z"/>
        <path class="cls-2" d="m423.89,943.67c.16-.37.32-.75.48-1.12.22-.51.35-1.26.35-1.98s-.13-1.51-.35-1.98c-.23-.49-.53-.85-.85-.82-.32.03-.62.28-.85.82-.16.37-.32.75-.48,1.12-.22.51-.35,1.26-.35,1.98s.13,1.51.35,1.98c.23.49.53.85.85.82.32-.03.62-.28.85-.82h0Z"/>
        <path class="cls-2" d="m365.49,928.53c-.16-.37-.32-.75-.48-1.12-.22-.51-.54-.82-.85-.82s-.65.3-.85.82c-.21.53-.37,1.23-.35,1.98.01.74.12,1.44.35,1.98.16.37.32.75.48,1.12.22.51.54.82.85.82s.65-.3.85-.82c.21-.53.37-1.23.35-1.98-.01-.74-.12-1.44-.35-1.98h0Z"/>
        <path class="cls-2" d="m418.45,1074.85v-2.24c0-.88-.33-1.72-.72-1.68-.39.04-.72.74-.72,1.68v2.24c0,.88.33,1.72.72,1.68.39-.04.72-.74.72-1.68h0Z"/>
        <path class="cls-2" d="m310.82,992.05c0-2.16-1.45-2.16-1.45,0s1.45,2.16,1.45,0h0Z"/>
        <path class="cls-2" d="m371.63,930.51c0-2.16-1.45-2.16-1.45,0s1.45,2.16,1.45,0h0Z"/>
        <path class="cls-2" d="m403.97,929.39c0-2.16-1.45-2.16-1.45,0s1.45,2.16,1.45,0h0Z"/>
      </g>
    </g>
  </g>
</svg>