<?xml version="1.0" encoding="UTF-8"?>
<svg id="Layer_1" data-name="Layer 1" xmlns="http://www.w3.org/2000/svg" viewBox="0 0 1927.21 1078.76">
  <defs>
    <style>
      .cls-1 {
        fill: #011842;
        fill-rule: evenodd;
        stroke-width: 0px;
      }
    </style>
  </defs>
  <polygon id="treeline" class="cls-1" points="-.05 793.09 21.78 790.51 57.22 794.24 94.25 780.6 115.2 787.63 135.32 784.11 166.72 785.35 201.37 780.17 254.53 786.39 268.21 783.48 284.33 788.24 328.62 787.21 343.9 790.11 359.21 785.75 379.34 789.9 401.91 786.39 419.62 788.45 430.89 787.63 438.94 787.63 470.37 783.48 502.58 791.75 517.88 787.21 556.52 794.66 583.91 791.15 649.96 797.36 758.67 771.05 823.91 777.48 887.52 763.6 956.79 768.17 1001.9 757.39 1022.84 764.84 1067.92 754.08 1104.98 757.39 1129.15 750.78 1158.14 763.2 1203.22 755.32 1248.33 760.72 1280.54 753.66 1309.53 757.39 1372.35 749.93 1402.96 760.29 1430.35 755.32 1460.94 761.11 1507.65 752.02 1564.02 761.96 1641.34 753.26 1927.16 780.24 1927.16 924.92 -.05 924.92 -.05 793.09"/>
</svg>