<?xml version="1.0" encoding="UTF-8"?>
<svg id="Layer_1" data-name="Layer 1" xmlns="http://www.w3.org/2000/svg" xmlns:xlink="http://www.w3.org/1999/xlink" viewBox="0 0 1927.21 1078.76">
  <defs>
    <style>
      .cls-1 {
        fill: url(#linear-gradient);
        fill-rule: evenodd;
        stroke-width: 0px;
      }
    </style>
    <linearGradient id="linear-gradient" x1="963.55" y1="813.04" x2="963.55" y2="930.36" gradientUnits="userSpaceOnUse">
      <stop offset="0" stop-color="#000d26"/>
      <stop offset="1" stop-color="#000"/>
    </linearGradient>
  </defs>
  <path id="trees" class="cls-1" d="m27.08,792.68c-1.35.93-5.94,8.34-7.06,9.91l4.54-.67-10.37,6.83,8.55-.96-9.31,6.38,9.56-1.35-10.6,9.97,8.52-1.79-11.13,9.24,8.05-2.24-9.84,11.41,8.27-1.67-12.28,12.26,5.16-1.41-8.92,11.42,7.63-.68L-.05,869.15v59.52h1927.21v-99.49c-1.93,2.72-4.29,6.49-5.07,7.58l4.77-.7-10.91,7.18,9-.99-9.81,6.7,10.09-1.41-8.77,8.24-9.67-9.63,8.72,1.77-10.34-12.01,8.44,2.35-11.72-9.71,9,1.88-11.16-10.49,10.06,1.42-9.81-6.72,9,1.01-10.91-7.19,4.77.72-7.43-10.43c-1.43.98-6.25,8.77-7.43,10.43l4.77-.72-10.91,7.19,9-1.01-9.81,6.72,10.09-1.42-11.19,10.49,9-1.88-7.01,5.8-12.81-12.77,8.72,1.77-10.34-12.01,8.44,2.35-11.69-9.71,8.97,1.88-11.16-10.47,10.06,1.41-9.78-6.7,8.97.99-10.88-7.18,4.77.7-7.46-10.43c-1.4.98-6.25,8.78-7.43,10.43l4.77-.7-10.88,7.18,8.97-.99-9.81,6.7,10.09-1.41-11.16,10.47,8.97-1.88-11.72,9.71,8.47-2.35-10.37,12.01,8.72-1.77-12.92,12.9,5.44-1.47-7.54,9.63-7.15-5.93,9,1.88-11.19-10.49,10.09,1.42-9.81-6.72,9,1.01-10.91-7.19,4.77.72-7.43-10.43c-1.43.98-6.25,8.77-7.43,10.43l4.77-.72-10.91,7.19,9-1.01-9.81,6.72,10.06-1.42-11.16,10.49,9-1.88-11.72,9.71,8.44-2.35-10.34,12.01,8.72-1.77-10.18,10.14-8.3-6.9,8.97,1.89-11.16-10.49,10.06,1.42-9.78-6.72,8.97,1.01-10.88-7.19,4.77.7-7.46-10.41c-1.4.98-6.25,8.77-7.43,10.41l4.77-.7-10.88,7.19,8.97-1.01-9.78,6.72,10.06-1.42-10.34,9.71-8.02-10.26,5.44,1.48-12.92-12.9,8.72,1.77-10.34-12.01,8.44,2.35-11.72-9.71,9,1.88-11.19-10.48,10.09,1.41-9.81-6.7,9,.99-10.91-7.18,4.77.7-7.43-10.43c-1.43.98-6.25,8.78-7.43,10.43l4.77-.7-10.91,7.18,9-.99-9.81,6.7,10.06-1.41-11.16,10.48,9-1.88-11.72,9.71,8.44-2.35-10.34,12.01,8.72-1.77-12.95,12.9,5.47-1.48-5.19,6.63-9.64-7.99,9,1.89-11.16-10.49,10.06,1.42-9.81-6.72,9,.99-10.91-7.18,4.77.7-7.43-10.43c-1.43.98-6.25,8.78-7.43,10.43l4.77-.7-10.91,7.18,9-.99-9.81,6.72,10.09-1.42-11.19,10.49,9-1.89-10.74,8.9-11.44-11.41,8.72,1.76-10.34-12,8.44,2.35-11.72-9.72,9,1.89-11.16-10.49,10.06,1.42-9.81-6.72,9,1.01-10.91-7.19,4.77.7-7.43-10.41c-1.43.98-6.25,8.77-7.43,10.41l4.77-.7-10.91,7.19,9-1.01-9.81,6.72,10.09-1.42-11.19,10.49,9-1.89-11.72,9.72,8.44-2.35-8.33,9.67-7.99-6.63,9,1.89-11.16-10.49,10.06,1.42-9.81-6.72,9,1.01-10.91-7.19,4.77.7-7.43-10.41c-1.43.98-6.25,8.77-7.43,10.41l4.77-.7-10.91,7.19,9-1.01-9.81,6.72,10.09-1.42-11.19,10.49,9-1.89-10.77,8.92-9.95-9.92,8.72,1.77-10.34-12.02,8.44,2.35-11.72-9.71,9,1.88-11.16-10.48,10.06,1.41-9.81-6.7,9,.99-10.91-7.18,4.77.7-7.43-10.43c-1.43.98-6.25,8.78-7.43,10.43l4.77-.7-10.91,7.18,9-.99-9.81,6.7,10.09-1.41-11.19,10.48,9-1.88-11.72,9.71,8.44-2.35-10.34,12.02,8.72-1.77-7.79,7.77-4.71-6.04,4.46,1.2-10.57-10.54,7.12,1.44-8.47-9.82,6.9,1.93-9.56-7.94,7.35,1.54-9.14-8.56,8.24,1.15-8.02-5.48,7.35.81-8.89-5.87,3.9.58-6.08-8.51c-1.18.8-5.1,7.17-6.08,8.51l3.9-.58-8.89,5.87,7.35-.81-8.02,5.48,8.24-1.15-9.14,8.56,7.35-1.54-9.56,7.94,6.9-1.93-8.47,9.82,7.12-1.44-10.57,10.54,4.46-1.2-7.68,9.81,6.56-.57-9.03,11.24-6.48-8.29,4.43,1.2-10.57-10.54,7.12,1.44-8.44-9.81,6.9,1.93-9.56-7.94,7.32,1.54-9.11-8.56,8.24,1.15-8.02-5.49,7.34.82-8.91-5.87,3.9.57-6.06-8.51c-1.18.8-5.13,7.17-6.08,8.51l3.9-.57-8.91,5.87,7.35-.82-7.99,5.49,8.21-1.15-9.11,8.56,7.34-1.54-9.59,7.94,6.92-1.93-8.47,9.81,7.12-1.44-10.57,10.54,4.46-1.2-7.68,9.82,6.56-.58-10.46,13.01-7.12-5.9,7.32,1.54-9.11-8.57,8.24,1.16-8.02-5.49,7.35.82-8.92-5.87,3.9.57-6.06-8.51c-1.18.8-5.13,7.17-6.08,8.51l3.9-.57-8.91,5.87,7.35-.82-7.65,5.24-7.37-7.36,7.12,1.44-8.47-9.82,6.9,1.93-9.56-7.94,7.35,1.54-9.14-8.56,8.24,1.15-8.02-5.48,7.35.81-8.89-5.87,3.9.58-6.08-8.52c-1.18.81-5.1,7.18-6.08,8.52l3.9-.58-8.89,5.87,7.35-.81-8.02,5.48,8.24-1.15-9.14,8.56,7.35-1.54-9.56,7.94,6.9-1.93-8.47,9.82,7.12-1.44-10.57,10.54,4.46-1.21-7.54,9.65-6.17-7.14,6.9,1.93-9.56-7.94,7.35,1.54-9.14-8.56,8.24,1.15-8.02-5.48,7.35.81-8.89-5.87,3.9.58-6.08-8.52c-1.18.81-5.1,7.17-6.08,8.52l3.9-.58-8.89,5.87,7.35-.81-8.02,5.48,8.24-1.15-9.14,8.56,7.35-1.54-9.56,7.94,6.9-1.93-8.13,9.43-3.73-4.62,6.56.57-7.65-9.81,4.43,1.2-10.57-10.54,7.12,1.44-8.44-9.82,6.9,1.93-9.59-7.94,7.35,1.54-9.11-8.56,8.24,1.15-8.02-5.48,7.35.81-8.91-5.87,3.9.58-6.06-8.51c-1.18.8-5.13,7.17-6.08,8.51l3.9-.58-8.92,5.87,7.35-.81-7.99,5.48,8.21-1.15-9.11,8.56,7.35-1.54-9.59,7.94,6.9-1.93-8.44,9.82,7.12-1.44-6.34,6.3-7.96-10.18,5.44,1.48-12.92-12.9,8.72,1.77-10.37-12.02,8.47,2.35-11.72-9.71,8.97,1.88-11.16-10.49,10.09,1.42-9.81-6.72,8.97,1.01-10.88-7.19,4.77.72-7.43-10.43c-1.43.98-6.28,8.78-7.46,10.43l4.77-.72-10.88,7.19,8.97-1.01-9.78,6.72,10.06-1.42-11.16,10.49,8.97-1.88-11.69,9.71,8.44-2.35-10.34,12.02,8.72-1.77-12.95,12.9,5.44-1.48-8.75,11.19-7.93-6.57,6.53,1.37-8.1-7.63,7.32,1.03-7.12-4.89,6.53.73-7.93-5.21,3.48.51-5.41-7.58c-1.04.72-4.54,6.38-5.41,7.58l3.48-.51-7.91,5.21,6.53-.73-7.15,4.89,7.35-1.03-8.13,7.63,6.53-1.37-8.49,7.06,6.11-1.71-5.69,6.61-6.62-8.24,6.56.58-7.68-9.82,4.46,1.21-10.57-10.54,7.12,1.44-8.47-9.82,6.9,1.93-9.56-7.94,7.34,1.54-9.11-8.56,8.21,1.15-7.99-5.48,7.32.81-8.89-5.87,3.9.58-6.08-8.51c-1.15.8-5.1,7.17-6.06,8.51l3.87-.58-8.89,5.87,7.34-.81-8.02,5.48,8.24-1.15-9.14,8.56,7.35-1.54-9.56,7.94,6.9-1.93-8.44,9.82,7.09-1.44-10.54,10.54,4.43-1.21-7.68,9.82,6.59-.58-13.12,16.29-3.48-4.44,3.98,1.07-9.42-9.37,6.34,1.29-7.51-8.73,6.14,1.71-8.52-7.07,6.53,1.37-8.1-7.61,7.32,1.03-7.12-4.89,6.53.73-7.93-5.23,3.48.52-5.41-7.58c-1.04.72-4.54,6.38-5.41,7.58l3.48-.52-7.93,5.23,6.53-.73-7.12,4.89,7.32-1.03-8.1,7.61,6.53-1.37-8.52,7.07,6.14-1.71-7.51,8.73,6.34-1.29-7.77,7.74-4.43-5.5,6.56.57-7.68-9.81,4.46,1.2-10.57-10.54,7.12,1.44-8.44-9.81,6.9,1.92-9.59-7.93,7.35,1.53-9.11-8.56,8.21,1.15-7.99-5.48,7.35.82-8.91-5.88,3.9.58-6.08-8.51c-1.15.8-5.1,7.17-6.06,8.51l3.9-.58-8.92,5.88,7.35-.82-8.02,5.48,8.24-1.15-9.11,8.56,7.35-1.53-9.59,7.93,6.9-1.92-8.44,9.81,7.12-1.44-9.81,9.76-8.13-10.11,6.56.57-7.68-9.81,4.46,1.2-10.57-10.54,7.12,1.44-8.44-9.82,6.9,1.93-9.59-7.94,7.35,1.54-9.11-8.56,8.21,1.15-7.99-5.48,7.35.81-8.91-5.87,3.9.58-6.08-8.51c-1.15.8-5.1,7.17-6.06,8.51l3.9-.58-8.91,5.87,7.35-.81-8.02,5.48,8.24-1.15-9.11,8.56,7.35-1.54-9.59,7.94,6.9-1.93-8.44,9.82,7.12-1.44-10.57,10.54,4.43-1.2-7.65,9.81,6.56-.57-11.66,14.49-9.98-9.97,7.12,1.44-8.47-9.82,6.9,1.93-9.56-7.94,7.35,1.54-9.14-8.56,8.24,1.15-8.02-5.48,7.35.81-8.89-5.87,3.9.58-6.08-8.51c-1.18.8-5.1,7.17-6.08,8.51l3.9-.58-8.89,5.87,7.35-.81-8.02,5.48,8.24-1.15-9.14,8.56,7.35-1.54-9.56,7.94,6.9-1.93-8.47,9.82,7.12-1.44-10.57,10.54,4.46-1.2-7.68,9.81,6.56-.57-4.43,5.53h-6.53l-1.68-2.12,3.98,1.08-9.45-9.43,6.36,1.3-7.54-8.78,6.17,1.72-8.58-7.1,6.59,1.38-8.16-7.66,7.35,1.03-7.15-4.9,6.56.73-7.96-5.25,3.48.52-5.41-7.61c-1.07.72-4.6,6.4-5.44,7.61l3.48-.52-7.96,5.25,6.56-.73-7.15,4.9,7.35-1.03-8.16,7.66,6.59-1.38-8.58,7.1,6.17-1.72-7.54,8.78,6.36-1.3-4.37,4.36-10.91-13.54,6.59.58-7.68-9.81,4.43,1.2-10.57-10.54,7.12,1.44-8.44-9.82,6.9,1.93-9.56-7.94,7.32,1.54-9.11-8.56,8.24,1.15-8.02-5.48,7.35.81-8.89-5.87,3.87.58-6.06-8.51c-1.18.8-5.13,7.17-6.08,8.51l3.9-.58-8.89,5.87,7.32-.81-7.99,5.48,8.21-1.15-9.11,8.56,7.35-1.54-9.56,7.94,6.9-1.93-8.47,9.82,7.12-1.44-10.57,10.54,4.46-1.2-7.68,9.81,6.56-.58-7.09,8.84-7.88-7.83,7.12,1.44-8.44-9.82,6.9,1.93-9.59-7.94,7.35,1.54-9.11-8.56,8.24,1.15-8.02-5.48,7.35.81-8.91-5.87,3.9.58-6.06-8.51c-1.18.8-5.13,7.17-6.08,8.51l3.9-.58-8.91,5.87,7.35-.81-8.02,5.48,8.24-1.15-9.11,8.56,7.35-1.54-9.59,7.94,6.9-1.93-8.44,9.82,7.12-1.44-10.57,10.54,4.43-1.21-6.64,8.52-7.93-7.9,7.12,1.44-8.47-9.82,6.9,1.93-9.56-7.94,7.35,1.54-9.11-8.56,8.21,1.15-7.99-5.48,7.32.81-8.89-5.87,3.9.58-6.08-8.51c-1.15.8-5.1,7.17-6.06,8.51l3.87-.58-8.89,5.87,7.35-.81-8.02,5.48,8.24-1.15-9.14,8.56,7.35-1.54-9.56,7.94,6.9-1.93-8.44,9.82,7.09-1.44-10.57,10.54,4.46-1.2-7.68,9.81,6.59-.57-4.43,5.49h-7.85l-4.18-4.18,7.12,1.44-8.47-9.81,6.9,1.93-9.56-7.94,7.35,1.54-9.14-8.56,8.24,1.15-8.02-5.49,7.35.82-8.89-5.87,3.9.57-6.08-8.51c-1.15.8-5.1,7.17-6.08,8.51l3.9-.57-8.89,5.87,7.35-.82-8.02,5.49,8.24-1.15-9.14,8.56,7.35-1.54-9.56,7.94,6.9-1.93-7.49,8.69-10.82-10.78,8.27,1.69-9.81-11.42,8.02,2.24-11.13-9.23,8.52,1.78-10.6-9.95,9.59,1.35-9.34-6.38,8.55.95-10.34-6.83,4.51.67-7.06-9.89c-1.35.93-5.94,8.33-7.06,9.89l4.54-.67-10.34,6.83,8.52-.95-9.31,6.38,9.56-1.35-10.6,9.95,8.55-1.78-11.13,9.23,8.02-2.24-9.84,11.42,8.27-1.69-9.42,9.42-6.64-8.27,7.63.68-8.92-11.42,5.16,1.41-12.28-12.26,8.27,1.69-9.81-11.42,8.02,2.24-11.13-9.24,8.52,1.79-10.6-9.95,9.56,1.33-9.31-6.38,8.55.96-10.34-6.83,4.51.67-7.06-9.91c-1.35.93-5.94,8.34-7.06,9.91l4.54-.67-10.37,6.83,8.55-.96-9.31,6.38,9.56-1.33-10.6,9.95,8.52-1.79-11.1,9.24,8.02-2.24-9.84,11.42,8.27-1.69-12.28,12.26,5.16-1.41-4.15,5.32-10.12-10.08,8.3,1.67-9.84-11.41,8.02,2.23-11.13-9.23,8.55,1.79-10.63-9.97,9.59,1.35-9.31-6.38,8.52.95-10.34-6.83,4.51.68-7.04-9.91c-1.37.93-5.97,8.33-7.06,9.91l4.51-.68-10.34,6.83,8.52-.95-9.31,6.38,9.59-1.35-10.63,9.97,8.55-1.79-11.13,9.23,8.02-2.23-9.84,11.41,8.3-1.67-12.31,12.25,5.19-1.39-6.73,8.58-10.71-8.9,8.52,1.79-10.6-9.97,9.56,1.35-9.31-6.38,8.52.95-10.34-6.83,4.54.68-7.06-9.91c-1.35.93-5.94,8.33-7.06,9.91l4.51-.68-10.34,6.83,8.55-.95-9.31,6.38,9.56-1.35-10.6,9.97,8.52-1.79-11.13,9.23,8.02-2.23-9.81,11.41,8.27-1.67-1.71,1.71h-7.46l-2.89-3.69,5.19,1.39-12.31-12.26,8.3,1.69-9.84-11.42,8.02,2.24-11.13-9.23,8.55,1.78-10.63-9.95,9.59,1.35-9.31-6.38,8.52.95-10.34-6.83,4.54.67-7.06-9.89c-1.37.93-5.94,8.33-7.06,9.89l4.51-.67-10.34,6.83,8.55-.95-9.34,6.38,9.59-1.35-10.63,9.95,8.55-1.78-11.13,9.23,8.02-2.24-8.47,9.83-5.13-6.56,5.19,1.39-12.31-12.25,8.3,1.67-9.84-11.41,8.02,2.23-11.13-9.23,8.55,1.79-10.63-9.97,9.59,1.35-9.34-6.38,8.55.95-10.34-6.83,4.51.68-7.06-9.91c-1.35.93-5.94,8.33-7.06,9.91l4.54-.68-10.34,6.83,8.52-.95-9.31,6.38,9.59-1.35-10.63,9.97,8.55-1.79-11.13,9.23,8.02-2.23-9.84,11.41,8.3-1.67-12.31,12.25,5.19-1.39-7.57,9.67-11.91-11.87,8.3,1.67-9.84-11.41,8.02,2.24-11.13-9.24,8.55,1.79-10.63-9.95,9.59,1.33-9.31-6.38,8.52.96-10.34-6.83,4.54.67-7.06-9.91c-1.37.93-5.94,8.34-7.06,9.91l4.51-.67-10.34,6.83,8.55-.96-9.34,6.38,9.59-1.33-10.63,9.95,8.55-1.79-11.13,9.24,8.02-2.24-9.84,11.41,8.3-1.67-12.31,12.26,5.19-1.41-8.91,11.42,7.63-.68-1.29,1.61h-5.94l-11.69-11.65,8.3,1.67-9.84-11.41,8.02,2.23-11.13-9.23,8.55,1.78-10.63-9.95,9.59,1.35-9.34-6.38,8.55.95-10.34-6.83,4.51.68-7.06-9.91c-1.35.93-5.94,8.33-7.06,9.91l4.54-.68-10.34,6.83,8.52-.95-9.31,6.38,9.59-1.35-10.63,9.95,8.55-1.78-11.13,9.23,8.02-2.23-9.84,11.41,8.3-1.67-7.2,7.15-9.76-9.72,8.3,1.67-9.84-11.41,8.02,2.24-11.13-9.24,8.55,1.79-10.63-9.97,9.59,1.35-9.31-6.38,8.52.95-10.34-6.83,4.54.68-7.06-9.91c-1.37.93-5.97,8.34-7.06,9.91l4.51-.68-10.34,6.83,8.52-.95-9.31,6.38,9.59-1.35-10.63,9.97,8.55-1.79-9.2,7.63-10.18-10.15,8.27,1.69-9.81-11.42,8.02,2.24-11.13-9.23,8.52,1.78-10.6-9.95,9.56,1.35-9.31-6.38,8.55.95-10.34-6.83,4.51.67-7.06-9.89c-1.35.93-5.94,8.33-7.06,9.89l4.54-.67-10.37,6.83,8.55-.95-9.31,6.38,9.56-1.35-10.6,9.95,8.52-1.78-11.1,9.23,8.02-2.24-9.84,11.42,8.27-1.69-8.33,8.32-9.42-7.81,8.52,1.79-10.6-9.95,9.59,1.33-9.34-6.38,8.55.96-10.34-6.83,4.51.67-7.06-9.91c-1.35.93-5.94,8.34-7.06,9.91l4.54-.67-10.34,6.83,8.52-.96-9.31,6.38,9.56-1.33-10.6,9.95,8.55-1.79-11.13,9.24,8.02-2.24-9.22,10.69-3.95-4.93,7.63.67-8.91-11.41,5.16,1.39-12.28-12.26,8.27,1.69-9.84-11.41,8.02,2.23-11.1-9.23,8.52,1.78-10.6-9.95,9.56,1.35-9.31-6.38,8.55.95-10.37-6.83,4.54.67-7.06-9.89c-1.35.93-5.94,8.33-7.06,9.89l4.51-.67-10.34,6.83,8.55-.95-9.31,6.38,9.56-1.35-10.6,9.95,8.52-1.78-11.13,9.23,8.02-2.23-9.81,11.41,8.27-1.69-9.53,9.52-5.24-6.1,8.02,2.24-11.13-9.24,8.55,1.79-10.63-9.95,9.59,1.33-9.34-6.38,8.55.96-10.34-6.83,4.51.67-7.06-9.89c-1.35.92-5.94,8.33-7.06,9.89l4.54-.67-10.34,6.83,8.52-.96-9.31,6.38,9.59-1.33-10.63,9.95,8.55-1.79-11.13,9.24,8.02-2.24-9,10.45-7.88-7.86,8.27,1.69-9.81-11.42,8.02,2.24-11.13-9.24,8.52,1.79-10.6-9.95,9.56,1.33-9.31-6.38,8.55.96-10.34-6.83,4.51.67-7.06-9.91c-1.35.93-5.94,8.34-7.06,9.91l4.54-.67-10.37,6.83,8.55-.96-9.31,6.38,9.56-1.33-10.6,9.95,8.52-1.79-11.1,9.24,8.02-2.24-9.84,11.42,8.27-1.69-12.28,12.26,5.16-1.41-8.91,11.42,7.63-.68-5.94,7.41-9.34-10.83,8.05,2.24-11.13-9.24,8.52,1.79-10.6-9.95,9.56,1.33-9.31-6.38,8.55.96-10.37-6.83,4.54.67-7.06-9.91c-1.35.93-5.94,8.34-7.06,9.91l4.54-.67-10.37,6.83,8.55-.96-9.31,6.38,9.56-1.33-10.6,9.95,8.52-1.79-11.13,9.24,8.05-2.24-9.84,11.41,8.27-1.67-7.32,7.3-8.63-10.72,7.65.67-8.94-11.41,5.19,1.39-12.31-12.26,8.3,1.69-9.84-11.42,8.02,2.24-11.13-9.23,8.55,1.78-10.63-9.95,9.59,1.35-9.31-6.39,8.52.96-10.34-6.83,4.54.67-7.06-9.89c-1.37.92-5.94,8.33-7.06,9.89l4.51-.67-10.34,6.83,8.55-.96-9.34,6.39,9.59-1.35-10.63,9.95,8.55-1.78-11.13,9.23,8.02-2.24-9.84,11.42,8.3-1.69-12.31,12.26,5.19-1.39-7.37,9.43-2.97-3.79,3.56.97-8.47-8.45,5.72,1.15-6.78-7.87,5.52,1.54-7.68-6.37,5.89,1.24-7.32-6.87,6.62.92-6.42-4.4,5.89.67-7.15-4.72,3.11.46-4.85-6.83c-.95.64-4.12,5.75-4.88,6.83l3.11-.46-7.12,4.72,5.89-.67-6.45,4.4,6.62-.92-7.32,6.87,5.89-1.24-4.04,3.35-11.47-11.41,8.3,1.69-9.84-11.42,8.02,2.24-11.13-9.24,8.55,1.79-10.63-9.95,9.59,1.33-9.31-6.38,8.52.96-10.34-6.83,4.54.67-7.06-9.91c-1.37.93-5.94,8.34-7.06,9.91l4.51-.67-10.34,6.83,8.55-.96-9.34,6.38,9.59-1.33-10.63,9.95,8.55-1.79-11.13,9.24,8.02-2.24-9.84,11.42,8.3-1.69-12.31,12.26,5.19-1.41-8.91,11.42,7.63-.68-10.48,13.06-8.19-10.16,7.63.67-8.92-11.41,5.19,1.39-12.31-12.26,8.27,1.69-9.81-11.42,8.02,2.24-11.13-9.24,8.55,1.79-10.63-9.95,9.59,1.35-9.34-6.39,8.55.96-10.34-6.83,4.51.67-7.06-9.89c-1.35.92-5.94,8.33-7.06,9.89l4.54-.67-10.34,6.83,8.52-.96-9.31,6.39,9.56-1.35-10.6,9.95,8.55-1.79-11.13,9.24,8.02-2.24-9.84,11.42,8.3-1.69-11.3,11.26-6.7-8.57,5.16,1.41-12.28-12.26,8.27,1.67-9.84-11.41,8.05,2.24-11.13-9.24,8.52,1.79-10.6-9.97,9.56,1.35-9.31-6.38,8.55.96-10.37-6.83,4.54.67-7.06-9.91Zm1769.57,75.82h-2.5l-3.08-3.59,3.59,1.01-1.32,1.3,3.03-.82,1.57.44-1.29,1.67Zm48.7,17.8h15.81l-.17.19h-15.48l-.17-.19Zm-1311.77.19l-.62-.8,2.97.8h-2.35Zm50.94,0h.2l1.12-1.38-2.64-.23,1.32,1.61Zm121.81,0h3.84l.39-.51-5.94-1.2,1.71,1.71Zm139.02,0h2.72l4.18-4.18-5.38,1.09.7.72-1.79-.49-.64.12.22-.24-2.94-.79,2.94,3.77Zm1073.95-22.47l-.25-.34.7-.19-.45.53Zm-2.27-2.91l-2.5-3.2.56-.12,4.46,1.21-2.52,2.11Zm-2.66-3.41l-.11-.13.2.05-.08.08Zm5.24,1.25l-1.74-1.75,5.16-1.08-3.42,2.82Zm-38.16-10.27l-1.37-1.73,3.92-.8-2.55,2.53Zm-3.28-4.11l-.22-.27.42.04-.2.23Zm3.92-4.55l-2.02-2.57,5.55-1.55-3.53,4.12Zm-2.78-3.54l-2.72-3.48,5.21,1.41-2.5,2.07Zm-50.04,18.04l-.22-.22.34.06-.11.16Zm3.45-4.3l-5.3-6.16,2.27.63-.25.32,1.07-.08,5.3,1.48-3.08,3.82Zm3.08-3.84l-2.1-1.75,3.78-.33-1.68,2.07Zm-37.45,19.92l-.42-.34.87-.23-.45.57Zm-30.59,3.04l-2.21-2.75,6.03-1.69-3.81,4.44Zm-2.86-3.55l-4.88-6.07,8.02.7-.98-1.24,7.77-1.64-9.92,8.24Zm-51.36,1.39l-2.55-2.53,3.92.8-1.37,1.73Zm3.28-4.1l-2.5-2.91,5.21-.46-2.72,3.37Zm-3.87-4.51l-3.59-4.17,5.61,1.58-2.02,2.59Zm-30.56,11.89l-2.58-3.2,5.33.46-2.75,2.74Zm4.15-4.15l-.9-1.15,2.58-.52-1.68,1.67Zm-3.31-4.23l-4.79-6.13,2.97.8h0s0,0,0,0l2.5.67-1.07-1.05,7.01-1.96-6.62,7.69Zm-43.09-5.42l-.45-.45,1.01-.27-.56.72Zm1.82-5.94l-5.19-6.03,3.28.91-.59.68,1.77-.35,3.98,1.12-1.85-1.54,4.82-.98-6.22,6.2Zm-32.02,9.89l-1.26-1.55,2.58.23-1.32,1.32Zm4.18-4.17l-.81-1.03,2.33-.47-1.51,1.5Zm-3.31-4.24l-3.48-4.45,5.44,1.48-2.58-2.57,7.06-1.96-6.45,7.5Zm-42.98-2.22l-1.18-1.44,2.92-.79-1.74,2.23Zm-1.99-2.46l-.17-.22.36.02-.2.19Zm-45.33,14.83l-2.33-2.86,4.32.38-1.99,2.49Zm-48.02,12.88l-2.27-2.62,3.56.99-1.29,1.62Zm-19.68-.92l-.84-1.05,2.33-.64-1.49,1.7Zm-2.07-2.57l-.03-.06h.11s-.08.06-.08.06Zm3.73-3.07l-1.07-1.33,3.56-.74-2.5,2.07Zm-2.3-2.93l-2.58-3.3,4.46,1.21-3.03-3.01,7.71-1.08-6.56,6.17Zm-40.26,13.08l-5.52-5.49,7.12,1.44-2.19-2.53,6.31-.56-5.72,7.14Zm-28.37-1.26l-2.33-2.91,6.56-1.32-4.23,4.23Zm-40.82-13.7l-1.74-2.17,4.35-1.16-2.61,3.33Zm-1.79-2.21l-2.44-3.03,5.05.44-2.61,2.59Zm-50.85,6.86l-3.81-3.79,5.89,1.2-2.07,2.59Zm2.27-2.82l-7.26-8.41,5.35,1.49-.45.56,8.05-.7-5.69,7.07Zm-24.75,1.15l-1.18-1.45,3.31-.67-2.13,2.12Zm-86.99,1.82l-.62-.75,1.54-.41-.93,1.16Zm-39.75-13.94l-1.32-1.65,3.28-.89-1.96,2.53Zm-56.27,4.39l-2.16-2.75,3.59.97-1.43,1.78Zm-125.76,3.04l-.25-.35.42.12-.17.23Zm-36.22,13.88l-3.36-4.28,4.46,1.2-1.51-1.52,4.43-.4-4.01,5Zm-116.65,7.41l-.36-.47.95-.25-.59.73Zm-47.97-9.03l-.95-1.22,2.07-.18-1.12,1.41Zm-3.53-4.52l-1.21-1.53,1.99.53-.78.99Zm-42.98,14.95l-8.44-9.8,7.49,2.09-2.07,2.64,7.65-.67-4.63,5.73Zm-77.18-5.04l-2.89-3.58,5.94.52-3.06,3.06Zm3.95-3.94l-2.1-2.69,6.03-1.22-3.92,3.92Zm-50.07,6.3l-6.28-8.03,4.6,1.25-1.18,1.5,7.65-.67-4.79,5.94Zm-91.45,3.98l-.22-.29.59-.16-.36.45Zm-1.68-2.17l-.67-.85,1.21.33-.53.52Zm-33.95-7.17l-1.77-2.18,3.62.32-1.85,1.87Zm3.95-3.95l-.31-.4.9-.18-.59.58Zm-3.22-4.11l-3.78-4.86,1.65.45-.53.45,1.07-.3,2.97.8-1.26-1.27,5.24-1.47-5.35,6.21Zm-41.1,6.05l-.14-.15.28-.02-.14.17Zm-3.98-3.98l-.56-.56.87.17-.31.39Zm3.22-4.11l-1.57-1.81,3.76-1.02-2.19,2.82Zm-2.05-2.36l-3.28-3.82,5.55,1.55-2.27,2.27Zm-28.03,10.58l-2.58-3.2,7.23-1.47-4.65,4.67Zm-47.8-14.67l-2.44-2.42,3.73.76-1.29,1.66Zm3.08-3.95l-.42-.5,1.01-.27-.59.76Zm-33.39,7.76l-1.96-2.52,3.53.96-1.57,1.56Zm2.16-2.16l-2.69-2.69,6.78-1.38-4.09,4.07Zm-50.21,21.48l-4.79-4.79,7.43,1.5-2.64,3.29Zm-85.84-1.98l-3.14-3.93,5.27.47-1.85-2.36,4.74-.41-5.02,6.23Zm-26.91-15.79l-.84-1.04,1.74.16-.9.89Zm1.68-6.92l-1.37-1.77,3.81-1.05-2.44,2.82Zm-1.82-2.34l-1.99-2.52,3.78,1.03-1.79,1.49Zm-97.11,12.18l-.76-.93,1.63-.13-.87,1.07Zm-3.59-4.46l-3.84-4.78,7.06.63-3.22,4.15Zm3.5-4.47l-1.49-1.88,3.73-.99-2.24,2.87Z"/>
</svg>