<?xml version="1.0" encoding="UTF-8"?>
<svg id="Layer_1" data-name="Layer 1" xmlns="http://www.w3.org/2000/svg" viewBox="0 0 1366 124.92">
  <defs>
    <style>
      .cls-1 {
        fill: #011842;
        fill-rule: evenodd;
        stroke-width: 0px;
      }
    </style>
  </defs>
  <polygon id="treeline" class="cls-1" points="0 30.81 15.48 28.97 40.6 31.63 66.85 21.89 81.69 26.91 95.96 24.4 118.21 25.29 142.77 21.59 180.45 26.02 190.14 23.95 201.57 27.35 232.97 26.61 243.8 28.69 254.64 25.57 268.91 28.54 284.91 26.02 297.47 27.5 305.45 26.91 311.16 26.91 333.43 23.95 356.26 29.86 367.11 26.61 394.5 31.93 413.91 29.42 460.72 33.86 537.78 15.08 584.02 19.67 629.11 9.76 678.21 13.02 710.18 5.32 725.03 10.64 756.98 2.96 783.25 5.32 800.38 .6 820.92 9.47 852.88 3.85 884.85 7.7 907.68 2.66 928.23 5.32 972.76 0 994.46 7.4 1013.87 3.85 1035.55 7.98 1068.65 1.49 1108.61 8.59 1163.42 2.38 1366 21.64 1366 124.92 0 124.92 0 30.81"/>
</svg>