<?xml version="1.0" encoding="UTF-8"?>
<svg id="Layer_1" data-name="Layer 1" xmlns="http://www.w3.org/2000/svg" xmlns:xlink="http://www.w3.org/1999/xlink" viewBox="0 0 1920 2159">
  <defs>
    <style>
      .cls-1 {
        fill: url(#linear-gradient);
      }

      .cls-1, .cls-2 {
        stroke-width: 0px;
      }
      
      .cls-2 {
        fill: #010e26;
        fill-rule: evenodd;
      }
    </style>
    <linearGradient id="linear-gradient" x1="960" y1="2164" x2="960" y2="910" gradientUnits="userSpaceOnUse">
      <stop offset="0" stop-color="#000"/>
      <stop offset="1" stop-color="#010e26"/>
    </linearGradient>
  </defs>
  <path id="trees" class="cls-2" d="m22.14,776.2c-1.35.92-5.95,8.21-7.08,9.75l4.55-.66-10.39,6.72,8.56-.94-9.32,6.27,9.57-1.32-10.61,9.8,8.53-1.77-11.15,9.09,8.06-2.21-9.85,11.22,8.28-1.65-12.3,12.06,5.17-1.38-8.93,11.24,7.64-.67-7.92,9.69v58.56h1930.03v-97.88c-1.94,2.67-4.3,6.38-5.08,7.46l4.77-.69-10.92,7.06,9.01-.98-9.83,6.6,10.11-1.38-8.79,8.11-9.69-9.47,8.73,1.74-10.36-11.82,8.45,2.31-11.74-9.55,9.01,1.85-11.17-10.32,10.08,1.4-9.83-6.61,9.01.99-10.92-7.07,4.77.7-7.44-10.26c-1.43.97-6.26,8.62-7.44,10.26l4.77-.7-10.92,7.07,9.01-.99-9.83,6.61,10.11-1.4-11.2,10.32,9.01-1.85-7.02,5.7-12.83-12.56,8.73,1.74-10.36-11.82,8.45,2.31-11.71-9.55,8.98,1.85-11.17-10.31,10.08,1.38-9.8-6.6,8.98.98-10.89-7.06,4.77.69-7.47-10.26c-1.4.97-6.26,8.64-7.44,10.26l4.77-.69-10.89,7.06,8.98-.98-9.83,6.6,10.11-1.38-11.17,10.31,8.98-1.85-11.74,9.55,8.48-2.31-10.39,11.82,8.73-1.74-12.94,12.69,5.45-1.44-7.55,9.47-7.16-5.83,9.01,1.85-11.2-10.32,10.11,1.4-9.83-6.61,9.01.99-10.92-7.07,4.77.7-7.44-10.26c-1.43.97-6.26,8.62-7.44,10.26l4.77-.7-10.92,7.07,9.01-.99-9.83,6.61,10.08-1.4-11.17,10.32,9.01-1.85-11.74,9.55,8.45-2.31-10.36,11.82,8.73-1.74-10.19,9.97-8.31-6.79,8.98,1.86-11.17-10.32,10.08,1.4-9.8-6.61,8.98.99-10.89-7.07,4.77.69-7.47-10.25c-1.4.97-6.26,8.62-7.44,10.25l4.77-.69-10.89,7.07,8.98-.99-9.8,6.61,10.08-1.4-10.36,9.55-8.03-10.09,5.45,1.46-12.94-12.69,8.73,1.74-10.36-11.82,8.45,2.31-11.74-9.55,9.01,1.85-11.2-10.31,10.11,1.38-9.83-6.6,9.01.98-10.92-7.06,4.77.69-7.44-10.26c-1.43.97-6.26,8.64-7.44,10.26l4.77-.69-10.92,7.06,9.01-.98-9.83,6.6,10.08-1.38-11.17,10.31,9.01-1.85-11.74,9.55,8.45-2.31-10.36,11.82,8.73-1.74-12.97,12.69,5.47-1.46-5.19,6.52-9.66-7.86,9.01,1.86-11.17-10.32,10.08,1.4-9.83-6.61,9.01.98-10.92-7.06,4.77.69-7.44-10.26c-1.43.97-6.26,8.64-7.44,10.26l4.77-.69-10.92,7.06,9.01-.98-9.83,6.61,10.11-1.4-11.2,10.32,9.01-1.86-10.75,8.76-11.45-11.22,8.73,1.73-10.36-11.81,8.45,2.31-11.74-9.57,9.01,1.86-11.17-10.32,10.08,1.4-9.83-6.61,9.01.99-10.92-7.07,4.77.69-7.44-10.25c-1.43.97-6.26,8.62-7.44,10.25l4.77-.69-10.92,7.07,9.01-.99-9.83,6.61,10.11-1.4-11.2,10.32,9.01-1.86-11.74,9.57,8.45-2.31-8.34,9.52-8-6.52,9.01,1.86-11.17-10.32,10.08,1.4-9.83-6.61,9.01.99-10.92-7.07,4.77.69-7.44-10.25c-1.43.97-6.26,8.62-7.44,10.25l4.77-.69-10.92,7.07,9.01-.99-9.83,6.61,10.11-1.4-11.2,10.32,9.01-1.86-10.78,8.78-9.97-9.76,8.73,1.74-10.36-11.82,8.45,2.31-11.74-9.55,9.01,1.85-11.17-10.31,10.08,1.38-9.83-6.6,9.01.98-10.92-7.06,4.77.69-7.44-10.26c-1.43.97-6.26,8.64-7.44,10.26l4.77-.69-10.92,7.06,9.01-.98-9.83,6.6,10.11-1.38-11.2,10.31,9.01-1.85-11.74,9.55,8.45-2.31-10.36,11.82,8.73-1.74-7.81,7.65-4.72-5.94,4.46,1.18-10.58-10.37,7.13,1.42-8.48-9.66,6.91,1.9-9.57-7.81,7.36,1.51-9.15-8.42,8.25,1.13-8.03-5.39,7.36.8-8.9-5.77,3.9.57-6.09-8.37c-1.18.79-5.11,7.05-6.09,8.37l3.9-.57-8.9,5.77,7.36-.8-8.03,5.39,8.25-1.13-9.15,8.42,7.36-1.51-9.57,7.81,6.91-1.9-8.48,9.66,7.13-1.42-10.58,10.37,4.46-1.18-7.69,9.65,6.57-.56-9.04,11.06-6.49-8.16,4.44,1.18-10.58-10.37,7.13,1.42-8.45-9.65,6.91,1.9-9.57-7.81,7.33,1.51-9.12-8.42,8.25,1.13-8.03-5.4,7.36.81-8.93-5.77,3.9.56-6.06-8.37c-1.18.79-5.14,7.05-6.09,8.37l3.9-.56-8.93,5.77,7.36-.81-8,5.4,8.23-1.13-9.12,8.42,7.36-1.51-9.6,7.81,6.93-1.9-8.48,9.65,7.13-1.42-10.58,10.37,4.46-1.18-7.69,9.66,6.57-.57-10.47,12.8-7.13-5.81,7.33,1.51-9.12-8.43,8.25,1.15-8.03-5.4,7.36.81-8.93-5.77,3.9.56-6.06-8.37c-1.18.79-5.14,7.05-6.09,8.37l3.9-.56-8.93,5.77,7.36-.81-7.66,5.15-7.38-7.24,7.13,1.42-8.48-9.66,6.91,1.9-9.57-7.81,7.36,1.51-9.15-8.42,8.25,1.13-8.03-5.39,7.36.8-8.9-5.77,3.9.57-6.09-8.39c-1.18.8-5.11,7.06-6.09,8.39l3.9-.57-8.9,5.77,7.36-.8-8.03,5.39,8.25-1.13-9.15,8.42,7.36-1.51-9.57,7.81,6.91-1.9-8.48,9.66,7.13-1.42-10.58,10.37,4.46-1.19-7.55,9.49-6.18-7.03,6.91,1.9-9.57-7.81,7.36,1.51-9.15-8.42,8.25,1.13-8.03-5.39,7.36.8-8.9-5.77,3.9.57-6.09-8.39c-1.18.8-5.11,7.05-6.09,8.39l3.9-.57-8.9,5.77,7.36-.8-8.03,5.39,8.25-1.13-9.15,8.42,7.36-1.51-9.57,7.81,6.91-1.9-8.14,9.28-3.73-4.54,6.57.56-7.66-9.65,4.44,1.18-10.58-10.37,7.13,1.42-8.45-9.66,6.91,1.9-9.6-7.81,7.36,1.51-9.12-8.42,8.25,1.13-8.03-5.39,7.36.8-8.93-5.77,3.9.57-6.06-8.37c-1.18.79-5.14,7.05-6.09,8.37l3.9-.57-8.93,5.77,7.36-.8-8,5.39,8.23-1.13-9.12,8.42,7.36-1.51-9.6,7.81,6.91-1.9-8.45,9.66,7.13-1.42-6.35,6.2-7.97-10.02,5.45,1.46-12.94-12.69,8.73,1.74-10.39-11.82,8.48,2.31-11.74-9.55,8.98,1.85-11.17-10.32,10.11,1.4-9.83-6.61,8.98.99-10.89-7.07,4.77.7-7.44-10.26c-1.43.97-6.29,8.64-7.47,10.26l4.77-.7-10.89,7.07,8.98-.99-9.8,6.61,10.08-1.4-11.17,10.32,8.98-1.85-11.71,9.55,8.45-2.31-10.36,11.82,8.73-1.74-12.97,12.69,5.45-1.46-8.76,11.01-7.95-6.46,6.54,1.35-8.11-7.5,7.33,1.01-7.13-4.81,6.54.72-7.95-5.13,3.48.5-5.42-7.46c-1.04.7-4.55,6.27-5.42,7.46l3.48-.5-7.92,5.13,6.54-.72-7.16,4.81,7.36-1.01-8.14,7.5,6.54-1.35-8.51,6.94,6.12-1.68-5.7,6.5-6.63-8.11,6.57.57-7.69-9.66,4.46,1.19-10.58-10.37,7.13,1.42-8.48-9.66,6.91,1.9-9.57-7.81,7.36,1.51-9.12-8.42,8.23,1.13-8-5.39,7.33.8-8.9-5.77,3.9.57-6.09-8.37c-1.15.79-5.11,7.05-6.06,8.37l3.87-.57-8.9,5.77,7.36-.8-8.03,5.39,8.25-1.13-9.15,8.42,7.36-1.51-9.57,7.81,6.91-1.9-8.45,9.66,7.1-1.42-10.56,10.37,4.44-1.19-7.69,9.66,6.6-.57-13.14,16.03-3.48-4.37,3.99,1.05-9.43-9.22,6.35,1.26-7.52-8.59,6.15,1.68-8.53-6.95,6.54,1.35-8.11-7.49,7.33,1.01-7.13-4.81,6.54.72-7.95-5.14,3.48.51-5.42-7.46c-1.04.7-4.55,6.27-5.42,7.46l3.48-.51-7.95,5.14,6.54-.72-7.13,4.81,7.33-1.01-8.11,7.49,6.54-1.35-8.53,6.95,6.15-1.68-7.52,8.59,6.35-1.26-7.78,7.61-4.44-5.42,6.57.56-7.69-9.65,4.46,1.18-10.58-10.37,7.13,1.42-8.45-9.65,6.91,1.88-9.6-7.8,7.36,1.5-9.12-8.42,8.23,1.13-8-5.39,7.36.81-8.93-5.79,3.9.57-6.09-8.37c-1.15.79-5.11,7.05-6.06,8.37l3.9-.57-8.93,5.79,7.36-.81-8.03,5.39,8.25-1.13-9.12,8.42,7.36-1.5-9.6,7.8,6.91-1.88-8.45,9.65,7.13-1.42-9.83,9.6-8.14-9.95,6.57.56-7.69-9.65,4.46,1.18-10.58-10.37,7.13,1.42-8.45-9.66,6.91,1.9-9.6-7.81,7.36,1.51-9.12-8.42,8.23,1.13-8-5.39,7.36.8-8.93-5.77,3.9.57-6.09-8.37c-1.15.79-5.11,7.05-6.06,8.37l3.9-.57-8.93,5.77,7.36-.8-8.03,5.39,8.25-1.13-9.12,8.42,7.36-1.51-9.6,7.81,6.91-1.9-8.45,9.66,7.13-1.42-10.58,10.37,4.44-1.18-7.66,9.65,6.57-.56-11.68,14.25-9.99-9.8,7.13,1.42-8.48-9.66,6.91,1.9-9.57-7.81,7.36,1.51-9.15-8.42,8.25,1.13-8.03-5.39,7.36.8-8.9-5.77,3.9.57-6.09-8.37c-1.18.79-5.11,7.05-6.09,8.37l3.9-.57-8.9,5.77,7.36-.8-8.03,5.39,8.25-1.13-9.15,8.42,7.36-1.51-9.57,7.81,6.91-1.9-8.48,9.66,7.13-1.42-10.58,10.37,4.46-1.18-7.69,9.65,6.57-.56-4.44,5.44h-6.54l-1.68-2.09,3.99,1.06-9.46-9.28,6.37,1.28-7.55-8.64,6.18,1.69-8.59-6.99,6.6,1.36-8.17-7.54,7.36,1.01-7.16-4.82,6.57.72-7.97-5.16,3.48.51-5.42-7.49c-1.07.7-4.6,6.3-5.45,7.49l3.48-.51-7.97,5.16,6.57-.72-7.16,4.82,7.36-1.01-8.17,7.54,6.6-1.36-8.59,6.99,6.18-1.69-7.55,8.64,6.37-1.28-4.38,4.29-10.92-13.32,6.6.57-7.69-9.65,4.44,1.18-10.58-10.37,7.13,1.42-8.45-9.66,6.91,1.9-9.57-7.81,7.33,1.51-9.12-8.42,8.25,1.13-8.03-5.39,7.36.8-8.9-5.77,3.87.57-6.06-8.37c-1.18.79-5.14,7.05-6.09,8.37l3.9-.57-8.9,5.77,7.33-.8-8,5.39,8.23-1.13-9.12,8.42,7.36-1.51-9.57,7.81,6.91-1.9-8.48,9.66,7.13-1.42-10.58,10.37,4.46-1.18-7.69,9.65,6.57-.57-7.1,8.7-7.89-7.71,7.13,1.42-8.45-9.66,6.91,1.9-9.6-7.81,7.36,1.51-9.12-8.42,8.25,1.13-8.03-5.39,7.36.8-8.93-5.77,3.9.57-6.06-8.37c-1.18.79-5.14,7.05-6.09,8.37l3.9-.57-8.93,5.77,7.36-.8-8.03,5.39,8.25-1.13-9.12,8.42,7.36-1.51-9.6,7.81,6.91-1.9-8.45,9.66,7.13-1.42-10.58,10.37,4.44-1.19-6.65,8.39-7.95-7.78,7.13,1.42-8.48-9.66,6.91,1.9-9.57-7.81,7.36,1.51-9.12-8.42,8.23,1.13-8-5.39,7.33.8-8.9-5.77,3.9.57-6.09-8.37c-1.15.79-5.11,7.05-6.06,8.37l3.87-.57-8.9,5.77,7.36-.8-8.03,5.39,8.25-1.13-9.15,8.42,7.36-1.51-9.57,7.81,6.91-1.9-8.45,9.66,7.1-1.42-10.58,10.37,4.46-1.18-7.69,9.65,6.6-.56-4.44,5.4h-7.86l-4.18-4.12,7.13,1.42-8.48-9.65,6.91,1.9-9.57-7.81,7.36,1.51-9.15-8.42,8.25,1.13-8.03-5.4,7.36.81-8.9-5.77,3.9.56-6.09-8.37c-1.15.79-5.11,7.05-6.09,8.37l3.9-.56-8.9,5.77,7.36-.81-8.03,5.4,8.25-1.13-9.15,8.42,7.36-1.51-9.57,7.81,6.91-1.9-7.5,8.55-10.84-10.6,8.28,1.66-9.83-11.24,8.03,2.21-11.15-9.08,8.53,1.75-10.61-9.79,9.6,1.32-9.35-6.27,8.56.93-10.36-6.72,4.52.66-7.08-9.73c-1.35.92-5.95,8.19-7.08,9.73l4.55-.66-10.36,6.72,8.53-.93-9.32,6.27,9.57-1.32-10.61,9.79,8.56-1.75-11.15,9.08,8.03-2.21-9.85,11.24,8.28-1.66-9.43,9.27-6.65-8.13,7.64.67-8.93-11.24,5.17,1.38-12.3-12.06,8.28,1.66-9.83-11.24,8.03,2.21-11.15-9.09,8.53,1.77-10.61-9.79,9.57,1.31-9.32-6.27,8.56.94-10.36-6.72,4.52.66-7.08-9.75c-1.35.92-5.95,8.21-7.08,9.75l4.55-.66-10.39,6.72,8.56-.94-9.32,6.27,9.57-1.31-10.61,9.79,8.54-1.77-11.12,9.09,8.03-2.21-9.85,11.24,8.28-1.66-12.3,12.06,5.17-1.38-4.16,5.24-10.14-9.91,8.31,1.65-9.85-11.22,8.03,2.19-11.15-9.08,8.56,1.77-10.64-9.8,9.6,1.32-9.32-6.27,8.53.93-10.36-6.72,4.52.67-7.05-9.75c-1.38.92-5.98,8.19-7.08,9.75l4.52-.67-10.36,6.72,8.54-.93-9.32,6.27,9.6-1.32-10.64,9.8,8.56-1.77-11.15,9.08,8.03-2.19-9.85,11.22,8.31-1.65-12.33,12.05,5.19-1.37-6.74,8.45-10.72-8.76,8.53,1.77-10.61-9.8,9.57,1.32-9.32-6.27,8.54.93-10.36-6.72,4.55.67-7.08-9.75c-1.35.92-5.95,8.19-7.08,9.75l4.52-.67-10.36,6.72,8.56-.93-9.32,6.27,9.57-1.32-10.61,9.8,8.53-1.77-11.15,9.08,8.03-2.19-9.83,11.22,8.28-1.65-1.71,1.68h-7.47l-2.89-3.63,5.19,1.37-12.33-12.06,8.31,1.66-9.85-11.24,8.03,2.21-11.15-9.08,8.56,1.75-10.64-9.79,9.6,1.32-9.32-6.27,8.53.93-10.36-6.72,4.55.66-7.08-9.73c-1.38.92-5.95,8.19-7.08,9.73l4.52-.66-10.36,6.72,8.56-.93-9.35,6.27,9.6-1.32-10.64,9.79,8.56-1.75-11.15,9.08,8.03-2.21-8.48,9.67-5.14-6.45,5.19,1.37-12.33-12.05,8.31,1.65-9.85-11.22,8.03,2.19-11.15-9.08,8.56,1.77-10.64-9.8,9.6,1.32-9.35-6.27,8.56.93-10.36-6.72,4.52.67-7.08-9.75c-1.35.92-5.95,8.19-7.08,9.75l4.55-.67-10.36,6.72,8.53-.93-9.32,6.27,9.6-1.32-10.64,9.8,8.56-1.77-11.15,9.08,8.03-2.19-9.85,11.22,8.31-1.65-12.33,12.05,5.19-1.37-7.58,9.52-11.93-11.68,8.31,1.65-9.85-11.22,8.03,2.21-11.15-9.09,8.56,1.77-10.64-9.79,9.6,1.31-9.32-6.27,8.53.94-10.36-6.72,4.55.66-7.08-9.75c-1.38.92-5.95,8.21-7.08,9.75l4.52-.66-10.36,6.72,8.56-.94-9.35,6.27,9.6-1.31-10.64,9.79,8.56-1.77-11.15,9.09,8.03-2.21-9.85,11.22,8.31-1.65-12.33,12.06,5.19-1.38-8.93,11.24,7.64-.67-1.29,1.59h-5.95l-11.71-11.46,8.31,1.65-9.85-11.22,8.03,2.19-11.15-9.08,8.56,1.75-10.64-9.79,9.6,1.32-9.35-6.27,8.56.93-10.36-6.72,4.52.67-7.08-9.75c-1.35.92-5.95,8.19-7.07,9.75l4.55-.67-10.36,6.72,8.53-.93-9.32,6.27,9.6-1.32-10.64,9.79,8.56-1.75-11.15,9.08,8.03-2.19-9.85,11.22,8.31-1.65-7.22,7.04-9.77-9.57,8.31,1.65-9.85-11.22,8.03,2.21-11.15-9.09,8.56,1.77-10.64-9.8,9.6,1.32-9.32-6.27,8.53.93-10.36-6.72,4.55.67-7.08-9.75c-1.38.92-5.98,8.21-7.08,9.75l4.52-.67-10.36,6.72,8.53-.93-9.32,6.27,9.6-1.32-10.64,9.8,8.56-1.77-9.21,7.5-10.19-9.98,8.28,1.66-9.83-11.24,8.03,2.21-11.15-9.08,8.53,1.75-10.61-9.79,9.57,1.32-9.32-6.27,8.56.93-10.36-6.72,4.52.66-7.08-9.73c-1.35.92-5.95,8.19-7.08,9.73l4.55-.66-10.39,6.72,8.56-.93-9.32,6.27,9.57-1.32-10.61,9.79,8.53-1.75-11.12,9.08,8.03-2.21-9.85,11.24,8.28-1.66-8.34,8.18-9.43-7.68,8.54,1.77-10.61-9.79,9.6,1.31-9.35-6.27,8.56.94-10.36-6.72,4.52.66-7.08-9.75c-1.35.92-5.95,8.21-7.08,9.75l4.55-.66-10.36,6.72,8.53-.94-9.32,6.27,9.57-1.31-10.61,9.79,8.56-1.77-11.15,9.09,8.03-2.21-9.24,10.52-3.96-4.85,7.64.66-8.93-11.22,5.17,1.37-12.3-12.06,8.28,1.66-9.85-11.22,8.03,2.19-11.12-9.08,8.53,1.75-10.61-9.79,9.57,1.32-9.32-6.27,8.56.93-10.39-6.72,4.55.66-7.08-9.73c-1.35.92-5.95,8.19-7.08,9.73l4.52-.66-10.36,6.72,8.56-.93-9.32,6.27,9.57-1.32-10.61,9.79,8.54-1.75-11.15,9.08,8.03-2.19-9.83,11.22,8.28-1.66-9.55,9.36-5.25-6,8.03,2.21-11.15-9.09,8.56,1.77-10.64-9.79,9.6,1.31-9.35-6.27,8.56.94-10.36-6.72,4.52.66-7.08-9.73c-1.35.91-5.95,8.19-7.07,9.73l4.55-.66-10.36,6.72,8.53-.94-9.32,6.27,9.6-1.31-10.64,9.79,8.56-1.77-11.15,9.09,8.03-2.21-9.01,10.28-7.89-7.73,8.28,1.66-9.83-11.24,8.03,2.21-11.15-9.09,8.53,1.77-10.61-9.79,9.57,1.31-9.32-6.27,8.56.94-10.36-6.72,4.52.66-7.08-9.75c-1.35.92-5.95,8.21-7.08,9.75l4.55-.66-10.39,6.72,8.56-.94-9.32,6.27,9.57-1.31-10.61,9.79,8.53-1.77-11.12,9.09,8.03-2.21-9.85,11.24,8.28-1.66-12.3,12.06,5.17-1.38-8.93,11.24,7.64-.67-5.95,7.29-9.35-10.65,8.06,2.21-11.15-9.09,8.53,1.77-10.61-9.79,9.57,1.31-9.32-6.27,8.56.94-10.39-6.72,4.55.66-7.08-9.75c-1.35.92-5.95,8.21-7.08,9.75l4.55-.66-10.39,6.72,8.56-.94-9.32,6.27,9.57-1.31-10.61,9.79,8.53-1.77-11.15,9.09,8.06-2.21-9.85,11.22,8.28-1.65-7.33,7.18-8.65-10.54,7.66.66-8.96-11.22,5.19,1.37-12.33-12.06,8.31,1.66-9.85-11.24,8.03,2.21-11.15-9.08,8.56,1.75-10.64-9.79,9.6,1.32-9.32-6.29,8.53.94-10.36-6.72,4.55.66-7.08-9.73c-1.38.91-5.95,8.19-7.08,9.73l4.52-.66-10.36,6.72,8.56-.94-9.35,6.29,9.6-1.32-10.64,9.79,8.56-1.75-11.15,9.08,8.03-2.21-9.85,11.24,8.31-1.66-12.33,12.06,5.19-1.37-7.38,9.28-2.98-3.73,3.57.95-8.48-8.31,5.73,1.13-6.79-7.74,5.53,1.51-7.69-6.26,5.9,1.22-7.33-6.76,6.63.91-6.43-4.33,5.9.66-7.16-4.64,3.12.45-4.86-6.72c-.95.63-4.13,5.65-4.89,6.72l3.12-.45-7.13,4.64,5.9-.66-6.46,4.33,6.63-.91-7.33,6.76,5.9-1.22-4.04,3.29-11.48-11.22,8.31,1.66-9.85-11.24,8.03,2.21-11.15-9.09,8.56,1.77-10.64-9.79,9.6,1.31-9.32-6.27,8.53.94-10.36-6.72,4.55.66-7.08-9.75c-1.38.92-5.95,8.21-7.08,9.75l4.52-.66-10.36,6.72,8.56-.94-9.35,6.27,9.6-1.31-10.64,9.79,8.56-1.77-11.15,9.09,8.03-2.21-9.85,11.24,8.31-1.66-12.33,12.06,5.19-1.38-8.93,11.24,7.64-.67-10.5,12.85-8.2-10,7.64.66-8.93-11.22,5.19,1.37-12.33-12.06,8.28,1.66-9.83-11.24,8.03,2.21-11.15-9.09,8.56,1.77-10.64-9.79,9.6,1.32-9.35-6.29,8.56.94-10.36-6.72,4.52.66-7.08-9.73c-1.35.91-5.95,8.19-7.08,9.73l4.55-.66-10.36,6.72,8.53-.94-9.32,6.29,9.57-1.32-10.61,9.79,8.56-1.77-11.15,9.09,8.03-2.21-9.85,11.24,8.31-1.66-11.31,11.08-6.71-8.43,5.17,1.38-12.3-12.06,8.28,1.65-9.85-11.22,8.06,2.21-11.15-9.09,8.53,1.77-10.61-9.8,9.57,1.32-9.32-6.27,8.56.94-10.39-6.72,4.55.66-7.08-9.75Zm1772.16,74.6h-2.5l-3.09-3.53,3.59.99-1.32,1.28,3.03-.81,1.57.43-1.29,1.65Zm48.77,17.51h15.83l-.17.19h-15.5l-.17-.19Zm-1313.69.19l-.62-.79,2.98.79h-2.36Zm51.01,0h.2l1.12-1.36-2.64-.23,1.32,1.59Zm121.99,0h3.85l.39-.5-5.95-1.18,1.71,1.68Zm139.23,0h2.72l4.18-4.12-5.39,1.07.7.7-1.8-.48-.65.12.22-.24-2.95-.78,2.95,3.71Zm1075.52-22.1l-.25-.33.7-.19-.45.52Zm-2.27-2.86l-2.5-3.15.56-.12,4.46,1.19-2.53,2.08Zm-2.67-3.35l-.11-.13.2.05-.08.08Zm5.25,1.23l-1.74-1.72,5.17-1.06-3.43,2.78Zm-38.21-10.1l-1.38-1.71,3.93-.79-2.55,2.49Zm-3.28-4.04l-.22-.26.42.04-.2.23Zm3.93-4.47l-2.02-2.53,5.56-1.53-3.54,4.06Zm-2.78-3.48l-2.72-3.42,5.22,1.38-2.5,2.04Zm-50.12,17.75l-.22-.21.34.06-.11.16Zm3.45-4.23l-5.31-6.06,2.27.62-.25.31,1.07-.08,5.31,1.46-3.09,3.76Zm3.09-3.78l-2.11-1.72,3.79-.32-1.68,2.04Zm-37.51,19.6l-.42-.33.87-.23-.45.56Zm-30.63,2.99l-2.22-2.71,6.04-1.66-3.82,4.37Zm-2.86-3.49l-4.89-5.98,8.03.69-.98-1.22,7.78-1.61-9.94,8.11Zm-51.43,1.37l-2.55-2.49,3.93.79-1.38,1.71Zm3.28-4.03l-2.5-2.86,5.22-.45-2.72,3.32Zm-3.87-4.44l-3.59-4.1,5.62,1.55-2.02,2.55Zm-30.6,11.7l-2.58-3.15,5.33.45-2.75,2.7Zm4.16-4.08l-.9-1.13,2.58-.51-1.68,1.65Zm-3.31-4.16l-4.8-6.04,2.98.79h0s0,0,0,0l2.5.66-1.07-1.04,7.02-1.93-6.63,7.56Zm-43.15-5.33l-.45-.44,1.01-.26-.56.7Zm1.82-5.84l-5.19-5.93,3.28.89-.59.67,1.77-.35,3.99,1.1-1.85-1.51,4.83-.97-6.23,6.1Zm-32.06,9.73l-1.26-1.53,2.58.23-1.32,1.3Zm4.18-4.1l-.81-1.01,2.33-.47-1.52,1.48Zm-3.31-4.17l-3.48-4.38,5.45,1.46-2.58-2.53,7.08-1.93-6.46,7.38Zm-43.04-2.18l-1.18-1.42,2.92-.78-1.74,2.19Zm-1.99-2.42l-.17-.21.37.02-.2.19Zm-45.4,14.59l-2.33-2.82,4.32.37-1.99,2.45Zm-48.09,12.67l-2.27-2.58,3.57.98-1.29,1.6Zm-19.71-.91l-.84-1.04,2.33-.63-1.49,1.67Zm-2.08-2.53l-.03-.06h.11s-.08.06-.08.06Zm3.73-3.02l-1.07-1.31,3.57-.73-2.5,2.04Zm-2.3-2.89l-2.58-3.24,4.46,1.19-3.03-2.96,7.72-1.06-6.57,6.07Zm-40.32,12.87l-5.53-5.4,7.13,1.42-2.19-2.49,6.32-.55-5.73,7.03Zm-28.41-1.24l-2.33-2.86,6.57-1.3-4.24,4.16Zm-40.88-13.48l-1.74-2.14,4.35-1.14-2.61,3.28Zm-1.8-2.17l-2.44-2.98,5.05.43-2.61,2.55Zm-50.93,6.75l-3.82-3.73,5.9,1.18-2.08,2.55Zm2.27-2.78l-7.27-8.28,5.36,1.47-.45.55,8.06-.69-5.7,6.95Zm-24.79,1.13l-1.18-1.43,3.31-.66-2.13,2.09Zm-87.12,1.79l-.62-.74,1.54-.41-.93,1.15Zm-39.81-13.72l-1.32-1.62,3.28-.87-1.97,2.49Zm-56.35,4.32l-2.16-2.71,3.59.95-1.43,1.75Zm-125.95,2.99l-.25-.35.42.12-.17.23Zm-36.27,13.66l-3.37-4.21,4.46,1.18-1.52-1.49,4.44-.39-4.01,4.91Zm-116.82,7.29l-.37-.47.95-.25-.59.72Zm-48.04-8.89l-.95-1.2,2.08-.18-1.12,1.38Zm-3.54-4.45l-1.21-1.5,1.99.52-.79.98Zm-43.04,14.71l-8.45-9.64,7.5,2.05-2.08,2.6,7.66-.66-4.63,5.64Zm-77.29-4.96l-2.89-3.52,5.95.51-3.06,3.01Zm3.96-3.88l-2.11-2.65,6.04-1.2-3.93,3.85Zm-50.14,6.2l-6.29-7.9,4.6,1.23-1.18,1.48,7.66-.66-4.8,5.84Zm-91.58,3.91l-.22-.29.59-.16-.37.44Zm-1.68-2.14l-.67-.83,1.21.32-.53.51Zm-34-7.05l-1.77-2.15,3.62.31-1.85,1.84Zm3.96-3.89l-.31-.39.9-.18-.59.57Zm-3.23-4.04l-3.79-4.78,1.66.44-.53.44,1.07-.3,2.98.79-1.26-1.25,5.25-1.44-5.36,6.11Zm-41.16,5.95l-.14-.14.28-.02-.14.17Zm-3.99-3.91l-.56-.55.87.17-.31.38Zm3.23-4.04l-1.57-1.78,3.76-1-2.19,2.78Zm-2.05-2.33l-3.28-3.76,5.56,1.53-2.27,2.23Zm-28.08,10.41l-2.58-3.15,7.24-1.44-4.66,4.59Zm-47.87-14.43l-2.44-2.39,3.73.75-1.29,1.63Zm3.09-3.89l-.42-.49,1.01-.26-.59.75Zm-33.44,7.63l-1.97-2.48,3.54.94-1.57,1.54Zm2.16-2.12l-2.7-2.65,6.79-1.36-4.1,4.01Zm-50.28,21.14l-4.8-4.71,7.44,1.48-2.64,3.23Zm-85.97-1.94l-3.14-3.86,5.28.47-1.85-2.33,4.74-.41-5.03,6.13Zm-26.95-15.53l-.84-1.03,1.74.16-.9.87Zm1.68-6.81l-1.38-1.74,3.82-1.04-2.44,2.78Zm-1.82-2.3l-1.99-2.48,3.79,1.01-1.8,1.47Zm-97.25,11.99l-.76-.92,1.63-.13-.87,1.05Zm-3.59-4.39l-3.85-4.7,7.08.62-3.23,4.08Zm3.51-4.4l-1.49-1.85,3.73-.98-2.25,2.83Z"/>
  <rect class="cls-1" x="-5" y="910" width="1930" height="1254"/>
</svg>