<?xml version="1.0" encoding="UTF-8"?>
<svg id="Layer_1" data-name="Layer 1" xmlns="http://www.w3.org/2000/svg" xmlns:xlink="http://www.w3.org/1999/xlink" viewBox="0 0 1368.85 110.29">
  <defs>
    <style>
      .cls-1 {
        fill: url(#linear-gradient);
        fill-rule: evenodd;
        stroke-width: 0px;
      }
    </style>
    <linearGradient id="linear-gradient" x1="684.43" y1="27.75" x2="684.43" y2="111.5" gradientUnits="userSpaceOnUse">
      <stop offset="0" stop-color="#000d26"/>
      <stop offset="1" stop-color="#000"/>
    </linearGradient>
  </defs>
  <path id="trees" class="cls-1" d="M19.28,13.21c-.96.67-4.22,5.95-5.02,7.07l3.23-.48-7.37,4.87,6.07-.68-6.61,4.55,6.79-.96-7.53,7.11,6.05-1.28-7.91,6.6,5.71-1.6-6.99,8.14,5.87-1.19-8.72,8.75,3.66-1L.2,61.26l5.42-.48-5.62,7.03v42.49h1368.85V39.27c-1.37,1.94-3.05,4.63-3.6,5.41l3.39-.5-7.75,5.12,6.39-.71-6.97,4.79,7.17-1-6.23,5.89-6.87-6.87,6.19,1.26-7.35-8.58,5.99,1.68-8.32-6.93,6.39,1.34-7.93-7.49,7.15,1.01-6.97-4.79,6.39.72-7.75-5.13,3.39.51-5.28-7.44c-1.02.7-4.44,6.26-5.28,7.44l3.39-.51-7.75,5.13,6.39-.72-6.97,4.79,7.17-1.01-7.95,7.49,6.39-1.34-4.98,4.14-9.1-9.11,6.19,1.26-7.35-8.58,5.99,1.68-8.3-6.93,6.37,1.34-7.93-7.48,7.15,1-6.95-4.79,6.37.71-7.73-5.12,3.39.5-5.3-7.44c-1,.7-4.44,6.27-5.28,7.44l3.39-.5-7.73,5.12,6.37-.71-6.97,4.79,7.17-1-7.93,7.48,6.37-1.34-8.32,6.93,6.01-1.68-7.37,8.58,6.19-1.26-9.18,9.21,3.86-1.05-5.36,6.87-5.08-4.23,6.39,1.34-7.94-7.49,7.17,1.01-6.97-4.79,6.39.72-7.75-5.13,3.39.51-5.28-7.44c-1.02.7-4.44,6.26-5.28,7.44l3.39-.51-7.75,5.13,6.39-.72-6.97,4.79,7.15-1.01-7.93,7.49,6.39-1.34-8.32,6.93,5.99-1.68-7.35,8.58,6.19-1.26-7.23,7.24-5.89-4.92,6.37,1.35-7.93-7.49,7.15,1.01-6.95-4.79,6.37.72-7.73-5.13,3.39.5-5.3-7.43c-1,.7-4.44,6.26-5.28,7.43l3.39-.5-7.73,5.13,6.37-.72-6.95,4.79,7.15-1.01-7.35,6.93-5.69-7.32,3.86,1.06-9.18-9.21,6.19,1.26-7.35-8.58,5.99,1.68-8.32-6.93,6.39,1.34-7.94-7.48,7.17,1-6.97-4.79,6.39.71-7.75-5.12,3.39.5-5.28-7.44c-1.02.7-4.44,6.27-5.28,7.44l3.39-.5-7.75,5.12,6.39-.71-6.97,4.79,7.15-1-7.93,7.48,6.39-1.34-8.32,6.93,5.99-1.68-7.35,8.58,6.19-1.26-9.2,9.21,3.88-1.06-3.68,4.73-6.85-5.7,6.39,1.35-7.93-7.49,7.15,1.01-6.97-4.79,6.39.71-7.75-5.12,3.39.5-5.28-7.44c-1.02.7-4.44,6.27-5.28,7.44l3.39-.5-7.75,5.12,6.39-.71-6.97,4.79,7.17-1.01-7.94,7.49,6.39-1.35-7.63,6.35-8.12-8.14,6.19,1.25-7.35-8.57,5.99,1.68-8.32-6.94,6.39,1.35-7.93-7.49,7.15,1.01-6.97-4.79,6.39.72-7.75-5.13,3.39.5-5.28-7.43c-1.02.7-4.44,6.26-5.28,7.43l3.39-.5-7.75,5.13,6.39-.72-6.97,4.79,7.17-1.01-7.94,7.49,6.39-1.35-8.32,6.94,5.99-1.68-5.91,6.91-5.68-4.73,6.39,1.35-7.93-7.49,7.15,1.01-6.97-4.79,6.39.72-7.75-5.13,3.39.5-5.28-7.43c-1.02.7-4.44,6.26-5.28,7.43l3.39-.5-7.75,5.13,6.39-.72-6.97,4.79,7.17-1.01-7.95,7.49,6.39-1.35-7.65,6.37-7.07-7.08,6.19,1.26-7.35-8.58,5.99,1.68-8.32-6.93,6.39,1.34-7.93-7.48,7.15,1-6.97-4.79,6.39.71-7.75-5.12,3.39.5-5.28-7.44c-1.02.7-4.44,6.27-5.28,7.44l3.39-.5-7.75,5.12,6.39-.71-6.97,4.79,7.17-1-7.94,7.48,6.39-1.34-8.32,6.93,5.99-1.68-7.35,8.58,6.19-1.26-5.54,5.55-3.35-4.31,3.17.86-7.51-7.52,5.06,1.03-6.01-7.01,4.9,1.38-6.79-5.67,5.22,1.1-6.49-6.11,5.85.82-5.69-3.91,5.22.58-6.31-4.19,2.77.42-4.32-6.08c-.84.57-3.62,5.12-4.32,6.08l2.77-.42-6.31,4.19,5.22-.58-5.69,3.91,5.85-.82-6.49,6.11,5.22-1.1-6.79,5.67,4.9-1.38-6.01,7.01,5.06-1.03-7.51,7.52,3.17-.86-5.46,7,4.66-.41-6.41,8.02-4.6-5.92,3.15.86-7.51-7.52,5.06,1.03-5.99-7,4.9,1.38-6.79-5.67,5.2,1.1-6.47-6.11,5.85.82-5.69-3.92,5.22.59-6.33-4.19,2.77.41-4.3-6.08c-.84.57-3.64,5.12-4.32,6.08l2.77-.41-6.33,4.19,5.22-.59-5.67,3.92,5.83-.82-6.47,6.11,5.22-1.1-6.81,5.67,4.92-1.38-6.01,7,5.06-1.03-7.51,7.52,3.17-.86-5.46,7.01,4.66-.42-7.43,9.29-5.06-4.22,5.2,1.1-6.47-6.12,5.85.83-5.69-3.92,5.22.59-6.33-4.19,2.77.41-4.3-6.08c-.84.57-3.64,5.12-4.32,6.08l2.77-.41-6.33,4.19,5.22-.59-5.44,3.74-5.24-5.25,5.06,1.03-6.01-7.01,4.9,1.38-6.79-5.67,5.22,1.1-6.49-6.11,5.85.82-5.69-3.91,5.22.58-6.31-4.19,2.77.42-4.32-6.08c-.84.58-3.62,5.12-4.32,6.08l2.77-.42-6.31,4.19,5.22-.58-5.69,3.91,5.85-.82-6.49,6.11,5.22-1.1-6.79,5.67,4.9-1.38-6.01,7.01,5.06-1.03-7.51,7.52,3.17-.87-5.36,6.89-4.38-5.1,4.9,1.38-6.79-5.67,5.22,1.1-6.49-6.11,5.85.82-5.69-3.91,5.22.58-6.31-4.19,2.77.42-4.32-6.08c-.84.58-3.62,5.12-4.32,6.08l2.77-.42-6.31,4.19,5.22-.58-5.69,3.91,5.85-.82-6.49,6.11,5.22-1.1-6.79,5.67,4.9-1.38-5.77,6.73-2.65-3.3,4.66.41-5.44-7,3.15.86-7.51-7.52,5.06,1.03-5.99-7.01,4.9,1.38-6.81-5.67,5.22,1.1-6.47-6.11,5.85.82-5.69-3.91,5.22.58-6.33-4.19,2.77.42-4.3-6.08c-.84.57-3.64,5.12-4.32,6.08l2.77-.42-6.33,4.19,5.22-.58-5.67,3.91,5.83-.82-6.47,6.11,5.22-1.1-6.81,5.67,4.9-1.38-5.99,7.01,5.06-1.03-4.5,4.5-5.66-7.27,3.86,1.06-9.18-9.21,6.19,1.26-7.37-8.58,6.01,1.68-8.32-6.93,6.37,1.34-7.93-7.49,7.17,1.01-6.97-4.79,6.37.72-7.73-5.13,3.39.51-5.28-7.44c-1.02.7-4.46,6.27-5.3,7.44l3.39-.51-7.73,5.13,6.37-.72-6.95,4.79,7.15-1.01-7.93,7.49,6.37-1.34-8.3,6.93,5.99-1.68-7.35,8.58,6.19-1.26-9.2,9.21,3.86-1.06-6.21,7.99-5.64-4.69,4.64.98-5.75-5.44,5.2.74-5.06-3.49,4.64.52-5.64-3.72,2.47.36-3.84-5.41c-.74.51-3.23,4.55-3.84,5.41l2.47-.36-5.62,3.72,4.64-.52-5.08,3.49,5.22-.74-5.77,5.44,4.64-.98-6.03,5.04,4.34-1.22-4.04,4.72-4.7-5.89,4.66.42-5.46-7.01,3.17.87-7.51-7.52,5.06,1.03-6.01-7.01,4.9,1.38-6.79-5.67,5.22,1.1-6.47-6.11,5.83.82-5.68-3.91,5.2.58-6.31-4.19,2.77.42-4.32-6.08c-.82.57-3.62,5.12-4.3,6.08l2.75-.42-6.31,4.19,5.22-.58-5.69,3.91,5.85-.82-6.49,6.11,5.22-1.1-6.79,5.67,4.9-1.38-5.99,7.01,5.04-1.03-7.49,7.52,3.15-.87-5.46,7.01,4.68-.42-9.32,11.63-2.47-3.17,2.83.76-6.69-6.69,4.5.92-5.34-6.23,4.36,1.22-6.05-5.05,4.64.98-5.75-5.44,5.2.74-5.06-3.49,4.64.52-5.64-3.73,2.47.37-3.84-5.41c-.74.51-3.23,4.55-3.84,5.41l2.47-.37-5.64,3.73,4.64-.52-5.06,3.49,5.2-.74-5.75,5.44,4.64-.98-6.05,5.05,4.36-1.22-5.34,6.23,4.5-.92-5.52,5.52-3.15-3.93,4.66.41-5.46-7,3.17.86-7.51-7.52,5.06,1.03-5.99-7,4.9,1.37-6.81-5.66,5.22,1.09-6.47-6.11,5.83.82-5.68-3.91,5.22.59-6.33-4.2,2.77.42-4.32-6.08c-.82.57-3.62,5.12-4.3,6.08l2.77-.42-6.33,4.2,5.22-.59-5.69,3.91,5.85-.82-6.47,6.11,5.22-1.09-6.81,5.66,4.9-1.37-5.99,7,5.06-1.03-6.97,6.97-5.77-7.22,4.66.41-5.46-7,3.17.86-7.51-7.52,5.06,1.03-5.99-7.01,4.9,1.38-6.81-5.67,5.22,1.1-6.47-6.11,5.83.82-5.67-3.91,5.22.58-6.33-4.19,2.77.42-4.32-6.08c-.82.57-3.62,5.12-4.3,6.08l2.77-.42-6.33,4.19,5.22-.58-5.69,3.91,5.85-.82-6.47,6.11,5.22-1.1-6.81,5.67,4.9-1.38-5.99,7.01,5.06-1.03-7.51,7.52,3.15-.86-5.44,7,4.66-.41-8.28,10.34-7.09-7.11,5.06,1.03-6.01-7.01,4.9,1.38-6.79-5.67,5.22,1.1-6.49-6.11,5.85.82-5.69-3.91,5.22.58-6.31-4.19,2.77.42-4.32-6.08c-.84.57-3.62,5.12-4.32,6.08l2.77-.42-6.31,4.19,5.22-.58-5.69,3.91,5.85-.82-6.49,6.11,5.22-1.1-6.79,5.67,4.9-1.38-6.01,7.01,5.06-1.03-7.51,7.52,3.17-.86-5.46,7,4.66-.41-3.15,3.95h-4.64l-1.19-1.51,2.83.77-6.71-6.73,4.52.93-5.36-6.27,4.38,1.23-6.09-5.07,4.68.99-5.79-5.47,5.22.74-5.08-3.5,4.66.52-5.66-3.75,2.47.37-3.84-5.44c-.76.51-3.27,4.57-3.86,5.44l2.47-.37-5.66,3.75,4.66-.52-5.08,3.5,5.22-.74-5.79,5.47,4.68-.99-6.09,5.07,4.38-1.23-5.36,6.27,4.52-.93-3.11,3.12-7.75-9.67,4.68.42-5.46-7,3.15.86-7.51-7.52,5.06,1.03-5.99-7.01,4.9,1.38-6.79-5.67,5.2,1.1-6.47-6.11,5.85.82-5.69-3.91,5.22.58-6.31-4.19,2.75.42-4.3-6.08c-.84.57-3.64,5.12-4.32,6.08l2.77-.42-6.31,4.19,5.2-.58-5.67,3.91,5.83-.82-6.47,6.11,5.22-1.1-6.79,5.67,4.9-1.38-6.01,7.01,5.06-1.03-7.51,7.52,3.17-.86-5.46,7,4.66-.42-5.04,6.31-5.6-5.59,5.06,1.03-5.99-7.01,4.9,1.38-6.81-5.67,5.22,1.1-6.47-6.11,5.85.82-5.69-3.91,5.22.58-6.33-4.19,2.77.42-4.3-6.08c-.84.57-3.64,5.12-4.32,6.08l2.77-.42-6.33,4.19,5.22-.58-5.69,3.91,5.85-.82-6.47,6.11,5.22-1.1-6.81,5.67,4.9-1.38-5.99,7.01,5.06-1.03-7.51,7.52,3.15-.87-4.72,6.08-5.64-5.64,5.06,1.03-6.01-7.01,4.9,1.38-6.79-5.67,5.22,1.1-6.47-6.11,5.83.82-5.68-3.91,5.2.58-6.31-4.19,2.77.42-4.32-6.08c-.82.57-3.62,5.12-4.3,6.08l2.75-.42-6.31,4.19,5.22-.58-5.69,3.91,5.85-.82-6.49,6.11,5.22-1.1-6.79,5.67,4.9-1.38-5.99,7.01,5.04-1.03-7.51,7.52,3.17-.86-5.46,7,4.68-.41-3.15,3.92h-5.58l-2.97-2.99,5.06,1.03-6.01-7,4.9,1.38-6.79-5.67,5.22,1.1-6.49-6.11,5.85.82-5.69-3.92,5.22.59-6.31-4.19,2.77.41-4.32-6.08c-.82.57-3.62,5.12-4.32,6.08l2.77-.41-6.31,4.19,5.22-.59-5.69,3.92,5.85-.82-6.49,6.11,5.22-1.1-6.79,5.67,4.9-1.38-5.32,6.21-7.69-7.69,5.87,1.2-6.97-8.15,5.69,1.6-7.91-6.59,6.05,1.27-7.53-7.11,6.81.96-6.63-4.55,6.07.68-7.35-4.87,3.21.48-5.02-7.06c-.96.67-4.22,5.95-5.02,7.06l3.23-.48-7.35,4.87,6.05-.68-6.61,4.55,6.79-.96-7.53,7.11,6.07-1.27-7.91,6.59,5.69-1.6-6.99,8.15,5.87-1.2-6.69,6.73-4.72-5.9,5.42.48-6.33-8.15,3.66,1-8.72-8.75,5.87,1.2-6.97-8.15,5.69,1.6-7.91-6.6,6.05,1.28-7.53-7.11,6.79.95-6.61-4.55,6.07.68-7.35-4.87,3.21.48-5.02-7.07c-.96.67-4.22,5.95-5.02,7.07l3.23-.48-7.37,4.87,6.07-.68-6.61,4.55,6.79-.95-7.53,7.11,6.05-1.28-7.89,6.6,5.69-1.6-6.99,8.15,5.87-1.2-8.72,8.75,3.66-1-2.95,3.8-7.19-7.19,5.89,1.19-6.99-8.14,5.69,1.59-7.91-6.59,6.07,1.28-7.55-7.11,6.81.96-6.61-4.55,6.05.68-7.35-4.87,3.21.48-5-7.07c-.98.67-4.24,5.95-5.02,7.07l3.21-.48-7.35,4.87,6.05-.68-6.61,4.55,6.81-.96-7.55,7.11,6.07-1.28-7.91,6.59,5.69-1.59-6.99,8.14,5.89-1.19-8.74,8.74,3.68-1-4.78,6.13-7.61-6.35,6.05,1.28-7.53-7.11,6.79.96-6.61-4.55,6.05.68-7.35-4.87,3.23.48-5.02-7.07c-.96.67-4.22,5.95-5.02,7.07l3.21-.48-7.35,4.87,6.07-.68-6.61,4.55,6.79-.96-7.53,7.11,6.05-1.28-7.91,6.59,5.69-1.59-6.97,8.14,5.87-1.19-1.21,1.22h-5.3l-2.05-2.63,3.68,1-8.74-8.75,5.89,1.2-6.99-8.15,5.69,1.6-7.91-6.59,6.07,1.27-7.55-7.11,6.81.96-6.61-4.55,6.05.68-7.35-4.87,3.23.48-5.02-7.06c-.98.67-4.22,5.95-5.02,7.06l3.21-.48-7.35,4.87,6.07-.68-6.63,4.55,6.81-.96-7.55,7.11,6.07-1.27-7.91,6.59,5.69-1.6-6.01,7.02-3.64-4.68,3.68,1-8.74-8.74,5.89,1.19-6.99-8.14,5.69,1.59-7.91-6.59,6.07,1.28-7.55-7.11,6.81.96-6.63-4.55,6.07.68-7.35-4.87,3.21.48-5.02-7.07c-.96.67-4.22,5.95-5.02,7.07l3.23-.48-7.35,4.87,6.05-.68-6.61,4.55,6.81-.96-7.55,7.11,6.07-1.28-7.91,6.59,5.69-1.59-6.99,8.14,5.89-1.19-8.74,8.74,3.68-1-5.38,6.91-8.46-8.47,5.89,1.19-6.99-8.14,5.69,1.6-7.91-6.6,6.07,1.28-7.55-7.11,6.81.95-6.61-4.55,6.05.68-7.35-4.87,3.23.48-5.02-7.07c-.98.67-4.22,5.95-5.02,7.07l3.21-.48-7.35,4.87,6.07-.68-6.63,4.55,6.81-.95-7.55,7.11,6.07-1.28-7.91,6.6,5.69-1.6-6.99,8.14,5.89-1.19-8.74,8.75,3.68-1-6.33,8.15,5.42-.48-.92,1.15h-4.22l-8.3-8.32,5.89,1.19-6.99-8.14,5.69,1.59-7.91-6.59,6.07,1.27-7.55-7.11,6.81.96-6.63-4.55,6.07.68-7.35-4.87,3.21.48-5.02-7.07c-.96.67-4.22,5.95-5.02,7.07l3.23-.48-7.35,4.87,6.05-.68-6.61,4.55,6.81-.96-7.55,7.11,6.07-1.27-7.91,6.59,5.69-1.59-6.99,8.14,5.89-1.19-5.12,5.11-6.93-6.94,5.89,1.19-6.99-8.14,5.69,1.6-7.91-6.6,6.07,1.28-7.55-7.11,6.81.96-6.61-4.55,6.05.68-7.35-4.87,3.23.48-5.02-7.07c-.98.67-4.24,5.95-5.02,7.07l3.21-.48-7.35,4.87,6.05-.68-6.61,4.55,6.81-.96-7.55,7.11,6.07-1.28-6.53,5.44-7.23-7.24,5.87,1.2-6.97-8.15,5.69,1.6-7.91-6.59,6.05,1.27-7.53-7.11,6.79.96-6.61-4.55,6.07.68-7.35-4.87,3.21.48-5.02-7.06c-.96.67-4.22,5.95-5.02,7.06l3.23-.48-7.37,4.87,6.07-.68-6.61,4.55,6.79-.96-7.53,7.11,6.05-1.27-7.89,6.59,5.69-1.6-6.99,8.15,5.87-1.2-5.91,5.94-6.69-5.57,6.05,1.28-7.53-7.11,6.81.95-6.63-4.55,6.07.68-7.35-4.87,3.21.48-5.02-7.07c-.96.67-4.22,5.95-5.02,7.07l3.23-.48-7.35,4.87,6.05-.68-6.61,4.55,6.79-.95-7.53,7.11,6.07-1.28-7.91,6.6,5.69-1.6-6.55,7.63-2.81-3.52,5.42.48-6.33-8.14,3.66,1-8.72-8.75,5.87,1.2-6.99-8.14,5.69,1.59-7.89-6.59,6.05,1.27-7.53-7.11,6.79.96-6.61-4.55,6.07.68-7.37-4.87,3.23.48-5.02-7.06c-.96.67-4.22,5.95-5.02,7.06l3.21-.48-7.35,4.87,6.07-.68-6.61,4.55,6.79-.96-7.53,7.11,6.05-1.27-7.91,6.59,5.69-1.59-6.97,8.14,5.87-1.2-6.77,6.79-3.72-4.35,5.69,1.6-7.91-6.6,6.07,1.28-7.55-7.11,6.81.95-6.63-4.55,6.07.68-7.35-4.87,3.21.48-5.02-7.06c-.96.66-4.22,5.95-5.02,7.06l3.23-.48-7.35,4.87,6.05-.68-6.61,4.55,6.81-.95-7.55,7.11,6.07-1.28-7.91,6.6,5.69-1.6-6.39,7.46-5.6-5.61,5.87,1.2-6.97-8.15,5.69,1.6-7.91-6.6,6.05,1.28-7.53-7.11,6.79.95-6.61-4.55,6.07.68-7.35-4.87,3.21.48-5.02-7.07c-.96.67-4.22,5.95-5.02,7.07l3.23-.48-7.37,4.87,6.07-.68-6.61,4.55,6.79-.95-7.53,7.11,6.05-1.28-7.89,6.6,5.69-1.6-6.99,8.15,5.87-1.2-8.72,8.75,3.66-1-6.33,8.15,5.42-.48-4.22,5.29-6.63-7.73,5.71,1.6-7.91-6.6,6.05,1.28-7.53-7.11,6.79.95-6.61-4.55,6.07.68-7.37-4.87,3.23.48-5.02-7.07c-.96.67-4.22,5.95-5.02,7.07l3.23-.48-7.37,4.87,6.07-.68-6.61,4.55,6.79-.95-7.53,7.11,6.05-1.28-7.91,6.6,5.71-1.6-6.99,8.14,5.87-1.19-5.2,5.21-6.13-7.65,5.44.48-6.35-8.14,3.68,1-8.74-8.75,5.89,1.2-6.99-8.15,5.69,1.6-7.91-6.59,6.07,1.27-7.55-7.11,6.81.96-6.61-4.56,6.05.68-7.35-4.87,3.23.48-5.02-7.06c-.98.66-4.22,5.95-5.02,7.06l3.21-.48-7.35,4.87,6.07-.68-6.63,4.56,6.81-.96-7.55,7.11,6.07-1.27-7.91,6.59,5.69-1.6-6.99,8.15,5.89-1.2-8.74,8.75,3.68-1-5.24,6.73-2.11-2.71,2.53.69-6.01-6.03,4.06.82-4.82-5.62,3.92,1.1-5.46-4.54,4.18.88-5.2-4.91,4.7.66-4.56-3.14,4.18.48-5.08-3.37,2.21.33-3.44-4.87c-.68.46-2.93,4.1-3.46,4.87l2.21-.33-5.06,3.37,4.18-.48-4.58,3.14,4.7-.66-5.2,4.91,4.18-.88-2.87,2.39-8.14-8.14,5.89,1.2-6.99-8.15,5.69,1.6-7.91-6.6,6.07,1.28-7.55-7.11,6.81.95-6.61-4.55,6.05.68-7.35-4.87,3.23.48-5.02-7.07c-.98.67-4.22,5.95-5.02,7.07l3.21-.48-7.35,4.87,6.07-.68-6.63,4.55,6.81-.95-7.55,7.11,6.07-1.28-7.91,6.6,5.69-1.6-6.99,8.15,5.89-1.2-8.74,8.75,3.68-1-6.33,8.15,5.42-.48-7.45,9.32-5.81-7.25,5.42.48-6.33-8.14,3.68,1-8.74-8.75,5.87,1.2-6.97-8.15,5.69,1.6-7.91-6.6,6.07,1.28-7.55-7.11,6.81.96-6.63-4.56,6.07.68-7.35-4.87,3.21.48-5.02-7.06c-.96.66-4.22,5.95-5.02,7.06l3.23-.48-7.35,4.87,6.05-.68-6.61,4.56,6.79-.96-7.53,7.11,6.07-1.28-7.91,6.6,5.69-1.6-6.99,8.15,5.89-1.2-8.02,8.04-4.76-6.12,3.66,1-8.72-8.75,5.87,1.19-6.99-8.14,5.71,1.6-7.91-6.6,6.05,1.28-7.53-7.11,6.79.96-6.61-4.55,6.07.68-7.37-4.87,3.23.48-5.02-7.07ZM1276.16,67.34h-1.77l-2.19-2.56,2.55.72-.94.93,2.15-.59,1.12.31-.92,1.19ZM1310.75,80.04h11.23l-.12.14h-10.99l-.12-.14ZM379.03,80.18l-.44-.57,2.11.57h-1.67ZM415.21,80.18h.14l.8-.99-1.87-.16.94,1.15ZM501.73,80.18h2.73l.28-.36-4.22-.86,1.21,1.22ZM600.48,80.18h1.93l2.97-2.99-3.82.78.5.51-1.27-.35-.46.09.16-.17-2.09-.56,2.09,2.69ZM1363.28,64.14l-.18-.24.5-.14-.32.38ZM1361.66,62.07l-1.77-2.28.4-.09,3.17.87-1.79,1.51ZM1359.77,59.63l-.08-.1.14.03-.06.06ZM1363.5,60.53l-1.23-1.25,3.66-.77-2.43,2.02ZM1336.4,53.19l-.98-1.24,2.79-.57-1.81,1.81ZM1334.07,50.26l-.16-.19.3.03-.14.16ZM1336.85,47.01l-1.43-1.83,3.94-1.11-2.51,2.94ZM1334.88,44.49l-1.93-2.48,3.7,1-1.77,1.48ZM1299.34,57.37l-.16-.16.24.04-.08.11ZM1301.79,54.29l-3.76-4.4,1.61.45-.18.23.76-.06,3.76,1.06-2.19,2.73ZM1303.98,51.55l-1.49-1.25,2.69-.23-1.19,1.48ZM1277.38,65.77l-.3-.24.62-.16-.32.41ZM1255.65,67.94l-1.57-1.96,4.28-1.2-2.71,3.17ZM1253.62,65.41l-3.46-4.34,5.69.5-.7-.88,5.52-1.17-7.05,5.89ZM1217.14,66.4l-1.81-1.81,2.79.57-.98,1.24ZM1219.47,63.48l-1.77-2.08,3.7-.33-1.93,2.41ZM1216.72,60.26l-2.55-2.98,3.98,1.13-1.43,1.85ZM1195.02,68.75l-1.83-2.28,3.78.33-1.95,1.96ZM1197.97,65.79l-.64-.82,1.83-.37-1.19,1.19ZM1195.62,62.77l-3.41-4.38,2.11.57h0s0,0,0,0l1.77.48-.76-.75,4.98-1.4-4.7,5.49ZM1165.01,58.9l-.32-.32.72-.19-.4.51ZM1166.3,54.66l-3.68-4.3,2.33.65-.42.48,1.25-.25,2.83.8-1.31-1.1,3.42-.7-4.42,4.42ZM1143.56,61.72l-.9-1.11,1.83.16-.94.94ZM1146.53,58.74l-.58-.74,1.65-.34-1.08,1.07ZM1144.18,55.71l-2.47-3.18,3.86,1.06-1.83-1.83,5.02-1.4-4.58,5.36ZM1113.66,54.13l-.84-1.03,2.07-.56-1.23,1.59ZM1112.24,52.37l-.12-.16.26.02-.14.14ZM1080.04,62.96l-1.65-2.04,3.07.27-1.41,1.77ZM1045.93,72.15l-1.61-1.87,2.53.71-.92,1.16ZM1031.96,71.49l-.6-.75,1.65-.46-1.06,1.21ZM1030.48,69.66l-.02-.04h.08s-.06.04-.06.04ZM1033.13,67.47l-.76-.95,2.53-.53-1.77,1.48ZM1031.5,65.37l-1.83-2.35,3.17.87-2.15-2.15,5.48-.77-4.66,4.41ZM1002.9,74.71l-3.92-3.92,5.06,1.03-1.55-1.81,4.48-.4-4.06,5.1ZM982.75,73.81l-1.65-2.08,4.66-.94-3.01,3.02ZM953.76,64.03l-1.23-1.55,3.09-.83-1.85,2.38ZM952.49,62.46l-1.73-2.16,3.58.31-1.85,1.85ZM916.37,67.35l-2.71-2.71,4.18.86-1.47,1.85ZM917.98,65.34l-5.16-6.01,3.8,1.06-.32.4,5.71-.5-4.04,5.05ZM900.4,66.16l-.84-1.04,2.35-.48-1.51,1.51ZM838.61,67.46l-.44-.54,1.1-.29-.66.83ZM810.37,57.51l-.94-1.18,2.33-.63-1.39,1.81ZM770.41,60.64l-1.53-1.96,2.55.69-1.02,1.27ZM681.08,62.81l-.18-.25.3.09-.12.16ZM655.35,72.72l-2.39-3.06,3.17.86-1.08-1.08,3.15-.29-2.85,3.57ZM572.5,78.01l-.26-.34.68-.18-.42.52ZM538.43,71.56l-.68-.87,1.47-.13-.8,1ZM535.92,68.33l-.86-1.09,1.41.38-.56.71ZM505.39,79l-5.99-6.99,5.32,1.49-1.47,1.89,5.44-.48-3.29,4.09ZM450.58,75.4l-2.05-2.55,4.22.37-2.17,2.18ZM453.38,72.59l-1.49-1.92,4.28-.87-2.79,2.8ZM417.82,77.09l-4.46-5.73,3.27.89-.84,1.07,5.44-.48-3.4,4.24ZM352.87,79.93l-.16-.21.42-.11-.26.32ZM351.67,78.38l-.48-.61.86.23-.38.37ZM327.56,73.27l-1.25-1.56,2.57.23-1.31,1.33ZM330.37,70.44l-.22-.29.64-.13-.42.42ZM328.08,67.51l-2.69-3.47,1.17.32-.38.32.76-.22,2.11.57-.9-.91,3.72-1.05-3.8,4.43ZM298.88,71.83l-.1-.1.2-.02-.1.12ZM296.06,68.99l-.4-.4.62.12-.22.28ZM298.35,66.06l-1.12-1.29,2.67-.73-1.55,2.02ZM296.89,64.37l-2.33-2.73,3.94,1.11-1.61,1.62ZM276.98,71.92l-1.83-2.28,5.14-1.05-3.31,3.33ZM243.03,61.45l-1.73-1.73,2.65.55-.92,1.19ZM245.22,58.63l-.3-.35.72-.19-.42.55ZM221.5,64.17l-1.39-1.8,2.51.68-1.12,1.12ZM223.04,62.63l-1.91-1.92,4.82-.99-2.91,2.91ZM187.37,77.97l-3.4-3.42,5.28,1.07-1.87,2.35ZM126.4,76.56l-2.23-2.8,3.74.34-1.31-1.69,3.37-.29-3.56,4.45ZM107.29,65.29l-.6-.74,1.23.11-.64.63ZM108.48,60.34l-.98-1.26,2.71-.75-1.73,2.02ZM107.19,58.67l-1.41-1.8,2.69.74-1.27,1.06ZM38.21,67.37l-.54-.67,1.15-.1-.62.76ZM35.66,64.19l-2.73-3.41,5.02.45-2.29,2.96ZM38.15,60.99l-1.06-1.34,2.65-.71-1.59,2.05Z"/>
</svg>